<mxfile host="Electron" modified="2024-11-12T02:24:38.668Z" agent="Mozilla/5.0 (Macintosh; Intel Mac OS X 10_15_7) AppleWebKit/537.36 (KHTML, like Gecko) draw.io/24.2.5 Chrome/120.0.6099.109 Electron/28.1.0 Safari/537.36" etag="aeXDJ_y7GBFgudCcqdJN" version="24.2.5" type="device">
  <diagram name="Page-1" id="_UZZAH85UGfoMhTveVQs">
    <mxGraphModel dx="1434" dy="907" grid="0" gridSize="10" guides="1" tooltips="1" connect="1" arrows="1" fold="1" page="1" pageScale="1" pageWidth="827" pageHeight="1169" background="none" math="0" shadow="0">
      <root>
        <mxCell id="0" />
        <mxCell id="1" parent="0" />
        <mxCell id="ILMhwKr-gRY-XF_f-1hN-2" value="" style="shape=image;verticalLabelPosition=bottom;labelBackgroundColor=default;verticalAlign=top;aspect=fixed;imageAspect=0;image=data:image/png,iVBORw0KGgoAAAANSUhEUgAAAgAAAAIACAYAAAD0eNT6AAAABHNCSVQICAgIfAhkiAAAAAlwSFlzAAAOxAAADsQBlSsOGwAAABl0RVh0U29mdHdhcmUAd3d3Lmlua3NjYXBlLm9yZ5vuPBoAACAASURBVHic7d13uCVFmfjx78zAwJCVjGQECYooGFFABRVREVdUVMTsmnPEhHndXVfxZ1ZYWHMEBVxFBIU1AJIUVCSICIjEgSFNOr8/aq5zudx7zzn9dlX3Of39PE897vMsXf1Wnb5Tb3dXV4EkSZIkSZIkSZIkSZIkSZIkSZIkSZIkSZIkSZIkSZIkSZIkSZIkSZIkSZIkSZIkSZIkSZIkSZIkSZIkSZIkSZIkSZIkSZIkSZIkSZIkSZIkSZIkSZIkSZIkSZIkSZIkSZIkSZIkSZIkSZIkSZIkSZIkSZIkSZIkSZIkqdXmNB3AJGsBGwJrrvi/12o2HElSBtcClwK3N3T+tYHtgA0KnvNW4LYV5TpgUcFzz6iJBGAOsAvwWOABwP2AHUmDvyRp/N0BnAgcAfy+0DkfArwHeDwwv9A5Z3Id8EfgT8AFwKnAhUCvZBClEoAFwNNWlH2AjQqdV5LUXkuBNwKfyniOOcDhwPtp11Pvqf5BSgSOA44nJUlZ5e6MRwIvAg4G1sl8LknSaHo58IVMdb8d+EimunNZCHwbOBr4Za6T5EoAnkjKuB6VqX5J0vi4k/Qq+Iqa630AcC4wr+Z6Szod+BDw47ornltzfXsBZwM/wsFfkjSY1YG3ZKj3HYz24A/waOB/gTOpeVyt6wnARsC/A4fWWKckqTuuAjavsb5VgesZr9fPPeAY4K2kiYQhdQzWhwCfBu5VQ12SpO5ah/TJXB22pP5XCm1xE/AK4JuRSiKvABYAnwe+hoO/JClujZbW1Tb3Ar4BfIb0+qSSqk8AtiZ9prBr1RNLkjTJYtKgvaym+tYl3SmP+2vpc0mf2P912AOrPAHYmTQr0cFfklSXn1Pf4A/pU7pza6yvrR4E/Bp44LAHDpsA7AmcQb0TNSRJ+lKGOr+Yoc422hT4GWntnYEN82jkYcAppLX6JUmqy6nA46h/KdxVSXfHD6653rZaROrHMwf5jwdNAHYCfkHZzRMkSePv98BjSJ/s5bAFcBqwbab62+Z60noBf+r3Hw7yCuA+pEUIHPwlSXVZBnyZ9Ng61+APcCXwUNKs+aKb7TRkA9KYvWm//7DfE4BVSI9mSq3qdxPwN9KWia3YLlGSVJseaTvg3wHfAS4rfP6dgKev+N+NC553LdLr8y2A9Qqd8+ek1wGVJ1Z+hPSD5SpnktY4fjzuEChJGn8bAU8APkwaA3OOsR+oGuQTSJlD3QFdTxr0d6gamCRJY2IH0ph4A/WPt8tITwGGsgZwec2B3Eza7GGtYYORJGnMrQ28jbR+QZ1j76WklXsH9qGaA/g6sMkwAUiS1EGbktb4r3MMPmLQk98PuKumky4CDqvQAZIkddkLSRPi6xiL7wS2H+SkE59KRMs1wG6Vmy5JUrc9GPg79YzJX+13sh2ApTWc6C/AdqFmS5Kk7UhjanRcXgrcd7YTHV3DSa4Ddoy3WZIkkQbuOp4EzLg3wsak7Rgjld8FPLyuFkuSJCCtmFjHGL3hdJW/IVhxD3h9rc2VJEkT3kx8nH7tdBWfE6z0VIbbXVCSJA1uDmmJ38hYfdbUSu8frPAuYOf62ypJkia5P/FXATvByt0AnxQM6CjgomAdkiRpdr8HjgnWcbcx/0dUzyT6flogSZJqsy2whOrj9gkTFa0K3Bqo6Ps5WylJku7heKqP27cAqwA8LFBJDzgodyslSdLdPIPY2P2QucQm790GnBg4XpIkDe8E4I7A8TvPJW3+U9UZpNmIkiSpnDuBXwaO3yGaAJweOFaSJFX388CxO84Ftg5U4Kd/kiQ1IzIGbz0XWCdQwZ8Cx0qSpOoiY/A6qwBrByr4R+DY0uYBjwYOJO1WuDmwAXAjaZelS0gTGk8mNrGiDmsDTwT2J20FuRGwHnAtcBXwO+A44ExgeUMxTtgceCrwGGAz4D6kvv4bqV/PIMV6aVMBStKYui5w7NqQBruqnxGsHjh5KQuAt5M6apA23QZ8gpQclLY58GXS5I5BYr0KeBVpLYfSHg78jJSADBLrWcATGohTksbVAqqP37cTOLhXoHFRTyHdiVZp20Lg1YXinAu8m/SDVIn1z8BehWJdD/gmgw/8U8vJpKcEkqS40Bg+rgnA64BlxNrXA75C3icdawLfqyHOJeRPWO5LmnQSjfVq0gJUkqQYE4ApPkJ8kJpcfsDKjZPqtBrpHXmdsb4+Q5yQ5iIM+hplkHI7JgGSFGUCMMmh1DugTpSPZoj1ixniXAYcUHOca5MmHtYd6zWkeQ+SpGpMAFbYmtikxn5lvxpjfV7GOG8A7l1jrEdnjPWUGuOUpK4xAVjhq+QbqHrAedTzKmA+6bO4nLH+Rw1xAjyAeuZSzFb2rylWSeoaEwBgF/IPVD3gmTXE+poCcd4JbFpDrN8vEOs5NcQpSV1U+d/eHBPbmvIs8kzUm+rZNdRxSA119LMa8PRgHesCT6ohln4eRGxPCklSBePyBOAC8t+p9kgLBa0RiHNjyjyp6AE/CcQJ8JxCcfaAtwVjlaQu6vwTgHVI76pLWAPYLXD8npR5UgHwqODxj6wlisFEY5UkDWFcEoDSK8tFzlcy1gXEvgYoGetmBc8lSZ03LgnAJoXPFxmsRinWOiYRDsoEQJIKGpcEoPSOeMsCxxrr9CJxSpKGNC4JwDWFz3d14NhRijVybJvPJUmdNy4JwNWU/SrhqsCxf6stiv4WkXY1rCrSzjafS5I6b1wSgEXA2YXOtRA4N3D8GcDSmmLp59Tg8afVEcSAorFKkoYwLgkAwPGFznMSsDhw/I3A6TXF0k+0T35M2rWvhB8WOo8kaYVxWQhoO2AJ+ReseXINsb64QJy3AhvUEOvXCsR6Rg1xSlIXhcbwcUkAAD5H3oHqV8CcGuKcB1yYOdb31hAnwLbAXZljfUxNsUpS15gArLAp6R19jkFqGfCIGmM9MFOcPdKkyLVrjPXIjLEeV2OcktQ1JgCTPJE0ya7ugeqtGWL9rwxxLgb2qjnO1YFfZ4j1cmDDmmOVpC4xAZjiLdQ7UB2TKc55wIk1xrkcOCxTrJsBf60x1ptIWzhLkqozAZjGc4E7iA9UnyTv1xKrAJ+qIc5FxLf/7Wcz6nkS8Gdg58yxSlIXmADMYE+qT7a7CnhmwVhfDlxfMdYzgV0Lxbk6KWFZXCHO5cBXgXsVilWSxp0JwCzmkT67u5jB2nQNcDhp29/S1gM+yuCJwPmkJKWOLxOGtQPwTeDOAeJcQlo/YfcG4pSkcVZ5DJ9DbCBvYuCJ2IU0+34nYHPSd/I3k+72LwVOAH5D+Q17pppHmsi3P7AN6euGdYFrSTP8zyfNnr+0qQAnWZs08fIxpD7dFFiVtOTxNaRFj04EbmgqQEkaY5XH8K4lAJIkjZPKY/g4LQUsSZIGZAIgSVIHmQBIktRBJgCSJHWQCYAkSR1kAiBJUgeZAEiS1EEmAJIkdZAJgCRJHWQCIElSB5kASJLUQSYAkiR1kAmAJEkdZAIgSVIHmQBIktRBJgCSJHWQCYAkSR1kAiBJUgeZAEiS1EEmAJIkddAqwePPriUKSZJU1Byg13QQkiSpLF8BSJLUQSYAkiR1kAmAJEkdZAIgSVIHmQBIktRBJgCSJHWQCYAkSR1kAiBJUgeZAEiS1EEmAJIkdZAJgCRJHWQCIElSB5kASJLUQdHtgPeoJQpJklTF2VUPjG4HPCdwrCRJiqk8hvsKQJKkDjIBkCSpg0wAJEnqIBMASZI6yARAkqQOMgGQJKmDTAAkSeogEwBJkjrIBECSpA4yAZAkqYNMACRJ6iATAEmSOsgEQJKkDjIBkCSpg0wAJEnqIBMASZI6yARAkqQOMgGQJKmDTAAkSeogEwBJkjrIBECSpA4yAZAkqYNMACRJ6iATAEmSOsgEQJKkDjIBkCSpg0wAJEnqIBMASZI6yARAkqQOMgGQJKmDTAAkSeogEwBJkjrIBECSpA4yAZAkqYNMACRJ6iATAEmSOsgEQJKkDjIBkCSpg0wAJEnqIBMASZI6yARAkqQOMgGQJKmDTAAkSeogEwBJkjrIBECSpA4yAZAkqYNMACRJ6iATAEmSOsgEQJKkDjIBkCSpg0wAJEnqIBMASZI6yARAkqQOMgGQJKmD5gKLKx5b9ThJktSwucA1FY+9us5AJElSOXOB0yse+/M6A5EkSWU9FuhVKPs0EKskSVqpyvg9UQA4bsiDvpu/TZIkqY9wArAucO6AB/wWWCd/myRJUh/hBABgLeAoYNkM/+Ey4EvAmrlbI0mSBlI5AZgzTWU7Ac8Cdgc2Av4BnA18E/hjzlZIkqSh9Pr/J9ObLgGQJEmjoXIC4EqAkiR1kAmAJEkdZAIgSVIHmQBIktRBJgCSJHWQCYAkSR1kAiBJUgeZAEiS1EEmAJIkdZAJgCRJHWQCIElSB5kASJLUQSYAkiR10CpNB9ACqwIPAXYBFgBXAL8ErmsyqCHNBQ4Gnk1qy/rAIuAi4AfAl4GbG4tuOHOAPYE9gA2BG4AzgV8DSxuMC2BtUmxbkv52Lgb+D7ijyaCGtBbwYuBA4P6kNt1E2vL7W8A3aL6fB7U6sB+pHasD1wK/AH7fYEw7Ag/l7v16cYPxVPFQ4CXAXsDmwHLgcuCnwBeAPzUX2tB2ILVjG9K/iRcCpwG3NBiTWmAV4M3ANaTtFCeXxcDXgS0ai25w9wPO4Z5tmFyuBw5qKsAhPAO4lOnbcBnw/IbiuhfwKeC2aeK6GfgosGZDsQ1jf+DvzH6tXAg8oKkABzQfeDtpgJ2uDb8EHlk4pv1Jg/108fyaNAi13VrAscx+fSwBPgLMayjGQT2AlLBM14ZbSH+zCxqLrl6z/V79SietQ7pT6Nc5NwN7NxTjIO5LuusZ5IdeRnpC0EZzgE8wWDu+tOK/L2Vn0lOhfnFdRLsTxqeS/vEepI9vJD0Ra6N1gFPp34YlwEsLxfRR0l3ybPEsJyUtbTWfdGc86MBxVCNRDuYg0lO5fm04j/SUcdSZAAxhLnAKg3fQItJjvbaZQ3r8PMyPfQvpkV7bvI3h2vGBQnFtBFw5RFwXAWsUim0YG5CeAg3Tx+fSvru8OaRXWoO2YRnwpMwxvXWIeHqkR+tt9G6GHzye1Uiks3sIcBeDt+FXjP6r8NoTgPsChwCvIN01bpcv9uJewvCddHojkc5uH6r94B9rINbZbEl65TJMG5aQ7sxzO3rIuHqkx6NtczjVrpUDmwh2Fs9g+DZcQZofkMN2DHanObncRkos22QBaa7NsH17QRPBzmIOKXEdth2vaSLYGtWWAOwLnDXDf/gb4LF521HEhVTrqEc0EewsjqFaO66hXXd2H6NaO47MHNdGDJ+Y9EivjdbKHNsw5gB/ploff6+BeGfzS6q145mZ4vnPivEckSmeqp5N9QFk9wbincnjqNaGUZrUOJ2qv11vciXvYbD3WO/K3ZqMtqZ6R32mfLgzWoP0OL9qW9qSyM0FrqKdf7TPqxhXD3hu5tiG8XCqt+MO0jv3Nrgv1dvx5Uwx/aFiPJdRdh5LPz+ket+26Yni0VRvxzYNxFuXqm3uTVTw6iEPekX+NmXxeKp31LW0511RJGPvAZ8vH/K0Hkv1Niwh7z+iRwRi+2HGuIZ1JLFr5dDyIU/rPVRvw2kZ4pnL4JMqpysPyxBTFRtQ7UnXRPkL7UhmVgcWUr0d+5YPuTaV/77nApsB/zbkCf+Tdk4m66cXOHYj2nPnHL3DfDpp/YOmHRI4dhmx37OfSN2PJ3062LRViE/UastEr+i1UrflxBZSa8sXOc8k9m/BVqSnTE07gNjTqhzXyEj4MNWyhw82EWzQdsTuhnI9ShzGvRlulutM5YmlA59iPtUmHk2U32WO77BAbD3SYjtNexLx62QxaWGpJj2YWBs+mymuqnMresDVtGMuzrBfEk1XPlE86nv6LrE2tPkT3n4i7ea8igeeU6JlGQzyTfdM5SZgtfIh380riP/B9kjvy5p0ILH4P5U5vq3oPydmtvKTzPEN4ivUc600ncxUnSg6UXI9xfhCMK69M8U1qG2IXeMT5SqaXVZ+XYb/GmNyGbWVGqeK/HaVJ5ONytKyU1WduTtRnlo+5LupI2Pvkd6X5fo8ahDfnCGuQcueBWL8TSC+pcDGBWKcyZrArdPEVaU0mczMZbi1GKaWReT7KiMyp6hH8xOL30Us/sll78KxT/aiWeIapLy/fMi1irQ9dvAIeiixNn+1fMj/tBX1ZOwTpalkZm2mX1Z30HIFZSYevTEQYw94VYEYZ/LcWeIatjSZzOw9YIxN/L3Oo//SyrOV62h2YvHvZ4irSmkymTl5lrgGKW1d9XJQkbbHDh5RkXd3i2hu3feqC7o08Y/jbA4dIsbpSqnFdjZj5WTDKuUXheKczkmzxFWlNPXlz+eGiHG68uTM8X06GN8TMsc3k92HiHGQ8g+aSWY2IvY1xrnlQ65d5HeLHTyiPkSs3bkWFumnzoy9R3PJTHRw2rVgrD8PxLmc9NSmtA2J/aM4XTmtZANWWJXhlzCeXG4gTTbNaa9AfD2aW1P/40PEOGjZr2gLktcF4u2RlnIedZH2xw4eUbsSa/d3y4ccngk9U3lGyUaQBqfId8cXFY73lYFYe8CbCscLaWnTuq+TZcB9SjYCeEow5s8ViHEOsYnFTczFmQv8LRDzTOVLJRuxwq8D8S4nLQ436iK/WezgERa5m76DNPO0pOjkxZnKt0s2gviAenjheKN302cWjhdi/yjOVl5XshHA14Lx7l0ozujfZuk9F/YNxjtTuZH8T1wm25bYnKgmX9HVKfKbxQ4eYZGVxXqU3Zs+V8beo/xyr6cH471vwVgn/DgQbw/YvmCs21HvRNHJ5ZcF27EGsa8YSn6aFp1Y/LVCcU44OhjvbOWAgu2IfsUwqivaThXpg9jBIyy6KNCJBWOtusnFoOU5hdqxJbHBqeQANFn0M6OSTy3eG4x1tlLykelzgrGWXqM+MrH4NsrNxVmd9Al3rmvk2ELtgNhT3CW0b1fGqiK/V+zgEfdbYhfQhoXiPCoQ5yDl+ELteHswzqa27VwPuHPAGKcrJbdN/WMgzkHKWwq1I7JBTQ94UKE4J0QnFpdacvmZwTj7lVtI2wvn9sBgnCVv4HKL9EPs4BH3VmLtf1mBGHNn7D3S0sIl1q4/PxDjUmCTAjHO5PgZ4hq0lPjW+CHBGAcpZxdox72ILXf9hwIxThWdWFxq6+XodTxIOahAOz4ajPF5BWIsJdIPsYNH3BbEHkmfUiDGgwPxDVNekLkdOwXj+3Hm+PqJPpIusdrYJ4IxDlpyz2l4eTC+92SObyaRR9J3kn9i8b2IPckatHwjczvmAJcH4ruNfKtDNiHyW8UOHgORpXWXkRaLyem4QHzDlB9lbscHg/G9IHN8/axJWjehavyXZI5vHnBNIL5hSu45DacF49shc3wziU4sPixzfP8ajG/QkntOw6OD8X09Y2xNiPRF7OAx8FpiffDajLGVyth75J/TEJkk1cRnl9OJ7l+we8bYnhCMbZiSc05DdPXFJj67nBCdWHxS5viiX+AMU3LOafhMMLam93OpW6QvYgePgU1I75er9sH/ZYwt+ih02JJrTsPDg3F9J1Ncw3o6sXbknJl+bDC2YUuuOQ1vDsb1hkxxDSo6sTjXzPToFzjDllxzGlYBrg3EdSPN7+hat8jvFDt4TJxC9T7I+WnULwJxVSm55jR8MhjXv2SKa1jRCZl/Jc8mRmtQfVfPquWIDO2A2ADaxGqFU0UnFr88U1zvCMY1bMn11O5Jwbi+kCGmpkX6I3bwmHgZsX7IsZ70lsQehVYpOeY0RN9NL6TMZ0WDOoZYH+fYxviQYExVyh8ztGPHYEw/zRDTsKITi3+WKa7fBWKqWg7N0I7/Ccb0mAwxNS3SH7GDx0T0s6PfZogp+s181fLqmtsR3TP96JrjiYregRyZIaYTgjFVLbvV3I4jgvG8uOZ4qopOLK77KcZugXgi5YSa27E66YagajxXk25Ixk3kN4odPEZOJNYXO9UczwXBeKqW02tux9HBeB5fczxR0R3qrqHef4TuTSx5jZS6t2X+UyCWu1b0RRtEJxbXvefCvwfjqVoWU+9v8qxgPP9ZYyxtEumT2MFj5PnE+qLOb4+jq1xFynLS64c6rA7cFIjlWprZY7yfzxPr48fVGEt0c6VIuYz65jREFzH6fk1x1CE6sbjOJa/nAlcGYomWOp/KRD+J3qPGWNok0iexg8fIOqSJK1X74sIaY/lYII4esUeQPeCNNbUjOms+x+PyOjyWWLvqnIgU/a1/GTz+oTW1I7qjXqmldAcVnVi8VU1xPCYQx8T1EZnT8JOa2hFdjvvimuJoo8jvGzt4zHyXWH/sWkMMc0mzxavGcAfpe+TFgTp+U0M7IH2+F+nPh9cUR93mknabq9quurZN3YrYP85nkXZvi/xGdTxWje52uYhym+kMKjqx+G01xfHlYBwHEksSl1LPp40vCbbjfTXE0FaRfokdPGaiG2V8qIYYohn7t1fU87/BerYLtmMd4PbA+f9Cnk/m6hL9tPFJNcQQ3Q719cTnNFxJfNvd6BOVkjvQDSo6sficGmKIvoKb+Gb+dYE6etSz7W7kiUoP2LmGGNoq0i+xg8dMdA/yS4kPWl8KnL8HPG1FPS8M1vP2YDteEDz/B4Pnz+2RxNp3TA0xRNaenzzbPHrNPSrYji8Gz79/8Py5ND2x+F+C5//cino2JTan4bRgO6LnL7GBVZMiv3Hs4DH0VWJ9Enknuhr1ZOwQf2d2bqAdkDbvifTj/YPnzy26IUl029TdA+fucffNlfYL1vWpQDvmAzcEzn0d6SlGGzU9sfh7wfM/elJdpwXqiX7a+IZgO94UOPcoiPRN7OAx9FRifRJ5JxqdNPf5KfX9IFhf1TuQjUjLmlY97/kVz1vavxHr36cHzv3x4LmfP6muecDfA3VFPm18WrAdn6543hLWJvYaLLKtcXQfkSu4+6udVwTq6hH7tPHMwHmXAZsHzj0KIr9L7OAxFL0juYrq70SjkxD3mlLfc4P1Vb0DeU3wvNHXD6U8mFg7v1nxvNFJc9Mt0xrdYOWxFdsS3WAp+voht6YmFr80eN6pazxsSCypr/pp43bEJrqeWvG8oyTyO8cOHlPRmbNTB+JBrEvsbmFqxg7N3YFEZg3n3Fshh8jiNVX3Jd83cM4e02+HunewzqlPnwYR3WL5Cto9URSam1h8WvC8D5imzpMD9VX9u45usZxrg7M2ifRP7OAxFV2+tspjyehnLjOtyhb9FG/Yd/FbEcvYzxjyfE2LLl/7nArnPDp4zidPU2f0qUKVd/GHBtvx0SHP14QmJhZvQWwfkfNmqDf6b9RbhmwHpPVVqp5vMbB+hXOOmshvEjt4TEXfif6D4VewOzVwvh7TZ+wABwfr/cCQ7Tg8eL5XDXm+pkU3sDl+yPNFdyS8gZnXIPhEsC1PHLItJwXP98Ahz9eU0hOL3xY830wDdfTTxmFn40dfsf1gyPONqkgfxQ4eY58m1jfDrGG/GbHPXGabNBe9A7lkiHZAbNexJcDGQ56vDc6nepuHXcM++kj5M7PU/Yhg3UcP0Y4NiC1WddEQ52pa6YnFkX1ElpGeIMwk+mnj9kO0I7qHwSFDnGuURfoodvAY24tY33x5iHNF9xDvtx3x14L1P3jAduwaPM9JA56nbd5JrN0vGuJcxwfPNdt2xNFPG29i5Weo/UT3MDh8wPO0QcmJxTsHztOj/6S56KeNg/5uc0iLgVU9zyKqza8ZRZHfI3bwGIu+Ex3mH8PIHeQgk2sODNTfI33uNoiPBM+TY//wErYlNu/hx/esclr3JvZp11/o/z45ug/FUwZsy+nB89x3wPO0xVHE2jvoxOKPBs/zkj71RycWXzBgO/YOtuOrA55nHET6KXbwmIt+a/3UAc6RO2OH+AJDg8y2jt49Tvdp2iiJfKu8lMFeffxr4Bw9BltdMbrA0FcGOMeWxBKmXw1wjrZ5ArF+HWRicfRvcNDXUd8PtmWXAc7xueA5ppvoOq4i/RQ7eMw9jFj/DJKFRu+a+2XsE/47eJ5+G/PsGay/6jfxbfEmYu1/5QDniN41D/IPL6Sd06qe41b6r3AYnaT22gHb0SarkLa3rtrmQSYW7x2ov0das2AQzw6e54g+9Uf3p5htous4ivwWsYM74M9U759+u5SVytghrZce+a3/q0/9/y9Y/9PuWeVI2YzYp1c/71N/9K55mM1lPhg4T4+0Bv1szgvUvRTYZIi2tEl0saV+E4u/EKx/0JUp1yC2fsMf+9T/5GA7PjtgO8ZFpK9iB3fAh4n10TNnqTs60XDQjB3iWfXVzLzc6yrEPptcSPq8bdT9gup9sJw0yM/kHYG6ewy3HvoDguf61ix17xSsu6795ZuwN7G2zzaxeD6xv++bGW5viugKjrvNUnf0s8kqC7GNskhfxQ7ugAcS66PZBunPB+sedi356B3CTH9Y0acLXxqyHW31KmL98MZZ6o58XlllM5bIToOzrXAYfbrwwiHb0SY5JxYfFKi3R9qRcRjRfUtmWrgs+tlyZCn2URX5HWIHd0RkNaqZJrdFM/aFDL+b3OMC5+sx80SkY4P1Pm7IdrRVdL3038xQ726BOnvATyu0JboE60zfYEdeqd1B2uVylOWaWBxd8XOfIdsRXZDqMqafWHxIsB0fG7Id4yDSX7GDO+K9xPrp+fesMvxpXpW75rmkR/lVzzndRKToPwSRneTa6CfEftfpPm+LLohS5a75fsFzHjdNnQ8P1jnMK6+2yjGxeB1in+ZdRbW/wf8JtmW6FQ6jO5g+qEI7Rl2kv2IHd0T0H8MTp6nzW8E6H1OxLdHJevtOqS+6Ml2/yYWj5sXE+uOdU+qbC1wZqC9y13xu4Lx3kZaOneyTwb55RsV2tE3dE4tfFKivR/W75uhkvakrHEaXGo5snzzKIr9B7OAOOYfqlMSc5wAAHd1JREFU/TR1U4qmMnaARwfO2+Oe7wqj3wQPu855261HbLGeqcs6PzZQV4/ZJ+T18/bguQ+bVNc80tOeqnVVeeXVVnVPLD4lWF/VPRVWJbbC4ZXc/X39y4PtqLp9+aiL9Fns4A6Jfrs8eVvKFwbrirznmkNa2KfquW9k5Te265DuMKvWdQnt3861iuhjzMnf60e3pj4w0I5tiH16OHlp5/2C7Tg60I62qXNicXQfkQuDbYlen4+aVNdpwbp2CLZlVEX6LHZwh0S/wz5lUl0/DdTTI74LWnQi0pNW1BN93P3+YDva6rnE+mVioZTVia3geCODL0c9k98Ezr+ENDES4kvhDrO51iioa2LxmwP19EhPeSKiW6d/akU90UTmzGA7Rlmk/2MHd8wvqd5Xy0gX+abELvQ6dkGLTkQ6ZkU90URm0JXpRs2axBZKmdiB8V8CdfRIn5lGvTEYw0uJJzJVttduu/cS69eJicWReRqD7CPSzzxiKxxOTAKOJjJvCLZjlEX6LXZwx7yOWH+9lviSse+oqS2XBGJYSHo8HElkhlmZbhRFJ3k+GPhesI46FkTZnNgKhz8lnsgcWUM72qaOicXRRZX6rT45qM8G43gs8NvA8VXWuRgnkb6PHdwxmxL7x/D/iF3oy4GtampLdNew6MSjflsYj7rooPcFYpMJr6C+BVEiexAsJf5u95E1taNtohOLoxvmvLymduwTjCP6b8nk16tdFOm72MEd9DOq91dkDkGPtNRsXR4UjCVS+i17Ow4WkJ6UNHWtfLTGtrw6GEukXM54ThSFlARH/46qHjvMPiL9RNcXiZZBN0QbV5G+ix3cQdFPVSKlrox9wkUNtaOuR49tF10hMVIeUGM7NiH2uidSPlRjO9omOrE4UqZbqCkiusZD1VJnIjOqIv0XO7iD7k1ssYrIhT55LYE6vL+BdvRI+9p3wQE007/nZWhL9DFt1XL/DG1pk8jE4kg5uOZ2PLKhdny/5naMokj/xQ7uqJMof6HXnbED7NhAOxYDG2RoSxtFd2CsWt6SoS0va6AdUxdFGkfRicVVSo5FlaJbm1cts+222hWR/osd3FGHUf5CrztjnxDZZa5KOSFTO9oqugPjsGUZsEWGdmxASt5KtiX6jfooaOL1ylGZ2hLds2LYMt2yyF0U6cPYwR0VXcp32JJzGdR3FWxHj7RITpdEd2ActpyasS3/W7Ady0mfmnZBZGJxlZJr9809Crfj2EztGDWRPowd3GHRb7SHKUdnbMd2Bdsx2z7x42ouae+GUn2cc0Z0dAnrYcoZGdvRNiUnFl9N3t03Ly7Ylv0ztmOURPowdnCHPYtyF/rUHfjqFlmbYJjytcztaKsjKdO/uWdERzc6Gqa8KmM72qbkxOL/yNyWDxVqxz9Ic2wU68fYwR22BnAr+S/03Bk7xL9HHrQ8JXM72mpPyvTv5E1icoludDRIWQJsXKAtbVJqYvGDMrdj10Lt+HTmdoySSD/GDu64r5H/Qp+6Z3YOJb5HrmNjmlFVaob00wu0JbrR0SDlRwXa0TaHkb9f/1CoLZGNjgYtk3cR7LpIP8YO7rgDyX+hP7hQW36VuR11bEwzyj5G3v7NOVF0srXIPwH2+XRPiYnFhxdqy3szt+MKxnd1yCoifRk7uOPmAzeQ70IvlbEDvD5jO3qk9cK7bHfy9u8XyzWF72Rsx+Stbrsm58Ti5cC2hdoR3eioX6lzmetxEOnL2MEK73M+WymVsUN8o6PZylXkn8cwCv5Evmtln3LN4OBMbeiRdlHsqpwTi0t/VXFejbFPLQ8s2I5REOnL2MHiCeS5yEtm7BN+XlPsU0vumcejItfSy6UTrJwTYA8q2I62ydmvryjYDkjbludox0UlGzEiIv0ZO1isAlxL/Rf6/5VsxAqvDMQ7W9m9ZCNaLNfSyx8r2YgVckyAXQisXrIRLZSjX5tYfntb8kwsLvlUdFRE+jN2sAD4DPVf6K8s2oJkQ9InWHW2489FW9B+F1D/tdLEI9EcE2C/XLQF7ZSjX39QtAUrnTlEjIOW+xZtwWiI9GfsYAGwN/Ve5EuAjYq2YKWTB4xx0PK+otG33+HU278Xlg3/n+aTPu2ssy25F7waBTkmFj+raAtWetMQMQ5SflU2/JER6dPYwQLScq9/o74L/Ydlw7+bl8wSV5Vyv7Lht17dj0ab3DDnv2eIqUq5BieKTqhzYnGTG+ZsQb3X+mvLhj8yQmN46GD908ep70J/duHYJ7sX9S1Lelbh2EdFXY9GlwNblw39bvafJqaq5b8Kx95mdU4sPqZw7FOdQT3tWEraOVH3FBrDQwfrnx5GPRd6G7a4PJF62vLG0oGPiLoejf6idOBTrEJak72Otjy0cOxtVufE4scXjn2q11BPO35SOvAREhrDQwfrbi4hfqE3nbFDWokt2o5lwOalAx8RW1DPmgsvLx34NL5AvB2X4MpuU32WeL9eS0ommrQJ6e492pYXlg58hJgAtMRHiF/oTWfsUM+ypD8rHvVoOZ1Y/94FrF886nt6HPFr/v3Fo26/fYj3a1teq/yMWDvuIO1EqemZALTEbsT6sw0Z+4TvE2vLS8uHPFJeTax/jysf8rTmknasjLRll+JRt18dE4v3KB719F5OrB3fKR/ySDEBaJHITlifaCDemTyb6u1YTDvuTtssuubCweVDntH/o3o7zm0g3lHxX1Tv1zatv7EBsWv9X8qHPFJMAFrkfVTvz4eUD3dGa5AmJFZpx/ENxDuKqq65UGrnv0E9murX/FsbiHdUPJzq/fqeBuKdzf8yHtd6G5kAtMh2VJvg9fsmgu3jWKpdFyX2pR8Hh1Ktf9u2tfJcqk2AXYwTRWczB/gjw/frUmCbBuKdzXOpdq1/oYlgR4wJQMt8neH78pBGIp3drgz/6O73uKDLoFZj+IHzTtq5HOpLGf6aL7mF8ag6jOH7tQ1fEk01n/RaYthrfYcmgh0xJgAtszFwBYP34zebCXMg72TwdizCjX+GtSfpH7pB+7itq6HNBU5g8HZcTFp0SrObw3ATci+j/MY/g3okaUb/oG15fTNhjhwTgBbansH2f/8G7d8B7Qj6L+l5PWX3pB8nTwRuZvb+XUb735evSZr/0e+avwDYqqEYR9EC4Nv079eLKL+F+LCewGDXepNLXI8aE4CWWgN4N2m/9ql9dxbwjOZCG9qewI+55/yGhcCnSU89VN19SO/2p+4Hv5R0Z92WT7r6mQM8Dzife17zV5L+YW97wttWzwJ+yz379SrSJlOjMlnuPqR3+1MnGS8lrULapsnQo6DyGD6H2EDu6l2DmUPaFGdr0uPei0nfTo+i9YAHAGuT1i24gDRPQPVYlTT3YkPSP5AXALc0GlF1m5Pe4c4HLidd9944xG1G6tfVgb+w8knjqJlP2sp6Q1Liez6je603qfJvbwIgSdLoqjyGz60zCkmSNBpMACRJ6iATAEmSOsgEQJKkDmrLznMabZsBBwH7ATuzciGSm0kzv38G/IC0rKkkqSVcB0BVbQYcRdqbfpDr5SzSNrjuFChJ9XAhIBV3CHAT1a6bu4DvAk8lffcuSarGBEBFvZ3+SwMPWq4FPgHsVrQFkjQeTABUzEuoZ+CfrlwIvA3YpFhrJGm0mQCoiN0ZfnvgKmUJ8EPSXgmrFWmZJI0mEwBlNwc4h/yD/9RyA2mzoYflb6IkjRwTAGV3IOUH/6nlj8D7SJsqSZJMAFTAiTSfAEyUpaStiZ/D6GyBKkk5mAAoqwXA7TQ/8E9Xbga+CDwKd6eU1D0mAMpqD5of6AcpfwU+CmyXpxskqXVMAJTVM2l+cB+mLANOBQ4D1srQH5LUFiYAyupQmh/Uq5Y7gG8BTwHm1d0xktQwEwBl9QyaH8jrKFcAHwC2r7d7JKkxJgDKaneaH7zrLmcDr8ONiSSNNhMAZdXmrwCi5Q7ga8AT8RWBpNFjAqDsTiB2rdwSPL5EuQr4N2DnmvpMknIzAVB20YmAXwF2IX2md22wrhJlYmOijeroPEnKxARA2a1J7C7+dmDdFXXNJ83K/xawOFBniXIXaWOig4FVY10oSbUzAVARRxG7Xl40TZ33Al4GnBGsu0S5Efg8adVBSWoDEwAVsTex6+XnferfmfSK4JrgeUqUiVcEmwzaeZKUgQmAipgDXEr162U5gy3TOw/YFzgWuC1wvhJlKXAy8HxgjQHaJkl1MgFQMUcQu2beN+T51mPlK4LlwXPnLjex8hWBGxNJKsEEQMVsQ2wgvpzqg+OOpATi8sD5S5U/rIh164ptlaRBmACoqF8Qu272Dp5/Luku+/PAomAsucsy0tOLl5G+pJCkOpkAqKgXE7tujqoxlnVI799Ppv2vCBaS5jXsi68IJNXDBEBFrUNsct6t5Nmmd0vSzPxLArGVKleQvngYZFKkJM3EBEDFfYXYtXNoxtgmvyJo+xLEk18RrJ2jMySNNRMAFbcfsWvnp4XiXEBaxe+HpE/2mh7wZyt3kFZHfApuTCRpMCYAKm4u8Fdid75bFo55c9IrgosDcZcqV5JeEWyfpSckjQsTADXiw8Sun3eWD/mfdgc+CVw/TVxtK2cDrwPWz9ITkkaZCYAasQOxmfcX0/xs+NVY+YpgCc0P9rOVO1n5imCVHJ0haeSYAKgxvyZ2DT2ifMgz2ox0p30uzQ/2/crVpCcYu2XpCUmjwgRAjXkFsWvoc+VDHsgupHfw/6D5wb5fmdiYaMMsPSGpzUwA1Jh1gdupfg3dTJqp31bzSY/cvwUspvnBfrZyF+lVxsHAqjk6Q1LrmACoUd8idh09q3zIldyb9L3+2TQ/2PcrN7ByYyJJ48sEQI06gNh1dFL5kMMmXhH8neYH+35l4hXBxll6QlKTTADUqFVIk9KqXkdLgU2LR12PeaS1/Y8l9iqkRFlK2jPh+cAaOTpDUnEmAGrcfxC7lt5cPuTarUd6RXAGzQ/2/cpN+IpAGgcmAGrcLsSupd+XDzmrHYH3AZfT/GDfr/xhRaxb198NkjIzAVAr/JbY9bR7+ZCzm8vKVwSLaH6wn61M3phozRydIal2JgBqhdcSu56OLB9yUeuS3r+fTGwFxRJlISlp2ZfmV2uUNDMTALXC+qRv0ateT9eTlubtgi1JM/MvpfnBvl+5gvTFw7ZZekJShAmAWuM4YtfUQeVDbtRc0kS8zwO30PxgP1uZ/Ipg7RydIWloJgBqjYOIXVPHlQ+5NRawcmOipTQ/4M9WbmflxkTzcnSGpIGYAKg1ViW2fv4SXLAGYHPSK4KLaX6w71euJL0i2D5LT0iajQmAWuVIYtfV68qH3Gq7k3b+u57mB/t+5WzS77d+lp6QNJUJgFpld2LX1TnlQx4Jq7PyFcESmh/sZyt3sPIVwSo5OkMSYAKgFjqf2LW1a/mQR8pmpDvt82h+sO9XriI9wXhglp6Qus0EQK3zZmLX1n+UD3lkTWxMFJl7UapMbEy0YZaekLrHBECtswmxx9TX4KPjYa0GPIPReUXwJWCrLD0hdYcJgFrpRGLX15PLhzw2NgbeSPxVTO5yG/CKTH0gdYEJgFrpmcSur2+VD3ksPQj4BO1+RfBJXHJYqsIEQK20OnAj1a+vO4F7F496fK0KPBX4HrElm3OV9+ZrujS2TADUWp8ldo35eDiP9YHXAGfR/MA/UZYBj87ZaGkMmQCotR5O7Br7dfmQO2cX4GPA1TSfBJyLrwKkYZgAqNX+SOw627F8yJ00D9gf+Dppln5TScC+uRsqjRETALXaO4ldZx8uH3LnrQs8HzgZWE7ZBOCLBdonjQsTALXaFqT3u1Wvsytxx7km7QB8ELiCMgnAZWWaJY0FEwC13k+IXWuPLx+yppgLPA44FlhEvgRgGekLEkn9mQCo9Z5H7Fr7SvmQNYsFpI2Jcr0icKlgaTAmAGq9NYCFVL/WbgPWKR61BrEN6Rv+S6gvAXA7YWkwJgAaCV8mdr29uHzIGsKOxJK8iXI7fgooDcoEQCNhL2LX2y/Kh6wB7UDa9reOu//TC8cujTITAI2EOcQeEy8Htisetfqpc/DvAe8oG7400kwANDLeS+yaO6J8yJrF/ah3BcE7gfsUbYE02kwANDK2ITZr/HJ8P9wWdQ/+PeDIoi2QRp8JgEbKacSuu31KB6x7yDH4XwasXbIR0hgwAdBIeSGx6+7o8iFrkhyD/03A/Us2QhoTJgAaKWsBt1L9urt1RR0qr+4Jfz3gZtKukZKGZwKgkfM/xK69Q8uH3HkO/lL7mABo5OxL7Nr7afmQO83BX2onEwCNnLnEdpdbBmxZPOpucvCX2ssEQCPpQ8Suv8PLh9w5Dv5Su5kAaCRtT2xNgItxTYCcHPyl9jMB0Mj6FbFr8BHlQ+4EB39pNJgAaGT9K7Fr8HPlQx57Dv7S6DAB0Mhal7T9a2RgWVA86vHl4C+NFhMAjbRvErsOn1U+5LHk4C+NHhMAjbQnEbsOTyof8thx8JdGkwmARtoqxNaWXwpsVjzq8ZFjbX8Hf6mM0Bh+Z+Dg1Qo0Tt3w78Qu5LeUD3ks5LjzX4iDv1TCAqr/nd4OcF2ggg3yt08dsQuxQefC8iGPPAd/abRtRPW/1WsBLg1UsFP+9qlDziY2+OxRPuSR5WN/afRFbpwumUvaWrWqHQLHSlMdEzz+sFqiGH/3A04FNq2xzoXAE4Ff11inpNlFxuBbJjZkqWrnwLHSVF8HFgeOPwSYX1Ms48rBXxofkTH4irnAnwIVPDpwrDTV9cCJgePXBw6oKZZxtAPwM+od/G/BwV9qyl6BY/8I8CKqv0O4FVg1EIA01YHE3kMfXz7kkeA7f2m8rAbcRvW/3xdA2kwl8o/AUzI3Ut2yKvAPql+Pi0kzY7VSjsHf2f5Ss55G7G/4YZDemS4KVPKt3K1U53yS2IX9uvIht9b6wCU4+Evj5ntU/xtexKT5Uj8JVLQY2DJnK9U5DyI2QJ1TPuTW+gYO/tK42RK4i+p/x3dbPv3tgYp6wKdytVKddT6xa3LX8iG3zg7Achz8pXHzWWJ/y3dbOfWBwcruxDUBVK83Ersm/7N8yK3zJhz8pXGzI7G7/x5w/6mVXhCs8CcZGqru2gRYQvXr8e+kTYa67Is4+Evj5qfE/p7Pna7SNwcr7QGvrLmh6rYTiF2PTy4fcqt8lXoSgJPxc1+pDV5D/O/5DdNVvBmxO64ecAfw4Fqbqy47mNj1+O3yIbdKdIfFyeV7mARITdqD2O69PdIYv8lMJ/hKsPIeaYeh7etqsTptPml1wKrX4l2kz+C66gDqSwB6pCcybgEulbctcA3xv+H/nu0kuwDLajjJxcAW8TZLfIbYtdjl11Lzie32OV3xSYBU1pbAn4n/7S4jTSCc1XdrOFEP+CtuFqS4hxG7Dn9TPuRWeSr1fgpoEiCVc3/gSur5ux1o0b77kxb3qeOEC4FnVm66lPyB2HW4U/mQW+Vw6k0ATAKk/J5N2myrjr/Xuxji38E6Jw/1gC/T7XexiokuVPWR8iG3zhGYBEijYAPgaOr9Wx3q38C1qO+xw0S5nvQJw4JhApGAzYGlVL/2/gbMKx51+7wfkwCprRaQ9jG5gXr/Rq8A1hw2mKdQ/7vDHmkm4+G4f4CG82Ni193jy4fcSiYBUrtsCbyLtHhZ3X+by4H9qwb28QwBTZRlwC+AdwN7AmtXDVKd8Bxi19tXy4fcWiYBUnPWIY157wZOp54v72YqH5stkDl9Ap1PGqQfNlz7KruKtG/5QtLkh2WFzqv2W0BsZb87SAtg3FJPOCPv/aR/gOp0FvCXmuvUcO4ALgNOBM5u4PyrAPsA+wH3YdKWsx02jzTor0vqk80KnfeXpN9iSaSSrUgDc64MxWIpVV6CJsvxJMDSnnIqA3z3XaPHARdlaIdl+PI3alyLZ1fgphY0ymKJlNPRVCYB411uBh5Nfi8mNlHXUl+5kWl2+4vai/R4qenGWSxVy3JgOzSVScB4l+tIX9LksjfxfWQs9ZTbgUfN/nOtNMynUVcAvwYOwvXANZrmkO6ITms4jrY5lfRvwd5NB6Is1iCtw3Jchrrnrqi31HttzewW4EDg54Me0G8S4HR2B04CNqpwrNS0v5A21ug1HEc/W5MmDN1BWs9/YYFz5pgYqHZYDGxI/ZNg9wTOqLlODe9a4EnAOSVOdl+c7GEZ3bIP7bQAeAv33MBnCXAKaZJVbr4OGN9yAPV7Vwva1fXye9JNTVFrAscEA7dYmihH0z7bAr+jf+xHkj61yskkYDzLy6jfZ1vQri6Xo0iveBrzQurbsMBiKVFupcLSmBndj7T+xaDxfxuTAMvw5fnUL+dicZaZy0Ly/J6V3Af4Js13isUyaGnLH8+wg/9EMQmwDFtyLOj2iha0q2vl67R00uV+DPYY02JpupxC86oO/hPFJMAyaLmaNGO/blvg9/+lygWUmQcUMoe0kdBvaL7DLJaZynJgG5qzA/WssPkd8q/Bn2MrYUvZ8up7/Kr1OboF7Rvnch7piWWOBC6r/UibsNxO851osUwt76IZ0Tv/qcUnAZbZysnkvT7W555frlhi5TbS2LnvEL9Da61Dmiz4A9JCLE13rsXSAy6m2loYEXUP/hPFJMAyXfkRaROa3LYlfY7WdHtHudwMHA+8gDHeHXceaTLKW4GvkXasupXmO9/SzfJIysk1+E8UkwDLRLmQNJCUfGy8BvBO4Mqa2jDO5RbS2PdV0lj4UIZbmbcWpe9+ZrMZKVNda8X/rkMDHaKR80jg9YHjvwC8vKZYZnM/0pK7m2Y+z3eAQ0gTs3LJsWLg34C3Edy6VNwAXL6iNGUOaRfCrRjjO9khLCMN+AuBRSv+9+pGI5LGxLrE5pjcTFqBL6e6JvwNWkZ1YuB/Z45ZkjRmvk5s4Hl2xthyP/afqYzq64DXZI5ZkjRG9ic26PwoU1yl7/zH4UnAHcCWmWOWJI2JecQmHi2j/v3Smx78RzkJ+FLmeCVJY+RjxAadt9YYS1OP/Wcqo/Y6YAlwr8zxSpLGxM7EBp0La4qjLXf+U8uoPQk4JHOskqQxchaxQechwfO37c5/ahmlJwG+BpAkDezVxAadTwXOnWPwv6vm+kYpCfhx5hglSWNkfWKD5vXA/ArnzTH4LwQeDnyk5npLJQH/Fozx/MzxSZLGzPeIDTxPH/J8Od75Twz+Ez5Qc/098s4JWBf4VTC+32SKTZI0pg4kNvAcP8S5Sgz+E0YlCahj8O8Bx9UclyRpzK0KXEv1gWcxsNEA58n52H8mbX8dUNfg3yO9QpAkaSifIDb49NtcqOSd/1RtfRJQ5+DfA/YKxiNJ6qDdiA0+585Sd447/5sZbPCf0LYnAXUP/n8PxCJJ6rjziA1CD5ymzibv/Kdqy5OAugf/HvDaIWOQJOmf3khsEPr4lPracOc/VdNPAnIM/pcCqw3dE5IkrbARaUJf1YHoWlbeDbfpzn+qpp4ErEP9g//twB6Ve0KSpBV+SGxAejLtvPOfqvSTgBx3/suAZ4d7QpIk4BnEBqXTaf/gP6FUEpDjzn8Z8KLaekKS1HnzScv71j0wVi11PfafSe7XATkG/+XAv9beE5Kkzvs0zQ/8PfLd+U+VKwlYHwd/SdIIeSjdGfwn5HgdsLDm+nzsL0nK7iK6M/hPyPEkoK7inb8kqYi3063Bf0IbkwAHf0lSMfcBltKtwX9Cm5IAB39JUnE/pnuD/4Q2JAEO/pKkRjyHbg7+E5pMAhz8JUmNWQDcRDcH/wlNJAEO/pKkxn2R7g7+E0omAQ7+kqRW2INuD/4TcqwTMLX4nb8kqVV+QrcH/wk5kwAHf0lS6+xI2na2y4P/hBxJgIO/JKm1nkt6P93lwX9CnUmAg78kqfVeCiyh2kD3d9J8gnFRx8TAJcALSwcuSVIVewOXMtxAdzKwRRPBZvY84A6qDf7XAfsUj1iSpIDVgdcw+4ZBy4BTgAMairGUXYGTGHzgXwocw3gmRNLYm9N0AFKLbE96tL8FsB7pzvYy4FfAPxqMq7Q9SfMkDgC2nOb/fxFwAnAscGHBuCTVyARA0mw2BjYC1iclQdeQVlSUJEmSJEmSJEmSJEmSJEmSJEmSJEmSJEmSJEmSJEmSJEmSJEmSJEmSJEmSJEmSJEmSJEmSJEmSJEmSJEmSJEmSJEmSJEmSJEmSJEmSJEmSJEmSJEmSJEmSJEmSJEmSJEmSJEmSJEmSJEmSJEmSJEmSJEmSJEmSJEmSJElSTv8fcqSAZo5UtNkAAAAASUVORK5CYII=;" parent="1" vertex="1">
          <mxGeometry x="120" y="510" width="90" height="90" as="geometry" />
        </mxCell>
        <mxCell id="ILMhwKr-gRY-XF_f-1hN-3" value="" style="shape=image;verticalLabelPosition=bottom;labelBackgroundColor=default;verticalAlign=top;aspect=fixed;imageAspect=0;image=data:image/png,iVBORw0KGgoAAAANSUhEUgAAAgAAAAIACAYAAAD0eNT6AAAACXBIWXMAAA7SAAAO0gFcPFpKAAAAGXRFWHRTb2Z0d2FyZQB3d3cuaW5rc2NhcGUub3Jnm+48GgAAIABJREFUeJzt3Xe4HlW5sPE7PSShGToIoSgCgqKI0rGBgCIodgX1qKiIYDtgx+NnPxY8FsQKwrEr5SBNBKRKU1DpVQ0QQkvv2d8fa0dDspP9vmvWzJpy/65rXVzGvWaet808sypIkiRJkiRJkiRJkiRJkiRJkiRJkiRJkqS6GJE7AElSa40GpgBbA9sMlq2BycAawNrARGA8sBSYA8wFZgEzgYeBO4A7B/97BzCtyhfQZiYAkqRUJgHPBPYA9hws6yQ+x0PANcDlwBXAH4FFic8hSZKGsTHwHuBSYDEwUHGZAfwSOIzQqiBJkkqyFvBuwk1/CdXf9FdVZgGnAS8jdD9IkqQEtgI+DzxK/pv9cOUe4DjSd0FIktQZzwXOol5P+72Wx4EvApsmf1ckSWqpLYBTCSP0c9/Ii5a5hNaLtZK+Q5Iktchk4ERgAflv3KnLVOAtwMhk75YkSS3wSsJc+9w36rLLdcCOid4zSZIaa13gO+S/MVdZFgInAKOKv32SJDXPQXTjqX9V5RLCioWSJHXCCOBjNHN0f+ryOHBAsbdTkqT6m0RYQS/3jbdOZTFh7QBJklppc+Cv5L/h1rV8BxgT/e42hJsBSVK3bAP8jjDHvyqzgJuBW4HbgNsJqwnOHCxzCTfciYNlLcLCPdsCTx3879OodnnfC4BDgHkVnlOSpFLsANxP+U/Q84DzgeOB55Hmxj0JOBD4EnA91SxOdAFuMCRJaridgemUd7NcCvwBeDvVrL+/FfBJ4M4SX5NJgCSp0bYEHqScG+Rc4OuEG3IOI4B9gHMor1XgAmBcVS9IkqQUJhP63lPfFGcAnwU2qO6lDGtnwsyGMqY1nlrh65AkqZDxwGWkvxmeDWxW4evo17OAP5L+dTtFUJLUCKeR9gb4F2DvSl9BvFHA0YQFflK9/iXAwVW+CEmS+vUfpL35/w/N7AffHLiSdO/DLGD7Sl+BJEk92h6YQ5ob3gzgNdWGn9xowqY/qcYG3ACMrfIFSJI0nDWAm0hzo7udfKP7y/AKwqyFFO/N/6s4dkmSVuu/SXODuwZYv+LYq7AX8BjF359FhEWOJEnKbkfCjanoze18wsp7bbUTaVZEvJ0w00KSpGxGABdT/KZ2FWE9/rbbHniE4u/Xh6sOXJKk5R1O8ZvZTcC6VQee0XOB2RR7z2YCG1cduCRJABOAByh2I7sX2KjiuOvgZcBiir1336k8akmSgPdR7Aa2gPA03FWfoNj7t5gw/kKSpMqMB6ZS7Ab23sqjrpeRhA1/iryHP6s8aklSp72XYjeu31Qfci1tRLEdExcBU6oOWpLUTWOAfxJ/03ocB7At79UUS6a+Un3IkqQuegXFblhHVR9y7Z1L/Ps5E1in+pAlSV1zNvE3q2sIO+bpibYlDIqMfV+PrT5kSVKXbEKxVf9eWH3IjfFV4t/XazPEK0nqkA8Tf5O6MkO8TbIxMI/49/cp1YcsSeqKG4m/Qe2fId6mOYn49/cjGeKVJHXAZsBS4m5ON2SIt4m2In6FwBszxCtJ6oC3Ef90+p4M8TbVecS/z1tliLcvI3MHIEnq2wGR9RYCP00ZSMudVqDuXsmikCSJsPjPDOKeSn+eId4mmwjMIu69/n6GePtiC4AkNcv2wFqRdX+VMpAOmAOcGVm39i0AJgCS1Cw7R9ZbCvw+ZSAd8bvIek+h5sssmwBIUrPsFFnvz8D0lIF0RJGkaZdkUZTABECSmuWZkfVin2S77u/AXZF1a70g0OjcAUhSB6wFrAesCYwjvg8f4hOA6wucs+suA7aOqGcCIEkdsQ7wXGBXYEdgy8EyOWdQg27OHUCD3RJZzwRAklpqNGG098sJy+tuC4zIGtHQFgO35w6iwWLfu22SRiFJym4v4EfAI8SvFFdlubWUd6E7tiPufV8CfJB6tABJkiKtQ9jr/Wby39D7LZekfzs6ZRzF3v95hITxWRXHLUkqYE3gOOBR8t/IY8tvkr8r3VNke+Dly4XUfHqgJHXdeMK2rk2+8S8rpyR+b7poGuk+j6XAL4AtKn0FkqRh7U8Y+JX7xp2qnJj27emkO0n/ucwhJJnjKnwdkqQhrE94Mst9w05djkv5JnXUDZT3+dyM4wMkKZsXAFPJf7MuoxyY8H3qqvMp9zNaAPwnFa7QW8f5qqsyGVibsILWJEL/nCSl8CLgQ7RzefSHgc0INxjF+wyhub5sFwCvBR4r+0R1TADGElbR2hvYgbCwxlMJI3ElSf15D/DN3EG0wHbA36jmvnk7cDBwW5knqUsCsD4h4zkI2BOYmDccSWqF04E3EZqYVdxJwJEVnetx4BDg0rJOkDMBGEVYPvPNwEuAMRljkaQ2mQd8jtBsvTRzLG0yHjiHMF6kCvOAQwnjD5LLkQCMJWSkx1HzjRIkKaF5hDUF5gCzSjj+AuAB4Crgp4QBjUpvLPApwqqQVYxFWwC8Bjgz9YGrTABGAG8kZKRPrvC8klS1hwnL715GmOJ1O2FfebXH+sArgJcSWgQmlHiuhYSZHBelPGhVCcAOhEEo+1R0Pkmq2j+BHwM/B27EfvcuGQ/sB7yVcKMuo0t7JrAv8KcSjl2KkcDHCNlL7nmwFovFUkY5D3gx7ZxCqP5tBHyWMIgv9XftAWDz6l5KvA0Jmx7k/nFaLBZLGeUs4DlIQ1sH+DTpNhFaVv5IzZcOfh5wP/l/oBaLxZK63AkcgNSbLYEzSPsd/Falr6APBwCzyf8jtVgslpRlKfBFXIVUcY4AZpDu+/jqogGlHgT4RuAHOKdfUrs8TLiA/zZ3IGq0LYHfAM9IcKzphAH202MPkHLQyqsJe05785fUJn8l7NTmzV9F3QPsQUgCilof+EaRA4xKEASEjTR+CYxOdDxJqoMrCNO7puUORK2xiLDl9EbALgWPtQNwHXBHTOUUXQA7E9YqrmKznlmE5o5ZwOIKziepmZ5B8QeSiwgbsswtHo60khHAicDRBY9zC7ATGe6JaxNGxJYx4GYh8Hvg44RVljau6DVJarZ9KH79uQ53IFX5RhC6zot+X99VdeAQVrxKfeO/iZARrVfh65DUHpdT7Bp0B6F/VarCWEJrU5Hv7DTKXYp4JUcWDHjFcgOhua0uWxRLap79KHYdmkeaEdpSPyYT9ooo8t09qqpgNwIeKxjssvLYYOCpBiRK6q7zKHY9emf1IUsA7EkYIBj73b2Liu6jPy4Q5PLlamBKFQFLar0dCIv1xF6Pzqo+ZOkJPkuxe2rhxYGGszfFfmTLyvdwzQBJ6Xyd+OvRHHwYUX5rEJ7kY7/H55cd4CUFgltWPod9/ZLSGUuYIhx7Tfpw9SFLQ3op8d/jxcCmZQW2R4HAlpUvlxWcpM46hPhr0gOEJy+pLq4k/vt8fFlB/bZAUAPA6fjkLym9InOpP5QhXml1XkT89/m6MgLahmJ9/zcDE8sITFKnjSK++f8RXPBH9fRn4r7TS4ANezlBP5sBvYn4p/dFwGsJA20kKaVdiV847H8JS4tLdXNSZL2RwP4pAxlBsZGJX0gZjCQt5zjir01FN2ORyrIm4aE55nv945SB7B4ZxABhgI1N/5LKchbx3ZJSnZ1B3Hf79l4O3msXwH59hfxEX8Wmf0nl2S2y3jlJo5DSOyOy3jbAOqmCuJS4LGQGDrCRVJ4NiW+dPDBDvFI/NiH++/2C4Q7eSwvABOC5EYED/BIH2Egqz/aR9RYDl6UMRCrB/cB9kXV3GO4PekkAngWMiwwg6UAESVrBUyPr3Y4PJ2qGqyLrbT7cH/SSADwt8uSzgSsi60pSL2KXPb01aRRSeWK/q1sM9we9JADbRp78MsL8f0kqy0aR9W5LGoVUnrsi6yVpAYhNAK6NrCdJvdogst4/kkYhlefeyHrDzgLoJQHYJPLkNrFJKtuEyHozk0YhlWdGZL1hfxu9JACTIk9+d2Q9SerV+Mh6s5NGIZUn9rs67AJ8vSQAsfP4Y7MWSerV2Mh685JGIZVnfmS9YWfvlZkAOMVGUtliVxldI2kUUnliu7nmDvcHo3s4yJjIk+eaATAS2IkwAjJ2/QKlt5iwL8SfgAWZY1F7xD5ouEKpmqK0h/BeEoCmGA8cCxxD/NQglW8W8EPgvwh7sUtFmACo7daKrDfsQNdeNwOqu/WBS4DP4c2/7tYE3gtcTw9LVUrDiE0Ahp0jLdXEsAv6rMKwv402JACjgV8Tv1+B8tiCsBvberkDUaM9HFkvdoVTqWqxa/EM+9toQwLwH8CeuYNQlC2AT+UOQo3W077nQ4i9qEpVi/2uDrvaZRsSgHflDkCFvJn4Ua5S7IJjTyG+b1Wq0i6R9VqfAKwLPCN3ECpkArBr7iDUWLEtAKOBvVMGIpVgK2BKZN3WJwCxyxSrXmJ3dJNmEvZMj/H8lIFIJXhBgbqtTwBiVwFTvbheg4q4OrLeQUmjkNKL/Y7eDjw63B81PQGQpIsj622Ls4dUX08CDois+/te/sgEQFLT9XSxW4U3JYtCSut1xLeOmgBI6oRbCMtMx3gDzgZQ/YwA3h5Zd4CwMN6wTAAkNd0AcH5k3XWAdyeMRUrhpcTPcLsemN7LH5oASGqD0wvU/QAwKVUgUgLHF6h7Wq9/2KbNgPoxD7gidxAttBOwQe4ggI2BVwPPATbMHIuGNxP4G/BL4KbIY/we+Afw5Ii66wHvJ2xQJeV2GLB7ZN1FwE8SxsI8QhNbv6WKG8HOkbHdWUFsXfQL4j6PtyY6/wjgY4R9sGPisOQtS4GfEprlY3y2wLnnAVtHnldKZRIhkY39Hp/Vz8nsAlBbjABOAT4NrJE5FsUZAbyG0Dq3bkT9UwkXwRjjgW9E1pVSOQHYrED9U/r5YxMALfMU4B2ELZU/ARxMuCg2xVE4pasttgd+EFHvVuDsAud9CXB0gfpSES8G3leg/h3AGYli+Re7ANptCmFb3qWs/D49DBxD74liri6ANQZjzd2EbUlbdqN/uxY853ziN1+RYm0MTKPYd/ct/Z7UFoBueylwI3Agofl1RZOBrwH/S70HjL6IEKva5TURda4BLihwznGERHbjAseQ+rEG4TtX5KH5PvoY/b+MCUA3jQA+ApxJb4ugvAb4ZKkRFbNj7gBUip0i6/2/guedApwLrF3wONJwRhFG7e9R8DifJ8wA6IsJQPdMIIy0/gz9ff7HAZuXElFxzuFupzUj610G/LzguZ9BSJAnFjyOtCojgZOBlxc8zo3A92IDUHdsQRhh/eqIumOo7yC72O1gVW9TC9R9PzCr4Pn3AS4irBMgpTSO8CBWdPzTAGEly8UxlU0AumMf4FrgmQWOsWuiWFIrshmM6qvI5zqVNN1WzyW0KGyZ4FgShCmuvwVeleBYPwCuTHCcVXIWQPO9G1hI8VHZlw5znpwLAf0+weuz1Kc8StgOtYjRwA0J4zmkYDzSrsA9pPlOTqNg65QtAO02ltDH9E1CE35RjyU4RlneQ/EmX9XH+wg33SIWA68lzfdiXeDXwIk4LkD9G0XYc+IywiDTopYSumQfTnCs1bIFoJk2BC4n7VPZccOcM/dSwPsCj0TGYKlHWQJ8kLRelzjG+4BDE8eo9noe6VqilpWiM116ZgLQPM+m2HrSQ5UFwCbDnDd3AgBhGc3vA7MjY7HkKYuB3xG3+E8vTi4h5guAPUuKV823HfBjQlKb8nt3CaFFobA6L+6iOG8Avkv69fA/TTNG2/8T+A9Cl8DTCQu6jMsakVZnKaEv81bKbc48hrDEcNH51st78WC5BPgycB6Ro7HVGiMISeyxwCtJ381+D6FFa0ni466SLQBhsZzXEVbF+xHwBeBl1OvGMgr4EuU8nf2Q3r7IdWgBkFZlXeAvlNeK8SDwFcLMgSRPaGqMpxP2ULmD8r5fDxH2bKlU1xOAd7HqdebvpfgiDimsS3j6SP2FW0rYnWqoZYKHYgKgutuU8Lst6yK9rDxOWEjog4SltrfGpKAtnkxYfvwowjLpD1D+92kmJexRYRfA6n2TMIVuVbYAfkMYsXxiJRGtbDvChSZ1ZjgbOIIw8llqi6nA/oRpo8ONaSlibcKOmgcv928LCDMSZgIzCAm2mmEdwoqjaxJWU63SXOAVwHUVnxfobgvAkX0cbwnholK1lxEuJKmzzbsITVr9sgVATTEFuI3yn9wsliLlYcobGOs6AKswkTDorVcjCSPP1yknnJWMAD5K2Pu5l818+nERYbGKvyY+rlQn9xJG8F+bOQ5pVf4B7AVcVdYJTACG9mJg/T7rbEoYJFi2icDPCPNAU39+JwIvIcyll9puOvAC4JzcgUgr+BOwO3BLmScxARjacyLrHUG5C4RsRliON8Ua0stbQJg6dyxOY1K3zCZ0pR1LxHaqUgl+TGid+mfZJzIBGFqRpvxvUnwN86HsS8gKn534uPcPHvsHiY8rNcUAofXr+YRmVymHmYSlqw8nDPwrnQnA0KYVqLsx8PVUgQw6irDqWOptSa8mtHZcnfi4UhNdQRhYfAohKZCqciHwLEL3bmVMAIY23K53w3kDYRWoosYSVvX7Bmk281ne/xL6P5uwup9UlUeANwN7ExYNksr0AKHreD/C7Kva6eI0wFEUXzHsQYo9sW9EeCJJPa1kEWFZ1DI4DVBtMoawg9t08k8Hs7SrzCGs3LomNdfFBABCRrY08vjLyk8iX9dzSL+ZzwBhTukLI2PqhQmA2mgSIRGoYsU3S7vLTODzVHN/TKKrCQCk2UHssD5f0xuJf89XV/4CbNVnLP0yAVCbjSesDHoT+W8klmaV+wh7BZQxQLxUXU4AJhL6ZYp88NOBDXs41yhCZljGl+9s0i8YNBQTAHXFDoTfq60CllWVucDPCdNMG7sPRJcTAAibPhTtCvjFMOcoczOfT9L7Zj5FmQCoa0YTptH+F3A5sJD8Nx5LnrKEMFX7y8BBVL9nQCm6ngAAfCvyPMuX16zi2NsDtyc4/oplJnBIn6+zKBMAdd0kwvihDwDfAS4hDAjOfXOypC2PEqZP/xA4nnCtTT1Nu3TuBtib/yQskbtlgWN8g3AxWH6NgYOB00g/EvQuwhfS9fylas0mrNlxwQr/Pp6QHKzFv3eWG1ttaJ01Gjg3su5LCU35y3ZwnEX4jOekCa3+bAEI9iA08RTJGs8cPNYI4LgExxuqXEr/+xikYguApLoZQ/z1dI0M8VbGhYB6dwWhK6CIg4F3EAaGfJ707//XCNP8pic+riSpZewC6M9xwP7AUwoc4zuJYlneAuBdhP4oSZKGZQtAf+YSds1bmjuQ5dxPWLbUm/+/HQz8krCb1iLyDxiyVFseBq4EPkToa5cUyTEAK/tq5HlTl6sImw/VRe4xAJMJm2rk/lws9SkPAHuhLnMMwCrYAhDno4Spezn9kDD/+IHMcdTFJOAiwroN0jIbEZLC3XMHItWNCUCcucBbCKP4q7YYOJbw1Lwgw/nr6rPAM3IHoVoaR9iXY3zuQKQ6MQGIdyWhK6BKjxDWIzix4vPW3frAkbmDUK1tTth2VdIgE4BiPg7cWtG5/kLYJfCiis7XJPvjoioa3styByDViQlAMfOBNxBGmpfp/4A9gXtKPk9TFZmWqe7weyItxwSguBsImz+UYYCwmc/BhKUoNbSqNjtSs3m9k5bjDyKNE4C/JT7mLOAVhF3GBhIfu23uzh2AGuGu3AFIdWICkMYC4M2EEfop3AXsBpyR6Hhtdz55ZmSoWc7JHYBUJyYA6VwHfCHBcS4EdiV9i0KbPQD8KHcQqrUHcbVM6QlMANL6FGFMQKyTgYMIe02rP+8Hbs4dhGppCWHdjNm5A5HqxAQgrUXA2+h/VsB8whzlIyPqKpgJ7AdckzsQ1crjwMuJ3w9eai0TgPT+BHy4j7+fCuwDnFpOOJ0ylbDk61uAiwn7WKh7lgC3AZ8jTP2z718agtsBl+PLhI1pjmf1U9SuAF6F6/mntIQwHuBHg/97LWBUrmCUxUwcFCoNywSgPB8hPIWeQBjRv3wicBfwNeDbeKEqm+snSNIQTADKdeFg2RB4OiEJuI+wHbFz+yVJ2ZgAVGPaYJEkqRYcBChJUgd1tQVgS5xrX4aJuQOQJPWmqwnASGDd3EFIkpSLXQCSJHWQCYAkSR1kAiBJUgeZAEiS1EEmAJIkdVDTE4A5uQNQEn6OklSxpicAU4HFuYNQYXfnDkCSuqbpCcAc4NLcQaiQh4AbcgchSV3T9AQA4Eu5A1AhX8IdESWpcm1IAM4HTsodhKJcDnw9dxCS1EVtSAAAjga+kTsI9eVc4KXAwtyBSJKGNo+wd32/ZYMMse4J/IYwNiAmZku5ZRFwEfBqYMQqPkNJSmkM8desNTLEW5leLsLzgPERx96QMMArlw2ASRnPryeaD0zD/n5J1RpDfEvjBMI9sJXavBvgQ+RNQCRJqq22jAGQJEl9MAGQJKmDTAAkSeogEwBJkjrIBECSpA5q8ywASVKc9YGnAdsQplRPBMYS5sY/DswE7gJuA/4++O9qGBMASdJk4GXACwbLpn3UnUHYlO33wP8REgO1RJNWApQk9WYEYTnuXwMLSLPa51LgMuDt1GcVPVcCLMAEQJLaYyTwOuAmyl36+0HgQ+RfkdUEoAATAElqh52Bqyj3xr9iuR84vIoXtwomAAWYAEhSs40FvkLYi6PKm//y5beEPWKqZgJQgAmAJDXX5sCV5LvxL1+mAfuV+3JXYgJQgAmAJDXTcwibouW+8S9fFgPvKPNFr8AEoAATAElqnv2AWeS/4Q9VlgIfLu+lP4EJQAEmAJLULLsBc8h/ox+ufKCsN2A5JgAFmABIUnPsBDxG/pt7L2Up8MZy3oZ/MQEowARAkpphHcJKfLlv7P2U+cCzyngzBpkArIKbAUlSe3wP2Cp3EH0aB/wcWDt3IFqZLQCSVH9vIv/TfJFycvq3BLAFYJVG9PA384DxEcfekDD9RJJUrnWAW0m/0M5twJ+B+wj7BYwl7BS4I/Bs0rYiLwX2AK5OeEwICcDCyLoTCPfAVmrrboATgE2wSalO5gJTCduISkrrBNLd/O8EvgucSUgAVmUDwg6ChwN7JzjvSOAbhLULBhIcTwk0qQvgZcDFhIUmcjdnWYYu1xMWAWlr8ilVbSNCgl30t/kQ8B7CE3O/DgL+kiCGAcIOhSnZBVBAExKAccBpkXFa8pTLcZyIlMIXqcfvcQzw7QSxXFUwjqHiio3FBIC4N67Ki/vpkTFa8pZr8AcmFTEOeJRiv8NTBo+TylEU33To2QnjMQEooO4JwKGR8VnqUT6x8kcqqUevotjv7zxgVAlxfbhgXF9LGIsJQAF1TwD+EBmfpR7lERwPIMX6DfG/vb8Ba5UU1wiKdcs+RLrExASggDonAJNwwF8bym4rfrCShjUamEHcb24psHvJ8a0NTI+MbwDYJVEcJgCr0PSVADejnOYrVWuL3AFIDbQL8U/wvwGuTBjLUGYAnylQ/wWpAtHQmp4AtDo765AJuQOQGmjPAnVPSBXEML4FTIusW+T1qQdNTwAkqau2i6x3B2HOfhUWAmdF1n1aykC0MhMASWqmbSPr/SppFMM7M7LeloSlh1USEwBJaqYnR9a7JGUQPbiUMKCuX6OBjRPHouWYAEhSM60ZWe+OpFEMbzZwf2TdsqYpChMASWqqSZH1Hk8aRW8ei6wXm+SoB11dgGUR8I/cQbTQhsDE3EFIHTCSuE17IH5r3CLmR9aL2YpePepqAvB3YJvcQbTQL4DDcgchdcCI3AGo+ewCkCSpg7raAqCVTQB2BjYhdJHcBNydNaJ4OwJvBJ5H6JaIbSqVyjADuAs4B/gJsCDiGDGj6qUnMAHQRMKqYG8nrN29vGuBjwIXVhxTrHGEXcTega1bqredCd1lnyQkq1fkDUdd5EWy254O/Bn4ICvf/AGeA5xPdcuGFjGasODIO/F7reaYAlyE694rAy+U3XUocBXDD4YcQXhKeUfpERXzYWD/3EFIEcYBPwPWzR2IusUEoHtGEJ7of0V/84i/BDypjIASWBP4z9xBSAWsBxyTOwh1iwlAt6wJ/JrwRN/vNKK1CH2VdbQ/8YuiSHXxytwBqFtMALpja8L+34cUOEZdt+fcPncAUgJPA0b1+LeuA6DCnAXQDS8i9DEWbcLfKEEsZXDHMLXBKMI1eUkPf1tkGuCpwOIC9WNsXfH51AMTgPY7ltB/n+Kznp3gGGVwWWe1wTTi1gTo16EVnEMNYALQXuOBk4AjEh7z+oTHSqkp6xRIq3NB7gDULY4BaKdNCHt+p7z5DwCnJTxeSncDZ+QOQipgKfDV3EGoW0wA2ud5wHXAcxMf92TgtsTHTOkYQhOq1ERfICzKJVXGLoDePYOwMt6TgAcJS3felTWilb0F+DZhYZGULgU+kPiYqf0d2A84C9gicyxSP74MfCx3ENJQ5hGaf/stG1QQ286Rsd3ZxzmeD/xpFce5CNgpwesoajRwInHvxXDl54T9Anrxi8hzvDXydQ9lLeDTwH2RsVgsVZSFwHnAPsQZWYPXUEVJsUTymALnXyPB+WvLFoDVew9hc5lVzc19AWE53dcCZ1cV1AomE6b4vTDxcZcCnwA+S/ghNMVM4OODZRPCboB2dalO5gL3Eh6upGxMAFbtIMJT9XA3jwmELT33AG4sO6gV7EgY/LZV4uPOJKz6lyupSeX+wSJJWoFPRkMbQ3jy7/X9mUhYXKPKBWleSVjZL/XN/w7CQMKm3/wlSathAjC0fRl+l7wV7URodi7bCOA4Qt986vXvzyfMHrgl8XElpeVSwCrMBGBou0fWOx7YJWUgK1i2mc/nSf/Z/Teh2+OxxMeVlF6TxuWopkwAhhY7g2E08CPST8ODsJb2VRTbzGco8wj9/R+itzXIJUktYAIwtEcL1N0BOCFRHMu8GLhm8Ngp/RPYCzg98XElSTXnLICh/bFg/Q8RRucXPQ7A+4Ev0vs2ob26gjCQ0NXzpG55L9VsOrS8j+ACXY16OxwbAAAZyklEQVTUxYWAxhOejossYHHz4HFijQdOKRjDqsrJlDNjoQ4LAUldUGQhoNSDh3txbWSsLgRUIrsAhjYf+GjBY2xHWJEuxqaE5XcPLxjDihYBRwHvIKxEJknqKBOAVTsF+G3BY7yf0Mfej90I2fKuBc+9okeAlwDfSnxcSdUrMg3QGQQCTACG83aKTYsbSZgV0Ota+m8g7C+wcYFzDuVGwkZGv098XElSQ5kArN79wPsKHmMrhu8KGE2Y238a6fucfk5YpviexMeVJDWYCcDwTgF+U/AYx7DqXb8mE3YFO67gOVY0QNhj/LXAnMTHliQ1nAlAb46i2NoAI4EfsvLo250I/f2pd/KbBbyCsDKh/X2SpJWYAPTmAcJTfBFbErbWXeZlwGWD/57SnYTNfM5IfFxJUouYAPTuNOBXBY/xHmA/QnP/GcBaRYNawXmE2QM3Jz6uJKllXAmwP0cR+vLXi6w/grDNbhmL8HyRsNqW6/lL7Veka8+dBAXYAtCvacDRBY+R+uY/HziC0KrgzV/qBtcBUGEmAP37KWHJ2zqYCuwNnJo7EElSs9gFEOcoYF9g/YwxXA4chpv5rM5IYO3cQUgrWEjxqbl2AagwE4A404F3k68l4GRCV4Tr+a9sDPA2QrfILqTfRVFKYTpwDmHszi2ZY1FH2QUQ75fAzyo+5yJC4nEk3vyHMgW4jrDfwXPx5q/6Wh94M/AX4IN5Q1FXmQAUcxTwYEXnehjYH/h2RedrmsnAhYTFlaSmGAV8if6XHHcQoAozASjmEcLWumVbtpnPxRWcq6m+CmyTOwgp0hcJW4hLlTEBKO5s4PQSj/9TYHfg3hLP0XSbEnZSlJpqNP2tNuogQBVmApDGewnLBae0FPgw8HpgbuJjt83++F1W8x2YOwB1ixfNNB4lDMxLZQZwMGGLYPvrhjcldwBSAptRziqh0pBMANI5m7B1cFF3EJr8z0lwrK5wBUS1wVJ6/y47CFCFmQCkdSxhdb5YvyUM9nMzn/7ckTsAKYG76T0BcAyACjMBSOtx4O0R9QaALxC2CJ6RNKJuOB9YkDsIqaAz+/jbrtzEu/I6szABSO9c4Jt9/P1cwkC/4wlNgOrfI/T3nkt1Mxv4cu4g1C0mAOV4H3BGD3/3d2AvwlQ/FfMx4NrcQUgRBoC3Ut2iYhJgAlCWRcArCGMCHhri/59PWNFvJ+CGCuNqs3nAi4Gzcgci9eExwrWiLjuMqkPcDKg8A8CJwEmEUf07AOMIA30uIfzwldYM4OWEROAIwn4Ak7NGJK1sAXAPYabPtwnTiKXKmQCUbwFhCV+X8a3OhYNF0sqaNA2wSbE2jl0AkiR1UFdbADYjbBurtLbKHYCkYTVpal2TYm2criYA44Bn5w5CkjJoUrN6k2JtHLsAJEnqIBMASZI6yARAkqQOMgGQJKmDTAAkSeqgpicA7gDXDvNzByB1SJOm1jUp1sZpegIwFaeJtME/cgcgSV3T9ARgBnB97iBUyGzcxU+qUpMempoUa+M0PQEA+HruAFTIt7ELQJIq14YE4HTgvNxBKMptwGdyByF1TJP61ZsUa+O0IQFYCrwWd39rmpuBAwndOJKkirUhAYBwEzkAOBK4PXMsWr0HgBOAXYG784YiSd3Vps2AlgAnD5YpwObA2JwB6QmWAPcDdxBabSRJGbUpAVjevYNFkvRETRpZ36RYG6ctXQCSJKkPJgCSJHWQCYAkSR1kAiBJUgeZAEiS1EEmAJIkdZAJgCRJHWQCIElSB5kASJLUQSYAkiR1kAmAJEkdZAIgSVIHmQBIktRBJgCSJHWQCYAkSR1kAiBJUgeZAEiS1EEmAJIkdZAJgCRJHWQCIElSB5kASJLUQSYAkiR1kAmAJEkdNLrEY18DLCnx+JKkZhiIrHcaMK/guUcUrN9aZSYAW5R4bElSc8TehDdOGoWewC4ASZI6yARAkqQOMgGQJKmDTAAkSeogEwBJkjrIBECSpA4yAZAkqYNMACRJ6iATAEmSOsgEQJKkDjIBkCSpg0wAJEnqoDI3A9oPeLTE40tSV40k7LjaFLG7Ab4LuLbguUcDVxc8RiuVmQDcCDxU4vElqatG5Q6gT7G7Ad4BXF/w3GMK1m8tuwAkSeogEwBJkjrIBECSpA4yAZAkqYNMACRJ6iATAEmSOsgEQJKkDjIBkCSpg0wAJEnqIBMASZI6yARAkqQOMgGQJKmDTAAkSeogEwBJkjrIBECSpA4anTsAqUUmAm8CXgJsCUzKG86/zAXuBS4ATgVmZI1GXTSQOwDFmUf48PotG+QIVsrkAOAB4n4rVZbpwCtLeg9UnVHEfwcmZoj3mshYX5jg3GMizz0ArJHg/LVlF4BU3CuBs4GNcgfSg/WAXwBH5A5EUl4mAFIxmwGnEJ7ImmIE8B3gKbkDkZSPCYBUzHHkaVItahzw8dxBSMrHBEAqpsn96QfjQGCps0wApHjrABvnDqKAtYFNcwehThiROwCtrJcEYGHkscdG1pOaYlzuABIYnzsAdULOaYBjCtRdlCyKGuolAZgVeew1I+tJTTGdME22qZYAU3MHIZUsdj2O+cDilIHUTZkJwDqR9aSmWApclDuIAq4EZucOQirZepH1Wv/bKDMB2CayntQkX8kdQAFfzh2AVIEtI+vNTBpFDfWSAMQ2EW4bWU9qkosJc+qb5ifAmbmDkCqwfWS9e1MGUUe9JAC3RR77uZH1pKY5Gvhe7iD68BPgrbmDkCoSey+6K2kUNVRmArAH7RglLQ1nEfB2wn4AF1PPgUNLgMuBQ4HXEwY4SW03Ctg7sm7rE4BeFgG5NfLYawDPB86LrC81zXmDZSKwOTAhbzj/Mg/4B/HjeaSm2hVYP7Lun1IG0lRjgTnE7aR0WoZ4JantmrYb4LWRsRbdDfAbkeddTFgoq9V6XQjoysjjHwpMjqwrSWqHHAsBTQTeGFn3r8CMhLHUUq9LAV8cefwJwHsj60qSFOtI4p/if58ykKZ7NvHNTY8CT6o+ZElqraZ1AVwTGWtsF8Ak4P7Icw4Ae0aet1F6bQG4Hvhb5DnWBT4TWVeS1HxVbwb0ceI36nqQ+G7vRulnN8DTC5znHYRpgZKk7qlyDMDOwLEF6v+csMy3lvNkwlzi2CaV+7ArQJJSsAtgaBMIrdWx781S4GlxL7F5+mkB+Afw6wLn2pzQilBka0ZJkoYyEjiV+KV/AS4gfu2b1tuZkCHFZlcDhA+o6v4gSWoTWwBWdmLkOZYv+8e/xG74P4q/yd+nt1UIJUkrMwH4txGEXTmL3pf+UPhVdsCzCKskFX2zzwLWrDh2SWoDE4BgPPDTyGOvWHZP8UK7IHZ5xRXLbcAzK45dkprOBCAM1vtz5HFXLL9M9UK7YC2KLbKwfFlI6LuZVOkrkKTmaloCkHIvgDHAMYTNrVLcgx4HNk37ctvvVaR585eVewlLN7qFsCStXtMSgBQtAKOANwF3Rh5rVeUtpbziDjiJtB/EADCVsHJgZ+ZiSlKfupQAbAl8DPh75DFWV36Ns9KijSfsmZz6Q1lWbga+CbyOMAUxxxdXkuqmKwlAGTf9ZeU2Qnd2Z6XIfLYhrJu8foJj9WIuoe9nTkXnk6Q62iqy3iSqv35eAzyn4nOuzmxgN8K2v52VYi7+ncCBhO0Tq5jWN2GwSJKaoU7N7AuBw+j4zR/6Wwp4da4DXg4sSHQ8SZJSWwK8ATg/dyB1kCoBALgYOBSb5iVJTzSQOwDCA+rrcM7/v6RMAADOBZ4PTE98XElSc+XuAphNaKX+ReY4aiV1AgBhwYd9gNtLOLYkqXlytgDcC+yNzf4rKWtDnluAXQjrBLy+pHNIkvp3KNWP13pSxedb5izgzcBjmc5fa1U0y7yNsFOTG/9IkqowB/gI8D/UY/xBLY2q4Bw3AD8CNgB2In9fkCSpvc4FDsIm/2GVMQZgKA8AhwMvJiQEkiSldBNwCGFdmnvzhtIMOZ7GRwAHAB/F/ZclScXcBHwO+DmwNHMsjZK7OX4P4AjCzoLrZI5FktQM84FfAd8GrsgcS2PlTgCWGQ+8dLC8AHhy3nAkSTXzKKF//0zgPMKeMCqgLgnAirYhzNvcnrAt8LbAFMqbtihJqp/fAGcDfwRuxSb+pOqaAKzKRMJ0wknA2pljUTV2Br4bUe92XIOiDr5MWBisX58Afps4lra5nNB62ma7AVfnDqKtmvZEPQf3Guia9SLrPQpcnzIQRZkaWe9h/PyGczehlbStBgivUSWpahqgFCt26+e5SaNQrNmR9Vw4bHhn5w6gZNcBD+UOos1MAFR3JgDNZgJQnu8Rtrdtq+/nDqDtTABUdxMj69lVVA+xCcCkpFG00520d3e7R4HTcgfRdiYAqrvYBMAWgHqITcRsAejN52jnWvffwSS+dE0bBKjuie0CmJc0CsWKnau9VtIo2usm4BzCGiqxLiZ9V8KmwHaRdRcB30oYi1bBBEB1F5sA+PRQD7Gfg10AvfsMxRKAkwjL6Kb0a+ITgF8C/0wYi1bBLgDVnV0AzTYjsp4tAL27Gri0QP3jSbsmzBTg4AL1v54oDg3DBEB1t35kvelJo1CsaZH1NkwaRft9rkDdnYGXpAoEOJr4reavw4V/JA36HWGQU7/lVTmC1UqmEPf52YLTv2uJe68HgCsTxTAJeLxAHK9NFIekFvgLcReSfTPEqpWNJ/5msG6GeJvsMOLf6wFgzwQxHF3g/FOBMQlikNQS04i7mOyQI1gN6TH8DKswEvgr8TfgcwqefwRhw57Y83+44PkltcgoYDFxF5MNMsSrod1M3Gf44hzBNtybKdYK8OwC535pgfPOBSYXOLekltmQuIvJEpziWie/J+5zfHOGWJtuDHAv8TfinxU494UFzvudAudVJGcBqM5iR4I/Smg5UD08GFlvk6RRdMMiwhbMsQ4DnhpRbwfghQXO+80CdRXJBEB1FtuM/3DSKFSUCUC1vkf89MuRwHER9Y4hfi2BCwkrGqpiJgCqs00j6/0jaRQq6p7IepsnjaI75gFfK1D/jcCT+/j79QbrxDqxQF0VYAKgOts6sl7sDUfluDuyXkxTtIJvEebjxxgLfKCPvz8SWCPyXHcA50bWVUEmAKqz2ATg3pRBqLA7I+tthfPCY82k2IY6b6e3VTjHAO8scJ4TgaUF6ktqqauJG1H8uhzBapXGEj+d01aAeJOB2cSPzP90D+d4fYHjP4abPklahenEXVh2yxGsVute4j7LIrvcKTxhx96gHwfWGeb4sUn6APClNC9RUtusRfyFZeMM8Wr1Yvd06KcvWivbDFhA/G/p+NUce/cCx10MbJnsVSqKYwBUV7H9//OJn3am8twVWc8ugGL+CZxeoP77WPUAv2MKHPcMHKwraRVeSdyTxa05gtWw/pO4z/OSDLG2zTbEj8EYAI4a4pibAgsLHHOv5K9SfbMFQHW1TWS9O5JGoVRujqy3bdIouulO4NcF6n+IlWdjvGeIf+vVDcBlBeKR1HKnEfdk8fkcwWpYm+OYjpyeQZhuF/sZHLHcsSYQVtuMPdabSnuVklrhJuIuLofnCFY9eZS4z/SgHMG20LnE37Rv4d8txu8scJxpwPhSX6WkRhtL/MjlXTLEq95cQtxn+okMsbbR3sTfuAeAVxDW+4/d3tnPUtKwnkncxWUJMDFDvOrN14n7XM/IEWxLXUb8zfsG4CUF6s8nfodPSR3xJuIuMPfkCFY9extxn6ubO6VzIMVaAe4tUPeH5b88SU3338RdYP4vR7Dq2a7E3zw2yhBvW11PsSQgtjyzihen3jkNUHX0jMh6f0sahVL7C6GbJsbOKQPpuC9mOOclwJ8znFerYQKgOtoxst5NSaNQavOIX6jp2SkD6bhfArdXfM4TKz6fpAaaQnwT41OqD1d9+i5xn+1vcwTbYv9BdU3/9wCjqnlZkprsDcRdZB4lTFFSvb2VuM93JjA6Q7xtNQa4j2oSgGMrek3qk10Aqps9IutdS7jYqN6uiqy3Jg4iS2kR8NUKzjMLR//XlgmA6mb3yHrXJo1CZbmV0FoTY5+UgYiTgekln+MHwIySz6FIJgCqk7WAp0fWNQFohgHgmsi6e6cMRMwlLM5UlgHgWyUeX1KL7Ed8P+MmGeJVnE8Q9xk/hoPJUlsbeJxy+v7PrPB1KIItAKqT2Ob/qcD9KQNRqa6OrLcO8VNENbQZwEklHbvM1gVJLXMhcU8aP8sRrKJNIn6zp2MyxNt2GxK6A1I+/bsmRwPYAqC6WIP4GQAXpwxEpZsN/DGy7gEpAxEQtuhNPVL/a4mPJ6nFDiD+aeNpGeJVMbHjAOYTpgQqrc2BhaR5+n+IkNCr5mwBUF3sH1nvIeC2lIGoEr+LrDcOeGHKQATA34GfJDrWSYRlnyWpJ7cQ97SR6qKlao0mfvT5dzPE2wVPI2zWVOTpfyGwadWBS2quLYi/4LwzQ7xK40ziPvP7cdnnsvyaYgnAj6sPWVKTHYn9/110NPGf+y4Z4u2CnYGlxH8uu1YfsqQmi33qmIpPgk32VOJvNJ/MEG9XXEDcZ3JFjmAlNdcahJ3eYi44J2eIV2ndTNxnf2OOYDvi+cR9Jq/OEayk5nol8U+BB2eIV2l9lvjPP3bfCA3vMvr7LP6K2zVL6tPPiLv4zwMmZohXaT2X+ATgsxni7YpnEdZc6OVzWArsmSdMSU01EZhD3MX/nAzxKr0RhLEcMd+Be3AMSJleBsxi9Z/BQuDwXAFKaq7XEP/0964M8aoc3yL+exC7fLR6syPwW4aeGfAHYK98oUlqsl8Rf+HfPEO8Ksf+xH8Pvpkh3i7aBngrcBzwWmCHvOFIarI1id+B7IYM8ao8Y4FHifsuPASMqT5kqfncC0C5vJ74DUN+mjIQZbcQ+EVk3fWBQxLGIkkq2fXEPfEtBaZUH65Ktifx3QCXZohXkhShyNSvyzLEq/KNAO4k/nuxU/UhS81mF4ByKLKBj7v/tdMAcHqB+kelCkSSVI51iJ/7vwjYoPqQVZFtiN+IZg7wpOpDliT16ljim3nPzRCvqnUl8d+P92eIV2osV9HqljWA3QiLd2xP2I1tU8KKfBMyxiU1zTxCq8MDwO3ALYTd8C4b/Hep9kwA2m8cYdOcw4EXAePzhiO12iLgEuDHhG2uTQZUWyYA7bUm/165a+PMsUhdNAv4IfB5QkuBJJVqFPAe4DHi+1ItFku6Mhs4HlcsVM3YAtAu2xGaHp+dOxBJK7mF0BV3Xe5AJAhPi2qHw4EzgS1yByJpSOsDRwAzgT9mjkUyAWiJ4wi7oo3NHYik1RoNHEBYzvocwroHUhZ2ATTbCOAk4B25A5HUt18BryPMHJAqZwtAs/03cHTuICRF2R7YGjiDMFhQqpQJQHO9D/hU7iAkFbIjoevuotyBqHvsAmimXQkrjtnnLzXfAHAoYRCvVBkTgOZZC/gLsHnuQCQl8wjwdODB3IGoO9wOuHn+C2/+UttMBr6UOwh1iy0AzbIjcANhKpGkdhkA9gX+kDkOdYQJQLP8Ajgs0bH+TBh9fClhnfKHEh1X6oLJhD029gAOIYzLSXE9vQR4foLjSGqRpwFLKL4u+RXAnhXHLrXdzsCFpNk7wN+npCf4KsUuKouB91cetdQtbwHmU+y3enrlUUuqrTHANOIvKAuAgyqPWuqmPQjr/cf+XucQtvOWJF5EsSeKt1YfstRpB1Osy+711YcsqY4+R/yF5IcZ4pUEXyT+d/v9DPFKqqGriW9K3DRDvJJgbWA6cb/duzPEK6lmRhJu5DEXkf/JEK+kf/s48a0Aa2WIV1KNTCH+ArJP9eFKWs72xP9+n5MhXnWISwHX35TIejOAyxPGIal/NwP3RNbdKmUg0opMAOpv7ch69xFGIUvK667IenYBqFQmAPU3KbLe/UmjkBQr9rfoWgAqlQlAe43KHYAkIP46O5A0CmkFJgD1Nyuy3sZJo5AUa5PIerG/faknJgD1NyOy3haEJYQl5bVNZL3Y376klngy8dOIXpQhXkn/9gzif7/PyhCvOsQWgPr7J2EhoBiHpQxEUt9eGVlvALg9ZSCSmuly4p4g5hO/joCkYiYDjxH32/Xmr9LZAtAMF0fWGwd8IWUgknp2ArBOZN3Y37ykltmX+H7EAeC9lUcsddvrgKXE/2ZfVX3IkupoFDCV+IvJIuA1lUctddN+wFzif68zgYmVRy2ptorsLT5AeBo5Abt9pLKMAI4lJNxFfqs/qjhuSTW3NcUvLAPATcCBFccutd3ewNUU/30O4C6AqsiI3AGoLz8G3pjoWHcDZwCXEroX7ifMGpC0euOAjYDNgD2AlwPbJTr2+cBLEh1LWi0TgGbZlvAEPzZ3IJKSWwrsDvwxdyDqBjeMaZZHgAnAXrkDkZTc94CTcgeh7rAFoHkmADcSv764pPp5ANiRkORLlXBEePPMJSwvOi93IJKSWAocjjd/VcwugGaaNlgOzh2IpMI+CpyaOwh1jwlAc91A6MLZN3MckuJ9Bzg+dxDqJhOAZrsEWJMwclhSs5wCHEmY+y9VzgSg+S4AHgf2x0GdUlN8HXg3of9fysIbRnscDPwQeFLuQCSt0jzgGOC7uQORTADaZQohCdg3bxiShnAtcARwS+5AJHAaYNvcC7wAeBNhXrGk/B4B3gU8D2/+qhFbANprPPA24EPA5pljkbpoGvAV4NvArMyxSCsxAWi/UcALCQuNHAismzccqdVmETb0+TFwLmEHT6mWTAC6ZRSwM2Evge0ImwttBkwaLBPyhSY1xnxgNjCT8JR/C3AbcDlwDbA4X2iSJEmSJEmSJEmSJEmSJEmSJEmSJEmSJElqov8PCBxU3wMbgnAAAAAASUVORK5CYII=;" parent="1" vertex="1">
          <mxGeometry x="380" y="505" width="90" height="90" as="geometry" />
        </mxCell>
        <mxCell id="ILMhwKr-gRY-XF_f-1hN-4" value="" style="shape=image;verticalLabelPosition=bottom;labelBackgroundColor=default;verticalAlign=top;aspect=fixed;imageAspect=0;image=data:image/png,iVBORw0KGgoAAAANSUhEUgAAAgAAAAIACAYAAAD0eNT6AAAABHNCSVQICAgIfAhkiAAAAAlwSFlzAAAOxAAADsQBlSsOGwAAABl0RVh0U29mdHdhcmUAd3d3Lmlua3NjYXBlLm9yZ5vuPBoAACAASURBVHic7J13nFXF9cC/u0uTKiAggoKioiJ2VOy9xN5b1MRujC3Jzxg1lqhRY+zGqDExGjVGY4nYS2wo9oIigoio2ACRXrf8/jj7wrLs23ffmzMz9753vp/P+SwmuzPnzr135tyZU8AwDMMwDMMwDMMwDMMwDMMwDMMwDMMwjHKgKrYChpES+gAbAqsDawB9ge5AJ6AdMBtYBEwDJgGfAuOAt4EF4dUtmv7AAGBFoF/jz77I9XUE2gNdgRqgDpjV+HczkGv+vvHnF8DnjTItnPqGYWhjBoBRqXQAdgP2ALYC1iqxnUXAW8CLwAOIQRCTLsCwRlm7UdZCFndtfgA+AMYAo4HXG/+71kNfhmEYhuHEFsAdyJdtgweZAFwMrBToenoBhwM3Ae8hi6+P60oqc4AXgN8BWwNtvV25YRiGYRSgGjgQGEW4hXAh8A9gqIdr2Ry4CHgD2a6PueAXklnAw8AxQE/lsTAMwzCMvGyJLJSxFsA64DbkzN2FDYA/IGfwsRf1UmUx8AxwPNDNcTwMwzAMo0V6AHcB9cRf+BoQJ8JTKc7vZgXg18BHKdBfW+YBdwO7ILsahmEYhuHMDsCXxF/kWpJnEI/81tgYuAWYmwJ9Q8gExNDpUWBcDMMwDKNFqoALSP+5+FRgmxZ034Owfgppk9nAdcDKGIZhGEZC2iHe/bEXsaSyADgSWfj3QUIJY+uUFlmI+E2sgWEYhmG0Qkdkaz32wlWs1CPb37H1SKssRgyBQkcmhmEYRgXSHniS+IuViT+ZD1yJ+QgYhmEYjbQBHiL+AmUSRqYBJyLpig3DMIwK5griL0om4eUdJL+DYRiGUYHsQ3pi/E3CSz1wJ3YsYBiGUVEMBGYSfxEyiS9fAftiGIZhVAQjiL/wmKRL7kPKNxuGYRhlyo+Jv9iYpFM+B7bHMIxEFJOX3DBisxzwKdDXU/t1wH+B55ACQuMRz/OFjX33BgYDw5Ec9sPJxjtUC3wGjAM+BiYhW+dTgO+A6ci1z2r8/a5AJ6Bz47+7ImO+FrBmE+kU6gKKoB64FLiw8d+GYRhGGXAmfr4cpwHnU7xhsSpwFTDHk16lynfAvY3jtSVivGhTBQwADkXqFoxLwXU3lSex8sOGYRhlQUfgW3QXiTrgetxL0/YF7lHWrdjreAk4CykbHGtXoh9yRHMH6XDS/AwprGQYhmFkmOPQXRy+A3ZU1vEwpKBNqAXuVeA0YCXl69BgOeAg4GHkCCWWETAfOMbztRqGYRgeeR29ReFTYJAnPYchZ+u+FrTpSMW8dT3p74MewAnA28QzBG5F0kYbhmEYGWJ99BaCyUgeAZ9shP4W+CTgVOQoJMvsCDxBnCROrwG9/F+iYRiGocVF6CwACwh3JrwXeovcxUDbQHqHYj0kk98iwhoB4xDnTcMwDCMDvInO5P/LwHrfoKT3FYH1DskA4C7C7gh8jThLGoZhGCmmD+Ll7jrpj0aqB4akGzqRC2MC6x2DTYGRhDMCZgI7BLkywzAMoyT2RmfC3z+04o38sggdW5M+oRWPxF7ABMIYAQuRPAaGYRhGCrkA94l+IlAdWvFGOqMTGrhXaMUj0h7J5BfCP6AOCaU0DMMwUsZDuE/yvwuu9dLcQfavIQYbAu8TZjfgrEDXZBiGYSREYwHYPLjWS3Mo7tdwT3Ct00Fb4NeESSZkRoBhGEaKcHWim09457/m9MN9cXo9uNbpYhPgQ/waAPXAyaEuyDAMw8hPG9wjAEYH17plZuB2HZPDq5w6OiK5A3wbAceGuiDDMAyjZbrgPqE/EVzrlhmD23XMWrbJiuUU/B4J1AFHBrsawzAMYxm64j6Z3x9c65ZxrWVQR7wqf2lkOLIr4ssIqAUOCXY1hhGBWKFRhpEEjeczLSl0XfWoRRYmQxiF1Fx4wVP7NUiGwj08tW8YhmG0QjvcU8S+EFrpPHyG23VMC69yJmgD/BV/OwGzkXBEwzAMIzA/4DaBp8F5rj1LvuBLlYnBtc4Wv8afEfA1sEq4SzEMwzAAPsZt8q4nfhrdYbgvQpUeBpiEk3E3tPLJe4hTqmGUDeYDYKSdSY5/XwVsr6CHCzsqtDFeoY1y58/AwUjZZ23WB+4jfk4Jw1DDDAAj7WjE8R+k0Ebs/scptFEJPAjsguRd0GY3pMSzYRiGEYAjcN++XQD0Da14Ixsl1LGQxKpmmFU2Q0r++jgO+FXA6zAMw6hYVkdn0r4qtOKNPFCEjq35MfQKrXgZsAWSQEnbAKgD9gx4HYZhGBWLRn34hcDgwHpvjXsYYwNSEMkoDV9GwHRgtYDXYRiGUZHciM6k/TLhnLi6IOf2GnpfE0jncmUbYA76RsBbQIeA12EYhlFx7IjepP3HAPpWIymItXQeHkDncmd7YC76RsDNIS/CMAyj0qjGPZNeU/HpxFUFXK+o6ydYDQAt9sFPngArHGQYhuGR89GdtC9FPwy2PfB3ZT3PV9ax0vk5+gbAHGDdkBdhGIZRSfQF5qE7cT+BXnjgmsCbyvrNJX4Ww3LkSvSNgI+xTIGGYRjeuBb9iXsmciTQqUSdegC/R3INaOt2XYk6Ga1TDfwL/ft1X8iLMAzDqCR87ALkZAriILgRhY8G2iAhfn/GT4hZA2JQ9C96hIykdABeQv++/STgNRiGE+ZcZGSNC4ALPffxPRLiNQ6YCixGFow+SC6BYfjf7r0YO//3TQ/gNWANxTZnInUDPlds0zAMwwDaAWPw89WdFplE6UcSRnGshX7K4JewOiuGYRhe2AZJxxp7ofYh9cDuekNlJOAQ9O/j6UGvwDAMo4K4kPiLtQ+JVbOg0rkK3fs4HxgS9AoMwzAqhGrgceIv2JryBnLEYYSnDfA8uvfzbaBtyIswDMOoFLYl/qKtJV9gXv+x6QNMRve+miOnYRiGMjXA68RfuDXke2Ad3eExSmRzpHKk1r1dBGwc9AoMwzDKnNOIv3BryAys2E/aOBvde/wO4apQGoZhlDWr4C8BT0j5BthQeWwMd6qB/6J7ry0qwDAMQ4FHib94u8pHwKraA2OosQrwA3r3exbQL+gVGIZhlBk+YrZDyz+AztoDY6hzILr33WoFGIZhlEh34FviL+ClygzgGPVRMXzyD3Sfgd3Cqm8YhlEe3Er8RbwUqUcWkhX1h8TwTDfgM/SehQnAckGvwDAMI+NsTDbT/z4LbOVhPIxwaKeevjis+oZhGNmlChhJ/MU8qSwGHkZiyo3y4M/oPR8LkKqShmEYRgGOQHeBPgk5i38CSdSi0WYdkpjodKC3n2EwItIN3SyBz4ZV3zAMI3t0RnfifbRZ+92APYDLgRdI7mQ4BSn7egOwP9BT97KNFLIvuobonmHVN4ylqYqtgGEU4FLgHKW2ZiMV2r4s8HtdgYHA8kAXoCMwp/Hv5wCfIzHiRuXxb+AApbY+AtYHapXaMwzDKBtWQ8qqan1xnRxWfaMMWRGYjt4zeWJY9Q3DMLLBg+hNtC8jKV4Nw5Xj0Xsuv8GSQhmGYSzFFuhNsouwanuGHlXAi+g9nxeFVd8wDCPdPI/eBPuHwLob5c8QJNxT4/mcB6wcVn3DMIx0sge6W6xdw6pvVAg3o/ec3hZYd8MwjNRRjdRP15pYDwmrvlFB9AC+R+c5rQWGhlXfMAwjXWgm/XkusO5G5XEGes/r44F1NwzDSA3tgE/RmUwXI+e0huGTtkg8v5YRsGVY9Q3DMNLBz9GbSG8KrLtRueyE3nP7VGDdDcMwotMe+AqdSXQWVnrXCMsI9IwAqx5pGEZFcTJ6E+jZgXU3jLUQRz6N5/eJwLobhmFEoy3wGTqT55dI7n7DCM3f0DNiNwusu2EYRhR+it7EeURg3Q0jxwBgATrP8WOBdTcMwwhODTAOnUnzAyzfvxGX69AzZjcNrLthGEZQDkdvwtwnsO6G0ZxeiBOqxvM8IrDuhmEYwagCRqMzWb7V2J5hxOYS9IzaYYF1NyoImzArixqgD7AS0BfoB/QEugDdgE6N0rVRcv/drfF32iTsZy4wp1FmALOb/Pesxv9tDtAbif3XYDcshtpIB92AiUiqYFf+C9yLJMnqjLyP7YDuSOhsU4fX5v/dEjMQwwJgJhK5MBNJnDUHmN/4OzOAH5r8O/ceG2WEGQDlRS8kHGkNpLpYX2Sxz0lvxAgoN14Cto2thGE04SzgithKKLMQmAJ83fjz2ybyBTAJ+BwzFDKDGQDZowOwZhMZ3ChrIl8FlUgDUvXvM2QSyv3M/ftL5AvHMLRZDlgViQAY2PhzAPI+bhRPrahMRwyBScAniJPvx40/v4+nltEcMwDSTQ9gkyayIbAK5uleLHXAZGRCmoBMRLlJaSKyDWoY+ViRJUb2GshCPxBZ6HtH0yqbTEPevQ+B94D3keidOTGVqlTMAEgPXYGNWXrBXy2qRpXBYqQA0VhgPEsMg4+RM1CjMujEsjtruX93i6hXJVCPGObvA28ArwFvI/4IhkfMAIhHP2CHRhmOTDR2P9LFZCRKYTRLvlTGYTsGWaYNsrivC6zf+HMo8kVvpIfFwLuIMfAa8Dzia2AoYgtOOHoB2yEL/vbIJGRkj4XAGJYYBqORiWp6TKWMFumLLO7rN/5cFykR3S6mUkbJfIRERfwXeBF755wxA8AfXRHP9B2RBX8oNt7lzATgzSbyLhIOaYShJxIznzs+G4ZEvhjlST2S++NRJG3yuywJbzQSYguSLisBewP7Iou+fWlULrXIF0tTo+ADLBpBg66Ih31uwR+GeOIblctXiCEwAngG2alLC92BQYgDdw8kV8NyLMmNMgeJmhiP5EkJhhkA7qyFLPj7Irm7bUyNfMxDDIGXgVeAVwn8wmeUVYEtG2UrYB0sEsbIz0zgYeA+xBgIaXRXI+vAtsjzujly/JuUb5DoiOcb5V0kiskLtlgVT+4G5xZ9O8s3SqUO2RXIGQQjkS+ZSqYNcmbfdMG3rXyjVKYDDwF3Iu+Zr2OCYUgl0gOA/ortTgX+CfwDOfIwIrEJcBXiGa6V59vEpLlMRCarnyJbhuVOW2ShPx/5WptN/HtgUp4yHvgNEoGlQRvgMCRKIYT+7yPF08oxm2sqWRm4EL1ytSYmxcp44M/AgYijW9apBjYAfomc2dqCbxJaahHnwT0o/ShpPyRXSAz9PwGOwnbwvVCNFJZ5GHlQYj+sJiY5qUMSpFyJPKOdyAZrACciZ7JTiT+OJiY5GQ+chhQ7S8JaLDlKiC0jgfUS6m0UoCNSmW4C8W+siUkSWQg8h3xNr0166ATshexcTCL+OJmYFJKZwLXkP3arAX6FZCeMrWtTWQxcTPJKrUYzugCnIxWuYt9MExMX+Qy4BTiI5F80WqwGnICEYaVtkjQxSSqLEB+cps7dPZBS47F1a01epATfhko+Q+iKWHSnN/7bEBqQ2t9zkbC1XGnPOeQPp+mAxLV2RGqSd0acu7ph4VqxmI+EET0GPIEYB5p0QEKdftQoqyu3bxRHPfIVO7Px3zOQd5lm/27H0kdHuXd1eeQr0uZCoRa4F/gXcA3ZeL6nAHsiocaJqEQDoD1wMnAusEJkXUKwANmGbVq/eyoSbjYV+A4p0TkTWfC1C3BcDZyp3KZRPB8i4VAPIbHFpdANmWD2I1s+COXKXCQnwjTk3dWgCklc01R6IVUPV0IqI/ZFHKRXxZKdpY05wP5IRE1BKs0AOBj4A1LGs5yYifgufNpMJiALfUP+P/VKOyRssphEGC3RAGyNnHmvhJzT9UXibfs3/nsAsgNhFOYzxBB4EBiFfDHmow+wD7Lo74BN+MUwB3n+v2v8+W2Tn2ci+URcOQRxroxBDfIuro44ejb9uRr2rMRiEXIM+EihX6wUA2Bt4AYkL3+WqUNCQEYj2aI+aPz3FzGVaoX9kEXGlZeBbRL8Xm/kq6QlWQXZ6jSW5lvgP8h9eh455hmI3Lv9kBh9O8ZpmSnI7trnjT9z//4MeSdbq3F/FHCHgg5PArsrtKNNzjgYjIR95mQN7HkKwXxgV2TuzEu5GwAdkTj+M8jm5D8OSRc7Ctm2HUO2amSPQLaMXTkKyYTlQhvEEFiLpWu9r40YDoacFX+JFK4yhClIqNh4xPjOyQTctt07IrtzyzvqV4cYbJMd2wlFJ8QQ2Awpg745upnzjCXMQHZOP8z3C+VsAGwJ3I5YnFlgAZLq8VUkLewo5Iw+q/RFvoJcw1N+QLxbfRo+yyNGwXpIydhcjXjXowsjO3yOFG/6ADG0xyIL/QyPfd4InKLQzrnA7xXaiUU/ZL7eDnEsXSeqNuXFeCSL7exCv1guLIek7K0jfmhGa1IHvAFcglhp7X0MRkT+D51xuj604k3oA+yEnNfejqTiXEz8Z8ekdJmBHHVcCxyPfIXG8nzfII+Oxcp4yutjrg/ir3UrYpjFfmayLncXN/zZZShixcce8HwyGfgbcCjlH4GgdR/SlumqA+K8dRIyQb2NOCfGfrZMlpVvgMeBS5FUyquRvoXyDXSudavQigdkCJLs6mnsXStVjix61DPG8ciZXOyBbi5vA+cg28qVwnB0xu610IqXSDukGtipwF1IBEbs567SZDbwX2QrfB+yU0HwBHSu/6+hFY/E8sDRiH/RAuI/d1mR75CQzqVImzVcCl2Q7GeHxVakkQbgdeCBRvksrjpRuAnJteDKcWR3YuuNODjlnJ02xeLmtWhAdpheR4zE15Fze2910z3SBclC2tmxndnI1nmWnIRd6Qbsjezu7Ep6j1FzNTzeQhy7pyFHiR2QeWIwsAXi++BzTb4JHZ+T1LAa4rQT27qqQ1IxnoZ5tLZFp+DLLNwnxTTRFjEEzkIqkeWys5kUlsXIIv9HZMIvh6qITbkNnXE6JLTiKaIrcASS3yItqajfRYpgLfPlnYf+yPww0ZM+tSyd4jjTbEPcymJ1SIzlqWRnuzEEe6IzvreEVjwwNcCGSCrqB5FsjLEnrLTIAuAF4HfAzpSXIdgSm6Ezbg+HVjyldEWOhF8lzvP7CVIMq9Sv+TbI7ucUD7rdXqJOqeJY4jmDfI2cMw7yfpXZ5G50xnmT0IpHpgbxI/gNUuEvLV8xIaQOeAcpc7wrlZnRcTTu47iQ5F+blcLaSPbXb/H/HNcjUUsdlHTvgexoaOq4CMkbkVnOJ84k9SpwANlMKBSKzkj2M9exLjVXfTmxHLALMnmVYyjUPCSK4mDKPyImCaeiM67Hh1Y8I7RDoq9ews/zvAg/nvZVSDI7TV0v96Cnd6qRxBkhJ6l6ZHt2iwDXVw4cgc64/yy04imkBvFmf4L057QoVcYiRyCu2fDKge7o7Po8H1rxDLIe8Bf0nuNapACPT7TyqjQg2T4zlY65HVKaMeTkNAJJ1GEk5zHcx30Rlf1F2Bc4D8miGHuBDiVzkfwYGsVxssz9uI9lHeaInIQd0Ht+Q32wXK+oc2bq4rRF/xykNRmJffGXQi9k8XYd/8dCK54CqpAJ6T50xjDL8hbiAFWJIZMHoDOGvwqteAa5CZ2xvjegzu2AN5X0/lNAvUumDfBvwkw8k5Et7HLIjRCDE9G5D2WfsaoJ3ZFCVR8Tf+FNm8xAKngOKXl0s8dySGlv17F7M7TiGaMKyRLpOs7TCV9IbAPkyMFV97GB9S6aNsC/8D/R1CKOVuUeauSbp3G/F/OIl5c9JMOQLe+5xF9osyAvIom+0proRZM7cR+vemBAaMUzxGB0nstfh1a8kduL0LE1SW34ehWSAc73xPIBMhkbbvREp0jOv0MrHpDlkPDVt4i/oGZVvkM8mFctcuyzxO7ojNUvQiueIY7BfXxnEu9jZTBi5Llew0GhFU/KxfidSOqQWP52oS6ozNF4oRqQM9ByY0UkoU3MpFXlJrWIw9zwIu5DVtDKpPlKaMUzxC24j+9twbVempdxv4bfBtc6ASfhd/L4GnG4MvTQ8P6fiXwllwtDkW1+K1jiV15FcsHXJLstmeBm3MeljhRv8UbmedzH90fBtV6aM3G/hruCa12APdFxcMgnTyLe6oYe3dDJynhnaMU9UIVksnsKnS26UDIV8QreEuiHlF59NwV6FSMTkZwCXQrepfSzLTpj8vPQimeEybiNay3xn7MNcX8+Xg+udSsMxm+BlD9QXl8JaeHH6Nyf3UMrrkh75Hz/Q+IvhEllLnAPYnTny245BDkqm5QCfZPKDORdXznPNWWBatwXqQakPLKxNDW4G+efBNd6Wdrh7nc1IbjWeeiKhCX4mBDmIeF9hh80cjRMJZsplnshqalD5BnXkMVIZsEjKS7qpQrYGjk7nZ6C60giixADJ6s1Ja7GfQxqCR+mlnaWx31cnwqudct8htt1TAmv8rJUA//BzyTwPbKtafihI2Jgud6nm0Mr7sjayGKoce0h5DWkVHUfhWtvD+yLRGxkpWDRi0ha5SylP90UnWs/NrTiKWcV3Mf0/uBat8x7uF3H/PAqL4tmjuOm8jmwTsDrqET2RudebRta8RIZjqSIzsL5/hfARcDqXkZCWB5ZYJ4nG/UKxiNZBrMQ/VOFbNG6XrOVCF6agbiPacjsf63xDm7XsTC8ykszDD+pTz9GnJkMv9yK+736ivR/mW0HPEv8BayQLEDSCe9K+DFdGQkr+qxE3UPKF4iDXNqjTi7F/VrnoFeethzoifuYpiVd+Se4XUfUI4DOwLgWlHKVcVj4Swiq0HFUSvP2/1bAc8RfsArJR0hWsjSc91YDOyGGiEZ0iE+ZgpRa7eZjIBTQOgaIHbKWJtrhPp4fBNd6WWpwP4KL6syokfKyuYxFqqkZ/tkYnXu2Z2jFC1CFnHFrFd3wJTMRP4Q0V9DrA5yFbL3HHq/WZCpSgTFthkA1OjnrbwqteMpxXTgXED8t9Zq4PxdvBde6kT0SKliMfEm2Q3+yxoW437N5iCNhGqgG9iL9qXrfAk4ge7UrNkYMljTXP5gFXIdkb0wLGinRJ2NFzpqiEXG2dXCtl+YE3K/hn8G1RqzsL0tQtjWZCqwV8iIMlS/kEcG1XpY2wNGkuyLfDGRhGuxpDELSE6mAOIb445pPZgNXkg5DYD90rmmD0IqnGI0Ks1cG13ppHsH9Gs4PrjU6eZibylzSvQ1ajqyEjif8iaEVb0Jb4Hgkg1zsBSefvI+MUSdPYxCbLZHKZmndFZgHXE9cn6LO6KSTPi+04inmd7iP51fEy13SBx3n+QNDK741uiFU9cDBQa/AAAml0rh3MSI1qpHshRohVj5kIbI1F3uLMSQ9EF+BScQf/5ZkHvLFt4Kn6y/EEwl0LCSjgmudXg5E57n4SWC9c1yeUL9CErSqZg36+cUvCXkBxv+4D/d793ZgnXPOfR8o6O5DJiNhdGnYdo5FDVIR8kXi34+WZBaSWyG0s+ApCrrXIoaWIeOgUXNmIuFDSfsjR1Suuo8PrDcnKijdVEaQ/vjxcqQGybDoev8uCqjzzkjhi9gLSHOpR/K1H4D4IhhL2BA5HkhjNcVpyI5FKAfWAUp6B9/yTTGj0BnTywLrrZF6vQG4IaTS3dGth/4F4kxkhEcrNjlEjvYt0Cn9qS0LEO/uIf4uvWzojZxff0X8+9ZcvkYSCoXILDhaQd9bA+iZFS5A5xmoA3YJpPOpSjo3EDg3xFWKii9GErQYcTgPnYnTZ1jSBsgOUewForlMQ46tKnmbv1TaAochdQ1i38fmMgn4KX53cTSyAn7mUb+ssTZ6/mgz8B9lsSfu1f+azr/BdhxXQrdoym9DKW60yEu438O/eNJtMJKnO2156T9BznHL1Zs/NJshlf58pBF3kY+BQ/Bj3A5X0nFND7pllRfQu/fTkOfSBwegW3jrUk96tsifFBV/GzsrjUkXdCbdvZX16osYFVoWspa8AuyP+ar4oh+yu6jhFKUp7yLpkDWpRlIXu+r2c2W9ssxh6N73ucAxivrVIAnXND9o6oDVFHVslQHo5QNfCKwfSnGjRTSq/81H70u4I7IjlKYFoBYpFzpc6RqNwvRAznSnEf/+N5XH0fXzuENBp/8o6pN12uPHt2QEMMhRt2HAGx50C1rJ8CZFxUN6jRstcwPu9/F5BT2qgaPQzyjpIvOAGwloXRvL0AnJMpim52IxUvCqj8L1HaWgzyziJbBJI8fj574vAv5OcccCNUjEkq+S44sJeATUGXnYNBSfiJW0TAMf4n4vL3DUYTvkKCj2xJ6TmUhiDo0J3tChHbIVm6b0zrOAc3GLG19ZSZfNHXQoN9qgUxugNfkUyYB7HJLga23kQ2EIsAPwM+Af6BR+ak2CRoEco6j4PiEVN1qkFzpW6TYl9r8m8LBC/1oyFTl+6F7i9Rj+qUYcqNJU4OlL5Eu+VL8Q1xrwDUjpaGMJ+xD/ufAt0wgcffSqkuJPhlTayMsBuN/LeRRfRrMnko89LR7fXwG/wDz6s8bOSNKl2M9PTt4Gti/hOv6i0PfjJfRb7vyT+M+ETzlcb6gKs66S0nWY419auB73+/lsEf21B34J/KDQr4Z8jmSzjF0H3HBjM2QnyccZaynyCMVVMj1coc+ZWDRVc7oj6bhjPw8+5CHFcUrEtUqKB/VYNFrlfdzvZ9KKZPsg52axX5wGZOE/iTDZ3oxwbAw8SvznqwFxzrqeZMdJKyn1OSz5UFUMO5O+HCKuMoHAWXPbohOOs5jyqH9eDvRE58XYskA/qwOPKfSjIV8AJ2MLf7mzOfA08Z+3BiTO/xgK+wdoODf+qshxqhTOIP5zoCUzEIfDoOygoHgDUnHOSAf74n4/55B/Me0IXEw6Cr98iWTts63+ymJrdDPDuchrtF4r488KfTxawhhVCtcR/xlwlUXArtoDkwStvP87h1bcyMs1uN/Pp/K0vS+Sozz2C/MNUmzDFv7KZkf0HJhdpA4JHVuhBR0PVmh/BhJ3bixLNfAv4j8DpcoC9LOtJmZcAgULyUQsfWqaeBP3e/qbZm2ugXgjx35ZpjfqZl79RlN2R+e5d5XvkaOopot1b3ScGM3BA7mjlgAAIABJREFUOj81SNx87PtfrMwDdvMwHolYI4GCSSSps5jhn47ohOBt3qS9S4i/3T8H+D0Wx2/kpwpxSH2P+BP7O0h56xwaSblO1BikMqYKmSNi3/ti5DovI5GQM/MoVYwsRop8GOlga9zvaS796H5I6dSYL8hCJKWxleQ1klIFHAR8RNxntx5JL7siOmm5/643RGXNUaSr3khr8qqnMUjEs3mUKkaeC6610Rpn4X5PPwSeUGjHReqQYioDVUfHqCTaIF/NvlO2FpIZ6ByfjdMdnrJmTdKVgjyfLCLScWYbpByi6wX8IrTiRqs8RPyH2lWeATbQHhijYukM/A45Ror9bLtIPYFjxDNOe6SWicY651OiONBvUKKyzWWN0IobrRL7a8dFPkK2bg3DByshnvq1xH/WS5U91Eel/OmH3Pe0Jg262N+l5+fYEpVtKuODa220xqrEf5hLka+Q59HCnIwQDEVqlsR+7kuRSzyMR6WwIeJHEduhubm85PGa83Jzico2lauDa220hkbe8ZAyGzgfC+kz4rAL6YgYKEaKqc9htEwfpDKoRmSGhsxCHFeDouEgsVdopY1WyUpGrDrEEu/rZRQMIznVwE/JTmGZmVjOFU0GIUXMnkRSO8e6rwOTKKtlJXRgSaiXC32Bb93VMZQYSeH8/bF5Fcnf/WZsRQyjCR2RsOhfA10i61KItbCIAF/0R/zjBiBZHVdAHC8XIh778xAjbALwCVIE7RNgecd+9yJguueNcLdYvgilrJGIatId+/olckQRfKvLMIqgD/BX0usw1gAc5u3qjVL4L+739NdJOtLa+llVoQ37gksXg5Fwp7QxH7gCWAe4B3nYDSOtfIc4pG6KFPlJIxvFVsBYincV2hiS5Je0DIABCm28pdCGoceGsRVogfuR7cqzkd0Jw8gKbyPHaSch+f3TxMaxFTCWQsMAWCfJL6XJABit0IahR5q+CsYhHtYHY0dFRnapR+LHBzf+rI+rzv/YEDtKSxMfKLQRNJ3+f3A/s0i0ZWEEQ+McylXmAhdiJXqN8mRD4BXiv2cNwOqer9VITlfc72cdkp03CO8rKJx2T9lKogopkxtzQhqB5e03yp8qpNjMt8R93w72faFGUWjMv8HCon9wVHRaKEWNRGiVdS5FxhOxnrVhRGJ54HqkGmqM9+5eAn4xGgXRyKsT5Bi3jYKib4dQ1EjEVsBEwk9AC7DtfsNYH3iZOEbA60jVOyM+GkXYgtR56Kag6MMhFDVapR3we+IUNnkR8e43DEOOBY5GdkZDv4tzkEgFcwqMy22438ujQyjaT0HRO0MoauRlbeLUuv4BOB1LRWoYLdEbmRtDv5cNwFNItUMjDlfjfg9PDKHoYAVFbwqhqLEMVcAJxKlvfR8ywRmG0To/Aj4njoFuWQLjcCHu9++0Qp1ofHlpVF6bp9CGURz9gaeReOSOAfv9lCUx/VMC9msYWeVxYF3gRsLmDlgeybZ5OxKaZoRjpkIbHQr9QloMgDkKbRjJOQRJvLRTwD7rgGuA9YBnAvZrGOXAbOBUxEl3TOC+f4KEem8duN9KZr5CG0EMAI2vRzMAwrA8cDcS8tM9YL9jkcnjF9huj2G4MAoJ77oQqSgXioHA88DliMOw4RcNJ8yCEVUaBkCtQhvmBOafbZCv/sMD9lkLXIZMWKMC9msY5cwi4CLkvXolYL81SJW5UUjde8MfGgZAwXVVY+FdoNCGxX77owrxtH8WWDlgvx8CWwDnoPOMGIaxNB8hO2snArMC9rsR8A5ylGj4QWNtLrjbqpH5KchZhVESKyBhRLsH7vfiRlkcuN8krIxErqyGHIN0wTKgGfmZhUTJTEaKUn1C2K33QjQAtyKOgo8iiYRC0BU5StwS+D/SNSblgMYOQMG1WWPi07jxdqakzzAk1G5g4H4XINuTdYH7zUc34ABgZ2B7oE9cdYyMsxB4DSmW9W/kKzwNTAYeI5wBkONUxAg4GInwMXToptBGEH+rQbjHK94QQtEKIbflv5DwccMN6NSy1mAY8E/ECo4xDiaVIW8Cx5KOj5gfE28cZmIFhTS5Cvd78pNCnWicM2gcAVglQB16IKWZryXehPRxpH5zbITkN3gDOBQ7XjL8sgmStnUCchYf06E55m5E7kgg5txTTmhEaRVcmzUe1rkKbayo0EalsxnimLNXZD3GRuq3C1JN7Q1ku98wQrIycDNyPLBhJB3GETZRUHNyu48vY6W8XdEwADSSCSXCNZXs6FCKliFVwBnE2/JvLgf5vdwWWQeJOoh97SYmDYjz66+JU1DnsxL09SHTgX08X2s5MxL3e7BeKGUnOCo6NZSiZUYX4AHiv+xNZV2vV7wsB2Ln/CbplHsIvx3+uJLuGlKPVBi1PC/F8wXu479CKGVfdFS0HssFUCyDgA+I/5I3lcWEvY8nEad8sYlJUnka6Ew4NJzHtOUJJAupkYy2uM9rC0mwA6VlmX3t+PdVWHhWMeyEnHWH/touxETCxQP/GKkiWROoP8MohZ0Rx9xQhnEsH5zW2A3JHjg4tiIZYWXc57VvEEOgVdJiAACsodBGJXAGYlH3iK1IC4SafH6EVCiLccZqGMWyA/A3wjyvaTQAANZCHCR/FFuRDDBQoY1Ea3KaDIB1FNooZ9oji941pDdz3bgAfayMZDdM6xgYRkscDvw8QD/jA/RRKssDI4CzMeO9NTQ+hr9M8ktaBsAXCm2YAZCflYAXSJDYITK+M4HVAP8CenruxzB8cCWwgec+phIw/KsEqpECYfegU0m2HNHw3k+0E6RlAGgkoDADoGU2RM7PNo+tSAImeG7/JGC45z4Mwxftkbz9vr3iJ3puX4NDgVexfAEtoZHOOehRUBskB7yL1+K0kApnhMOQfM6xvXiTygA/wwBISMv0FFyjiYmrHItf7kvBNSaVaYiPhCFUITs4ruM6NElnWpZoLe7nvz2Bvgq6lAM1wNXINtlyAfp7UqGNhUhBEl+cgU52LMOIzfn4zQ+gsRN3N5Jcyzc9kfnn+AB9ZYEBSFplF+pI6AuiuRU1RqGNLGxz+6Yj8BBwZoC+FiAL60UKbX2GvwqAXYFTPLVtGKFZBXEK9IWGL848pKDWrQptFaJtYz/XYUmDNlNo41MShmNrDraGtbiFQhtZpjfwPGHy+Y9HHrbrgP4K7fk8dzwMSyRilBcnemxbYwdgZeQD4UTgGMKUlj0NifCp5KRwGmtgYp88zVAqMwDcGITE94fIh/AQ8lLPaPzvAQpt+nQAPFK5vfnIWD+LHFtoVLQ0yo9qJEHZRsC+6DqsbQ6siZ+wPY0dgFWa/Pt2xBH5fvwnHzsCWBWpI1CJfmFbK7TxukIbRbMK7o4LC6jM8q1bIA+7b4ebBcDPWuj/GoW2T1MZiWXpi6SK1hqDv2DVJ43iqUGc9zTf07M96VqFu/PwrBba7Yz4BviepxqQI+UBGoORIbqgk9p8u8B6/w+NAgZbBtc6LgcQxtP/U2DjPDr8W6H9PZxHomUOV9CtAXmxjvGko1E5DEIcnjWeyWc86jlGQb98TrcnEKYA1zfkn7PKkV1wH7PFhK09sRQa1uE5wbWOx+mI45zvF+lBWj9Df12hj0RhJyVwi4JuDcAvPelnVB6DgO9xfybnIQ5wPnhCQb/WEtJsAHyi0EchmY2/j4u0cSXu4/VucK2bcHIepYqRl4NrHZ5qdLbdC0kdyeqS5wpHuEi3UgejAK8o6PY6lnrU0OUEdN7RNT3pp2E471mgj+5ICJ/veawWSQJW7nyI+1jdFFzrJgzNo1SxNzuNhW606IDOlnshmUGywhvtcd+FmLFMq3pMddStAdjdo35GZdIGnSPPvT3pd56Cbicn6KcG+INCX0nkcsrXkB+AzhgdFVrxplSjszV2aGjFA9EdGIn/F+VjkpfeHKTQ3wdFj0Qy2ivoNgO/SVeMyuUG3J/PJItsKRyloNvvi+jvcML4Mt1BeRYCOwmd8Vm5mE61ky7UI/mdXSnHkpF9kBh/306OTyDx/UkzMxb1wORBoxhUS3RRaOMDYJFCO4bRnHcU2tB4xltC451cpfCv/I97gK2U+m2No5BUx+WWK0Bjl3IMCasA5vCRdelFhTZ2o7wyQq0CvIROkYd8NABXIEmEiqkGlmYDoJNCG1MU2jCMlvhGoY00GwDFzg3vINkDX1LouzX2Q8oKa8wPaaALsLNCO0WndPexyD6q0EYvxJosB9ZAHBt9OfuAhOQcgcQVF5uOtxgrPx9FWZ1FUKPQhn39G75YrNCGrw+dyciOrAulzA1TgJ2APzv2XYidgacpjwyhe6NT8yUVBsDH6GSFO0yhjdgMRaxhjUU2H18i2aP+WeLfp3kHwDCM0lgEfOvYRj9KWyMWIwnHTsSvAb4F8AJyvJplDlZoYy4lRND5sj5HKLRxEP5iZEOwGfJw+sw69yawKfC2QxtmABhGeeL6XrbFrULrrcjZts8oofXx/5Hlk27ArgrtvEDCAkBNSbMB0BPJjJRFtkeyfPkMZxzR2I+rla9hAHyl0IZhGLp8rdCGa6Gw/yLHuZ8r6JKPNfF/zOqLfdBxaHyslD/yZQC8DPyg0E4WjwH2QG6GL+cegNuA/ZFtH1dcLPwcrkaIYRj6aLyXvRXaGIMUP3pLoa185BytN/DYhw+OVmijDsn2WjS+DIBaSnBIaIF9gI4K7YTiUKTSnoZDR0vUA78CjkfG2JVq8uf7TspsdAwRwzB00YhS6KXQBogxsh06u8P56IPsOAz32IcmqyG7uK68CHxXyh/6DLV7RKGNzug4SITgWOAu/PktLAAOAa5SbLMH7p729vVvGOlE493UMgBAPhT2A25UbLM53ZHogCxEkf0UncyG95f6h74NgNkK7Zyo0IZvfoI4vGiErbXEdMQf4t/K7Wq83BrnjIZh6JM2AwBku/pU4AzcwxTz0RnZgd7WU/saVBN5+z+nhC/m4aBYEzYn3ec6RwF/xd9YTkDGwEeRpBUU2ihp66kM2B4x+sYg/i6FUnTOBD4C/oYkuionNgSuRiqRTcF/OtgksgCYBDyOpFktl6QxxZCmI4DmXIdEes331H4n5CM0rccBu6HjgP08KU52thM6L/PNoRVPyOHIWbyvSew1dBbpfOyvoON1HvVbTUG/UvMj5KM/8KyCXi83Xl+W6YqUAK8n/oJfSL4GDlC+/h0V9LpUWaem9FPQ73GP+oHE8k9X0DOfzEBCstPGCHSu7/jQihdDNZKoxvUiZyOTTZo4EEl44evBfQH/16xRgOJsj/qlzQBYB1lItO7xNGBjRf1C0hud8qUhJedEq0XaDYA2uFf69Om5n2MIkrnQ132fgeRLSQtr4H5fGpBddqdMiL7z7dcjRSJc6Yx8baeFA5CFxVdVqv8gW0SzPLWfw44AktMdsdo1wiZz9ETuddYymbVBjveGxFakSKqQ0rX7xlYkELWIkemCzx3IHGOQ8/rPPLXfDfEJSIuxfSo6a+99+E2ypMK66FhxY0lHgaB9kPSWvqzVOwlX7vJaBX19Vm5M0w7AVQq65JNblHQMhVbp0ljyFTrhxWnfAQCphumiX8gQ35UU9G1Nvkf8VWLSDfmw07ieLEQ6AFIlSuOCY1vueyLpFn09oDcS1si5W0Fnn1traTEAOuG31vliwnxpafEJ/sYilByrMA5ZMABeUNAxpANlD8T3ydd9n4bfqqyFOCOPXsXKWA1lQi02Wl84Zym1Uwq7I2F47Ty1fynwc/yFxrSEhofvdIU20s5O+EvuBLLj43MnRZN1gNVjK6HA3rEVCMT3Cm1oZANMynTkfXvGU/s9ESfe9Ty13xptgdOV2rpNo5FQBsBd6JxVDCfOtsfOyJmnRs7m5jQgjknneWi7EBoGgMYEk3bWDtDHWgH60CArehYixD1NAxoGuq9QwHzMAfYCHvDU/gqIEbCOp/bzcQQwUKGdRchRsTOhDIC5wO1KbYXeBdgSeBjo4KHtOuAEdLP7FYPri11LBpxQFAhRc9xn4ShNyqH+OrinwM4KGgZ6aAMA5Kj1ECRvhg96AU8RropgDfAbpbYeBKZqNBTyvPlP6Gxv70k47+N1Ec9vH/UI6pAkQipbOSXieu6cS4BT7qi8bAXISjRFiLEIQWqTpyiTVQMAZI48Dkm45YP+iBEQ4voOQq9a4TVK7QQ1AD4FnlBopwr4rUI7hRiIPBw+vhRyi79GiGSpdMX9SKMStv8B3i+TPjQYHVsBJbIy3q5k2QAA+cA4CX/J4NbCf/XWKuAcpbZGAm8otRU8rE6rCMRB+PXkzG0PreSh7TokB3TMxR90tpwrxQB4Eb/OjnORAiZZ4HPg7dhKKPBQbAUCofHcxj72aQB+BvzZU/vDkOfBh48XSAGkoUptqX39Q3gD4ClgnEI71cBFCu20RBdkp0Jru6YpdUgFqLs9tF0sGhava5KRrLAYuMJj+1chjk9Z4ZLYCjgylsoxADSM9M4KbbjSAJwC3OCp/R2Bf6Gfg6UGuFiprc+QxGGZRiuJSD36Mejt0cnz3pLUIl6gaWE47tfky0EnR1ryAIA8G6MU9Gku75HNQjX34uc98S0L0MsNn4U8AEMUdPT9nhdDFWIE+Ho+tI8afqKo22nKukWhPXp5n59S1KsaSa3o46GqBX6sqKsGu+B+XarbUS2QJgMAYEWk4p3WczEWGKCoX0g6IulVfbwvvmQeugWBsmAArKyg432edSyWKqQIma/nRGuHqz1SkVJDpx9Ix06MClrZkBqAbZR0uklRp6aSxsUfdCoB/s6zjmkzAEC+1q/HLR10LeLZ3E1Zt9DUAOcixbp8TcZaMgrYSPn6s2AAdFPQUcN5W5sqdFKZ5xONhD2nK+rj5cg7VM755tyKeEVqeJdeCWyODFKpXAicrKBLc+qQLaC7PLTtioYPwGyFNrLGXGQr7o9IRcitkAJBbQv8XS3wLfAqkuDkU486hqIOWcBuQQzKHZDQKh85M0phKvAxcm76Im5zRFaZg1x3lUMbafzybEA+JEEvu15TrkH8J0qdu7ug5/k/EzF2yorfoGcdHemgx88U9Wgq9ejkG/fFKbhf44medUzjDoBh5MjCDgAsMQJKlfcC6FgqVUguFR9z+CIkC2wpXKGohy+H96h0RUJUNAZoMqU5Uu2OfJn5eHj+rwR9QnI27td4mGcdzQAw0kxWDIBvHHWcEEBHF2qQ99zHPD6T4kP4VkOcTTX6n4HHrJUxy+vOQi+kox/FL7hDkIemRkmHplyKHE2kGY1tvUo8AjCMrOH6nqbxCKApucRqj3louyvwCNCniL+5Gr2cAtciDoBlSQ+WpJN1lbmIx2sS+gJfKPXbXHwlq9BGw4t2W8862g6AkWaysgPwlqOOcwPoqEFHlvh6aMsoklUE1XgmcvIDnpMwxdwBADkC0Eqw0hG4LMHvLYc4BSU1ForhXuRsPQvYDoBhVAau7+ly+Nkp1WYeUkXQR6bKzYG/07ozZRt0nfWupQKKrXVA72u8HvFEzkcVkoLXh4X4NP5SSfpAI+eB77rwtgNgpJms7AA8oqBn1wB6arECMAY/83xr9+tMxX6+w299AiD+DgCIs4SWl2MVUm+gXZ7//xL8OK6NBPZFSlhmBY0dgKxsDRpGJaPxnnpfjBSZhiQ6+8xD2+cgod3N6Y+ut/5vCbDDmgYDAGRrZYxSW2sDZ7Xwvx+NXlxmU95Dtp3meWjbJxoGwHyFNgzD8MsChTbS7gjYnK+QEL5vPLR9C7Bds//tOvSMpI+Avyq11SppMQDqkLwAWpzL0tvT2+CnpvRnwG5k85xG42HVmFhao1ahjbQkpTHKD41nS+MZL4TGzmSWdgByfArsiX6hrXZIMq/Bjf+9J5IIS4uzkDXRO2kxAABGAC8rtdUBSe0LYgg8SP5jgVL5AdgDOavJIq4WfQP+jzw0Xty+Cm0YRktolAsP4UirYahnsWAVwDvAwegbWj2AR4FV0K1Q+Dx+whkzweaII5+WI8UpSCpQbUeQBfgPgfPN57iNQYjt/7aIJeyi5zyyO3kZ6eZ23OeS4wLoebmCnjsF0NMnx6G/DjQgiYK02qpDv15F5rgDPzdKS+pJV1nfUvkKt3EIlZzC1VBpAA4PpKtROXREnM1cn80dA+h6oYKeuwXQ0ze/I/760Zrc7u/Ss0Mf9JID+ZDz/F16UL7DbRy+DqTns456NgDjKFysxzCK4Tx05pNVAuh6joKeewbQ0zdV6Oza+JDpQG9/l54tTiP+DWlJgnhmBsK1DsPEQHpqbF82oHtOZ1Q2w9HJ9f5tIH1/oaDrvoF09U1b4CniryXN5SSfF501aoB3iX9Tmsrz6DsSxmQWbuPxUSA993DUs6n8gXQ5vhrZYxukzLDG83h/IJ01Kp4eGEjXEHRBwrdjryk5eYtsZFoMylboOgS6yGiylQkrCXNxG5N3A+nZWUHXpvISsFkg3Y3yoQfwR6RErNazGKpc+DEKuh4aSNdQ9Ae+JP7aUgcM83yteWkTq+MEjAT+gVR5isk3yFforMh6aON670PEL4OEAj4GHKTU3tbAa8gOxrOIk6F2nLBRHrRFfJKGAdujm+p7MfCQYnutoRFTnua1ohQmIwncRhI3SuhW4M2I/aeaPkiSnVjW2QIkNLEccd1deS2grprHACYmaZAHCceRCvr+JKC+ITmIeDvNU5CdpWik/Tz0O+DXEfv/OWEXulDU0HpVqyQEyVTVyOPA2ID9GYZvrgrYV71CG+W2A5DjfuDiSH2fjjhjRyPtBgDIFskzEfq9AbgtQr8h0HiZNSaVpDQg56+GUQ6MBF4J2J8ZAK1zIVIdNSSPkoJKpVkwABqAEwh7TjsS+FXA/kKj8TKH3AEAKRj1TuA+DUObBsLvapoB0DoNiEPm6ED9zSQlYX9ZMAAAJiEFfkLwBVLYYVGg/mKQRQOgHolnDrnzYBja3AG8GrhPcwIszBxgbyTE0zenI5lYo5MVAwDgRvSKBeVjPnAAYR6CmGhkxYuxEL+IJfQxsstXiBEbGtsBSMbn+P/4exa402P7RZElA6AeKejgqwhNbhvoLU/tp4ks7gDk+A3wdqS+DaNUFgGHEa6GRlPMAEjOSOBkT23PQtaYBk/tF02WDACA8cAFntq+khQ4ZQRCI+tUrK34+Uj87uRI/RtGKZyK/x3MfNgRQHH8DXjYQ7uXIUfMqSFrBgDI9ol2EppFwPXKbaYZ1xBASJEVaxgZQOOdM8KwAbCzh3YPJmWGVBYNgGvQH8R2SDyoZqavNKPxRRArd3VHJISmf6T+DaMUbkDqCMRA410NlfkzNj2BB/CTHXBD4ua1WYasGQB7IedoPhgO/MVT22lD42WO9excAWwUqW/DKJW2wD3Eyfym8a5WggHQBvkQXM1jH78FhnhsvyiyZAAsD/zZcx9HEsdLNzSLFdqIsQOwPXBKhH4NQ4N+yA5maMwASMa1yBzjk/ZIWflUVP/LkgFwPfIC+eZKJPd8OZPFHYAa4DrsLNXINkcBWwbu044ACnM04T4uNgPOCNRXq2TFAPgR8nUegmpkq26dQP3FQONlDm3B/hQYGrhPw/DBFYH7sx2A1hkO3BK4z0uAtQP3uQxZMAC6ATcH7rMrUq1r+cD9hiJrBkAV5Z2a2agstiSsQ6AZAPnpSxwH8A7IUUDUNTgLBsDlwMoR+h2M7ASk4qxGmVrcw/hCjsseyP0wjHLhzIB9mQHQMh2QeP8QR8stMRw4JlLfQMpiEltgE6QQUCx2R5I3nBVRB1/U4pYSOKTxeLSHNj8EnkPSf8710L6RfdoCvZF5aAdkwdBiDyTk7HvFNvNhBsCyVCGVZjeNrMdlyG5z1LLAaaQaeAP5Uo0tx3u+1hjMw21MQlXm66yga1N5HhgWSHejfOiO7EYuRO9ZPC6Q7sco6HpoIF1DcRHx15Wc+I5uyyQnEf/G5KQW2Mfv5QZnNm5j8mEgPfdw1LOpXE42jr2M9LIVMAWd5/HfgXQ+RUHXAwPpGoLDkFTmsdeVnNQRfyciVfREKvLFvjFNZS4SvlEu/IDbeHwaSM/LHfXMSSWlejb8sjE6u1LfBtL3Fwq67htIV99sCywg/nrSXN7EPk7+x1+Jf0NakinA6h6vOySuXzGh6lk/56hnAzCW9Pu7GNniXHTmlFUC6HqOgp57BtDTN+sgZ+2x15F8EupIKNUMJ13bM83lI+Kk89Tma9zGIYTzEkj1LNd75it9tFG5dERnl3LHALpqnHfvFkBPn/QFJhF//WhNphJ4bUnblkMVkipTK9vbLKV2mrI2Ejqi6REcA1ev3uVUtGidtriH6MwHHlHQxTCaMg8YodDOqgptFEJjrtIoIBaLTsi9GqDcbj3iYDlVqb0VgN8ptZWItBkAB6N7zn4U8EfF9nJsDdxB+savGFzrAYRInNEF9zEejYX5GX4YpdBGiGRjGgbAIoU2YlAD3Iv4bWhzFnA78EvFNk8A1lBsLzO0Byait53yUGO71UicpY8tmyv1hyEYo3G/ft9GwCoKOj60TKuGoYNGhMpFAfS8RUHPTQLo6YM/4Wfuv7VJH1Xo+Crl5D7lMcgEGp6qOZnF0tkDOyJelj4ehFQUdSiBV3C/9m6edVxNQcd/etbRqFx2xP35vDSAnn9X0HOtAHpqcz5+5vxnWTaJ2proRRfUEygsMC1b2D2A8xTbOx/4ssl/zwP2bva/aXE1Uqgma8xRaCPrfhCGUQlovKezFdoIyan42V0Zi+REaH6EOh7J6qdBFeELRkXlavSss/fJH/I1BJih2FdOaoFD3IchKA/gft2+HZhsB8BIM1nZAXhUQc+uAfTU4seI06L2PD+N1s/n2yFRYlr9/chtGAqThh2AgcDPlNpqAE4kv4f7GOBw9D1aa4A7yVaojIZFn6VJwTAqlS6Of99Adhxp90Yc87TXtoVIMqRPWvmdRegeCV+O56JraTAAzkXPmexu4LUCv/M4fs7t2yFf1Vt5aNsHGgaA68Rod0fNAAAgAElEQVRiGIZ/XN/T+WQjDHA74F/oJ/1qQJL0jEzwu08Djyn1OxTZzShbVkGvuMZcisuqdZ1Sv81lJn5CTrS5DPdr3d2zjnYEYKSZrBwBTHDUMVTKYhc2wD29eT4pNjZ/dfTWtQl4zGIaewfgPOTLWYPLkKxxSTkT+I9S303pCjyJpJ1MMxpOgHYEYBjpx/U91ZgrfLIGMuf6yKlwP3BBkX8zAb0Kf4OQ/Dhlx0DkzETDSppEaZnpOgPvKunQXL5svMa0chru1+i7TLLtABhpJis7AK6Fi94LoGOpDEDmWh9z+IuUHkHRHXEa1NDjQzx9rMcskHIOy8ZSlspvkHOqYpmDeFqORBYbTfoDzyDnUqEK5xSDhlVfyT4AA5FwoC2BFSn8LNcC3yHZ4x6gdWeirNEb2B/YAViJ9ISHfg98jOz0PY9MppVGW9zTdqc1BHBl4L/IXKvN+4hD4YIS//4H4ELgBgVdhiAOiA8qtJUKBqL39f8O7tbRIOAbJX2ayyf4eUBdOQj3a7vQs45p3AHoDNyE2/Nbi1S8DJEG1idtkO3ROfh5dzTlDfSz2WVhB6CHgo5PeNaxFFbG3bchn3yKFA9ypQ2SH0BDp7fRq5ETnRvRu1lajmjr4ydHQANiBDTNTJgGdsf9uq7yrGPaDIAVke1QrefiY/QLlISiI/AUft4XXzIf2bXRIgsGwAAFHe/3rGOx9Mff4v8tuiXfj1DUzbfTdRB6oPfF8IKyblvjfl6WTyaQLiNgK9yv6S+edUyTAdABeF1Bn+YyGtlVyBJVSL5yH++Jb1mAlBzXIAsGwHoKOv7Ns47F0B/5oPLxbMwENlLWtxo5w9fQ7xVl3aJEAZyMlGfU4ByldnK8jHhcupbKbYlBje2HKP+ZBA0fgJ4KbWSFM/GTn3socLaHdn2yP3KElEXaIwtaTP+nkGi8o2nxAeiP+HJofqHnWITsDr2j3G49xUcR5GML9IzXKLRDHOI0rCGfNd6PRm6cDytzIunY9h2E+7W86FnHtOwAtEMcynw8Dw1IDoss7QK8jb+xCCUaoVVZ2AE4QEHH33vWMQn98PflX4uMky+qgLeUdL1bU7HQOwCHIl7CGlys1E5L3AH8n6e2V0WOLgZ6aj8pMxTaqJQdgG2RoytfdAR29di+JgPR3yaNwX6xFQiExjs6XaENF/rh78sf4BQkMscXDUiBOg0ORHyRVAhtAPxCqZ2nkfK+PrkKycXsg4HIAz3QU/tJ+AH3ow6fi2KaWL9M+tBgvdgKKJGV8XZFwwCYqtBGqeQW/9aK8LhwPnCLp7ab8jgSieJKO+AEhXaAsAbADui9dCGSZ4D4GNzmqe2ByE6Arwe7EPXItrYLlbIDsEKAPnoH6EODEGMRgl6xFQhElg2A1YCX8DdH3ojfneTm/EGpnRNRyqET0gA4Samdl5GHIgQNiN6+tocGINezgaf2CzHN8e/bURnJgH4I0IerMRaKEGMRgtjb2qHIqgEwBJkbtRO05fgbcLqntvPxMDoJwFZCHHGdCWUA9AL2UWortENKHXAYcvN80AfZ4opRRVDjxa6EXYCPy6QPDbKiZyHGxlYgEBrHdKENgE2Rjzwtf7Hm3ImkMa/31H4+6oA/KrV1qlI7QfgFOh6Qo4mXDakdklLUl1fyXCQtcUg0Yrl9Vj5MSxRAJ+T++Lr3i8mWIaWV3SymHKMwDlmIAhipoGPICJUdkLBDX/f9LqAm2NUsSwf0ss6u66pMqB2AY5XauR658BgsQmKfH/XUfkdkl+EwT+23hO0AJGMu8CeP7f+F7BwBAFwZWwFHvgLuja1EIFzfz/mEqwa4D/AY/gyOfyEh3nWe2k/CAmQd0+BIpXa8sgU61s5U3ItaaNAeeUh9Wah1SLKkEFykoO+PPeqXlh0AkLz9PtKPfkn2HNLaIFu0vt4Bn1KPFHnRIAs7ANMd9fvcs345jkR2wnzd9/tJT/Kn7uhknJ2M40d8iB2A45TauZnSKv5psxCJIfa1E1CNFJvxFYLYFI0dAI2iGVlgBrAX8LVim9OQr56YYValkEuc8mFsRYqkAcnv4TOJWJrogCw2LkzRUKQAPwP+jr8F+mHgcPxkeC2FH5DjV1f6AdsrtOONjujk/V+EXGya6ID/YihX4dfn4RAlHX2Rph2AHP2AJxX0eoH0pIUulS6IQ1Udft8DDZmMlFTVJO07AAMV9PNdCfACBR1bk0cQ/620sTk61/f3wHoXhUbJ2QbSV40qx3LAM/h9gO9Bjh18sIOCfqqpKZuRRgMgx7bIrtQHJNtmnQGMQfJK7OJJp1hsgHg3vwN8h9/3IaksQNJuP4okTuno4brTbgBoLDJ3etKtLVIS2+cz8Bj+5k4N3sX9Gmfh59lW4X50buRuoRUvguWA5/D7IL+Kn3PioQq6PedBrxxpNgAMI+0GwP4K+mmFrTWlM379qBqQbLEdPOiuyUnoXOvhpSrg0wegEzphbZORr+y0Mh85G37BYx/DkaQYg5TbdU0EBIp5qQ3DUKWPQhva0Sn9kbK2PkOen0R8axZ47EODu9GptHhEqX/o0wDYE52tib8TN2wjCfOAPZAHzxeDgVHItp4W0xAL0oVKcQI0jKyh8W5qOqiuh8xhPutJPIAs/mlwGC/EbHSOt3egxNBJnwaARrnNBlLu5NCEeciD59NfoRey03CoUnuLgZmObXQn/VtthlGJaBgAWlEAOyGho/2V2muJe5C5cZHHPrTROKLsAOxcyh/6MgA6A7srtPMy8KlCO6FYhCTyud1jH+2RraNfKrWn8YJrbDUahqGLxvGcxvxwDFINr5tCW/n4E5KTJC2hfkl5HvhWoZ29SvkjXwbADugk7dGIlQxNHZL58DqPfVQjzjk34p7W8kt3dbzl7DYMo3Q03kuX+aEK+B3i7a9SvS4PlwE/x/04MwZ1SIZCV/aghPXclwGwq0IbdfirwuebBuAM5OH3ySnACCRLXaloGACrKLRhGIYuru/lYiRvfSl0Qha23zrqUIjfIGXbs4xGWurewGbF/lGaDYCX0NkaickFLCmE5IvdgdeBtUr8+y8UdFhZoQ3DMPToCKzg2MZXlFYxbyDi6X+QY/+tUY989YfImOqb15GcFa7sWewf+DAAVkcnXC2L2/8tcQ1SetJnJMOayENU9AOAhFm64ssA0BizNGYBM8oDjW1tXyVpNXblStkd3A54E1hfof981AE/xW+BrpA0AA8ptJMKA0Dj678Byd9cLvwVSdbg0zu1K1Ku+FyKSx+ssQPg6whgrkIb5qBo+ELjjF0jDrwlNN7JYueGU5AEPK47D62xCIkw85WhMBYaKZeHkoLqrI/gntnoreBah2F3dKpAFZL7kDO4JKyj0N/bRY9EMtor6DYD2wUw/HAj7s+nr8qfxynodlnCvtohJa19z2uz0fnATCPtkLS+rmOkVemyJGqQuHLXi7gktOIBGY6E1vh+Wd4nWbGZzgp9+axmN1VBP59Zx4zKpA2yRe76bJYUvpUAjVLfP0vQTx9gpEJfheRrYKOSRiI7PID7OF0ZXOsmrJdHqWJly9CKB2Z1YDz+X5qpSEhmIVxrhjfgryCFxuTyOn6rKhqVx8novKNretLvdgXdChknG6NjBBWSMcCAkkciOxyL+1i9FlzrJpyQR6liZDr+6kKniRUQT1nfL89i4Fe0vgC+r9BPqVEIhbhZQbcGpA68YWiwBjpG81z8xcdrFChrzZHvRCTdru/56wUk22glsBLiFOoyXotIfvyrzu0JFCwkWY39L4XlgH/j/yVqQHwzeuTRY4RC+75K3B6moFsDkiHsOE86GpXD6sA4dJ7Jpz3qOUFBv5bmi87AXQptJxGfpdDTisbOcJJdXy98nFDB1uTM4FrHpRq4mjAv1CRg0xZ0uEmh7ZMUxqIl+uJuFTeV27HMhUbxtEF2OL9H71k826Ouixx1ayk6YQjwkWO7SeUyKvPY7nbcx+78pJ1pbrX3ROc862WFNrJEPZIsaCyyEPs8/hiAHDucB/wBeVhAJxvgagpttMQ3iM5bKbX3E+AQ4CngWSTUKQuVw4zwVCP59DcG9kU33LUBf7udA3A/WmgeAvhj5DjO9/ZyHXAaMhdWIq8gc5QLPnMw5GU33C2XOVTG+X8+9kXOBUNY2A+wpDjHEQrtPag9GE3Q8C0xMUmTvIo/dlXQL1fafDngNoX2ksgcSktmVk5ohGWPS9qZZiKgIQptjCJ71Zw0eRjYHvguQF/7I85/m6GzA6CR/TEf9yLx/IZRLtzise3VFdr4AnF2HIV4p/vmWySL4KMB+kozYxEHUxcGkbAYn6YBsLZCG28qtJF13gC2QPwpfDMAeBGpJOXKIPyd2c1Ckq4YRjnwBeLg5gsNY3wIkpAtxHbyaCQ/SrkmgCuGBiRs2YUaEkZlaRoA6yi08b5CG+XARMRZL0Q65PbAWQrtdMJv2t1rcbeMDSMNXIiE5/pCwwDYAkkv7ptHga0RB2VD+FChjXWT/JKmAaARBz5aoY1yYTayTX82YhVmAZ/HAN8jdQ4MI8u8AdzhuQ+NIwDfNABXAPsgO3zGEsYqtKFxJJ+Yvrg7Lsynsh0AW+NgxEEmtuNSITna1wA0Uo1EicS+ThOTUmQ+ki3VJ9WESdDjIrMQh2ejZTbFfYxHJOlIawdA4/x/LJXtANga9yFhcJMi61EInzsAICGThwHTPPdjGD74Bf53OfsBHTz34cJE5HihnKq9ajMWWcRdGJDkl7QMAI342PEKbZQz7wHDkNSYacVXXvOmTEZikn2eoRqGNv8A/hygnxDvYKk8h3zdapxxlzOzcY/MSpTsTMsA0MisNkmhjXJnGpJyN60e8Ro7QUl4CkmWUR+oP8Nw4Tng+EB9hXoHi+V6JFfM97EVyQgTHP++Bwl2gswAyB6LgVOBI0lfBrs1kRCUENyDpB+uC9SfYZTCU4ij28JA/WlEY2myEKnBcTp2xFsM3zj+fRUJ1mUzALLLXcCOuD8omnQAVg3Y318QB8m0GUKGAbLtvxeS3TMUadoB+ApJbPbX2IpkEI15PVMGwOcKbVQao5A85c/HVqQJoSegB5ExsHNFIy0sBM4AjiK8r0paDICngQ2ROcoonq8V2ghmAPRVaMM8u0vjG2Bn4GLScSYeYwIai2QSuwbbZjTi8hqSXvu6CH33wG8yriTUIdXodgemRtYly2jsAGisy4mYiXvcomv1KkMMge+IG+N7u/erbJ31gMeJH+tsUlkyCTgG3eRqxbIlccfgG2TL33BnO9zvR8HEaVoPa0fHv5+NhXVp8AwwtPFnLDQyQrowGvgRsAlwNzAvrjpGmfMGsvCvAfyNuLtwMbf/XwA2Il3HkVlmjkIb7RXaKEhb3C0VO//XpQbJN15H+K+AmfgrClQKXZCz2LuQc7XYX4om2Zb5SFjfucBg0sVVhB+PeuBywkX/VApDcb83VxTqRCP1bqKygwXQsHaMJdQhBsAoxBO5V8C+uyI1DB4I2GdrzAbubBSQTGmDgYHIuHTGjp+M/MxE5qfJSIXOT4FFUTVqmWHIexeSKUhSrpg7juWKRtioxtpckD64WypWBMgffZAXNPSXwX2ENTwMoxLpgHyB1xL2/X4Rnegvo2VWwf0e3RJC0YEKir4XQtEKpg3we8IfCUwFDg9wfYZRiWyNpFAP+U7XApdghdt8o/FhfecyrXpggIKi74ZQ1GAH4AvCThgNSGWq/gGuzzAqgc5IOvDQBv1EpCiZ4Z/euN+vf4ZQdEUFRd8OoagBwPKIQ1xoI2AmcCLpchA0jKyxCxJyGPr9vR3x7zHCsCru9yxIBsbuCoqOCaGosRSHIIU5Qk8kL5A+72nDSDsrAH9HvO5Dvq9TCe9caMC6uN+760Mo2lFB0ckhFDWWYUXgUcIbAYsQx6U01y03jLRwEOJxH/o9fRqJmjHCsznu9+/3IRStUVB0VghFjRapAk5AQp1CTzATkC1NwzCWZRCyCId+L+cBvyZuVsNKZ0fc72PBTIBaLHJUtB5LJBGbtRFfjNCTTT3irWohg4YhtAPOQ5IOhX4f3yR+Nk8D9sX9Xp4ZStlvFJRdIZSyRl7aApcSPqa4AfFHOAZzEjQqmy2Rypah379apKCYJcVKB6fifk+PD6XsOwrKbhxKWaMguxB+AsrJy8D6/i/RMFJFL8RrO7STX04u93+JRhFopHUO5rz5WJaUNQpSBfxAPCOgDjkWsF0ho9ypRmpVTCXe+9YA7Of7Qo2ieAD3e1rwo1rLyUOjdvFAhTYMHRqIm5ypGjgSGAecjjkjGeXJxsCrwB3EN3YtF0u6GKDQxqRCv2AGgJGPd2IrAPQArgVGIqVGDaMcWAG4DSklvFlkXUD8b76IrYSxFAMd/34Ocl9bRcsA+FqhjaEKbRh6pMEAyDEcmSxvAnpG1sUwSqUGOBnZ2TqW9OxspeldNyT3gus897mGIknZHvfzirTVka901iLumWQ+mY7EKLfzd+mGoc52SNGz2O9PSxIkYYyRGI0QwEdDKtxLQeEGJPGFkQ6qgdnEn5zyyUfAbt6u3jB0WBX4N/Hfl9bkIG9Xb5TCJbjf0xuTdKRV0nEqkqqyt2M7w5EvuzWBNZBUtV0QPbsg5xrTGvuaAnyAxMwuduzXWJZ65IslrdW/1gaeAB4Hfgl8HFcdw1iKzsA5SDKWtKe8tiOAdLGJQhvvKbRRFM8Rx3pdiHiwXg/shCWy0ORa4n+dJJFFjbp29zMMhpGYKiSs7yvivxdJZDp29JomqpCPXNf7ukFoxa9XUFpDfkDK3W7t93IrgsOJfz+LkWlI2KD5Bxgx2BZxVo39HhQjT3oZCaNU1sf9ns5Db3c/MT9VUFxb3kascdsVKA2NmtQxZAJwMPZlY4RhbeAR4j/3pcgFHsbDKJ1zcb+nrwbXGnHgi/0w55PxmKNLqWjUeYglbyDe14bhgxWA6xAfpNjPeqli1TjTxSjc7+m1wbVu5IuECsaSp7FKV8XyEPHvm6s8jHylGYYGnZAv5zRHySSROmB55bExSqcXck9c7+uRoRXP8Y+ECsaUuUgSDiMZZ+E+5hOA1xTacZHFwM1Ikg3DKIW2wElI4rOYz/J3SK0M13bG6A6P4chR6DwfAwPr/T+OS6BcWuReoKufYSgrtsZ9rGcD7RHDa4pCey4yD7gSyyhoJKcacYj9hLjPbi3ibL08cIVCe7dpDpLhzBO439MPg2vdhKF5lEqrjAb6ehmJ8qEjEmbnOtbDG9vrDtyATGYx7/1M4Hwkv4Rh5GNP4H3iz1XNy2RrRBvYTmh6WAWd7f9oZZ37Am8lUDBtMhFY3cN4lBNv4j7O5zRrc31kUot9/6eQjWQtRli2AV4h/vP5DbI13DSipRs6BvQQhXEydLgAneclSvj7akjpwdgvS6nyLeYc2BoaCYGebqHdKuDHxD9TbUAcWI/HQkYrnU3Q2Yp1lcXANchi35y9FNqfRnqKEVU61eisn98TIf5/EOn3/k8iE4E+ymNTLuyH+/jOJX+Cnq7AVegcNWg8B8dihkClsTESy19P/GfwRVqvjnq1Qh8PlTJIhhd2Ree5uTu04r2BTxUUT4u8jpx5G0vTE52JsVBdgXX4//buPEyuqszj+Lc7ayeZkJCEsIUECGsMe1gCCCqi7JtsogZ4FNFhE0UYgRk0OIMzbiiCgMqMCiPIooJkAAFZZRUCRFkSkrAFAtn3TnfX/PFWmaLppZb3nnvurd/ned6nG4Wu99y6de+pc895T3olpTuHOgKNYWfg98Rx438LOIneC1g94/BaZ1d5nCQ5D+Jz/hwXMumB2A0z7Q+Nd9zgeZBy5DnqP7YXV/hax2H7Wad9LhSwjsCpqCOQNzth9SFiuPGvAb5LZauSRuAzWSx4rXjp0ifxOYcWEHge09VOiccYJzoep7z4MfUf1/uqeL0W4AJstn7a50MBG+k6Fe0zkHU7A7cSx42/gG0VXM0k5KMdXnMhev4fgyb8Js5fHjLxY52SjjUWApu6Ha18+BT1H9eVVN9L3QC4knjKrc4FzsQ6KJIdewN/JJ4b/+PUttX2FQ6v/fsaXlf8nYTf+dTTnBFX6xHHrO2k4w9eBywnNsDn4rl/ja+/HXC7w+t7xTvYCIWKScXtQODPpH++lGIuVlSo1o2qZjjkcG6Nry1+huC3ZfTjIRP3GAruKVZhS8YuBI7EnlVtUYxdgWOwNZP3k/ys8f2cjlleeFx8Lqkzh48Cf3XIwysWAVOxjWEkDk3YtSOmrXmXYB3Gep7TjsanE75rHTmIj8vwO7dOC5X0biRXwW0m8CWsUlylRmFFXJJahvgY2lK23E+o/5g+4JBHMzAFeN0hH69Yji3P2syhfVKbfthGKM+T/vlQirXAVdgIWr1OcMhnIdDHIRep3fbYxE+P82sJAauZ3ueUdOcT8kvUd1L2B84jmd25jqwjr7w5gvqP52psNzUPg4CLiGtXtrXYetxdnNoovRuGbVoVU4ewgM052N6xndc65HSzYz5SvT74boz2zVCJ7+yYdCkexHd3tvH4Dw//yTG/rBuKz2MX707VhtiqlFgmCpbiPuAQNIqUlHFYlcqlpP9el8czwMed29qEzzPjYMPF0qXz8DvPFtB1pchEeG/1ez3JrK0eBNzhmGcHsHUCeWaVR/3+pHYh2wqr4+CxTtozZmA7ZQ5IqN2NZnfgRtLfUKpzvAgcTzJL7HZzynHzBHKTykzA5rh5nW8XhEp8E/yeWRSwi3SS61D7AXc65vvdBHPNmoup/3jOI9n3fyK21CntG0LneBt7ZKGtiKvXjI0ceVVN84w5WI2IJOuwX+KQ58sJ5ic9a8F3bso8/B6l9uobjok/QphiKoOxvZE9cn4tQL5ZsQc+x3T3QLne45SvZ6zAJlRqF8reDcLmCL1M+u9bVxfhMwlzPXvaId+fBMhTuvZTfM+9U0Im/6hT0ksIO0t6AjbpzCN3bZ1p+mDPnuo9nt8KmPNH8DuHPaMdmyh2MKrM1tl4bIOohaT/PnWOBcD5hPsGtgk+y/+OCJSvvN+J+J5/TxLwejEKv2eqaWxAcWkd+ZbHV0MnHrGbqP94/jV41nAoPhupJBEzsXOsmmWwedOMvUfTiG8eRwGbbPgtAk68KvqiQ+6tqGhVGnbBRvy8zsEOYK+QDZjilPhrpFNHfSg+3yKmhU48Yp/H50ROo9xyE7bZ0ItV5hsqVmDLvXZO6gBEaCS2jO9V0j/+XcUqbDRiVFIHoBcek5ofCp61bIh/jZpfBm0B8GunxNP8Bv0fPeRVabwZPOt4bYzPkOTpoRMv0xc4mTifLZfiYWz4MK8bEE0CrsN3ZrRnrMJq76e5L8ggbA+NettyfujEG9wgfNf7F4D5pFBx1GPIdC3WG0rLtt3kVW0MC514xDx2sbojeNYf1Aerze41YTSJmIcNPXvWzEjLQGxUMaYyvZ1jOfaNf6OEjkE1DsenTZrDFE4/bG6P93l5QshGgD2T83h+8WjoxLvg8U1vcvCs43UJ9R/PlQRcytKLJuAw4r4xtWOrGo4lmRoaSdoeq3/+Lukfx+5iGbatappfVjr7GfW3a1bwrBtXE/AL/M/N20M2omRcDYl2FZcFzrsrHmU0Px0863jtis+5cXjoxHvRhM3Kj3HVQHnMwz5XMRepGgZ8GZ8lbEnGe8C/Et8IXxM+O68G3Su+gTXhs19KV+fnxgHb8Q+fqCHZruJzoRPvwjnU3440n1nHxqs06bWhE6/Cx7BdJ9O+QfUUHdgGS5/Dio2krQnbsfHXxPtsvxRvY5MPg22mUqVJ+LTzgNCJN6Am4EqSOU9T24/msxUm2FvsFzrxLhxN/e34evCs43YN9R/TecS/O9ne2CqQtG9YvcVi7CKUxnavm2JVDmdVkW9a8TpwFnF0mHoylfrbuoT8TiKNRTO242MS5+qVAdvxAWd0k1S1EcP+0wdQfzsuDZ513A7D5/z4aOjEa7QbcBtxrlHvHM9gn98kyw4PBD6Fld2OrS5/VzETW1OflT0ZPOYt3RQ868YyAJ+6KF3FC6TcSf1KF0nVEpNCJ94Fj8cZwbZezAivJUrXhE68TltjpT1jH+IuYAVg/oBtUuNxMWnGOmw/x0Yc0m5fJfEQcBTZqrbotflPDI9f82ootuNnEufsEmC7cE3p2ln4NOZjoRPvwnHU346vBc86frdR/3FdQDaHKTfAOoUxz2zvfFH5b2w0rNrHLjtjm2K9EUE7Kom1wG+I48tHLb5H/cegFVg/dOINYkt8N/cpj3YimRx9Gj4NimEP6n8hH+2IzWfwOUcOCZ24o0HYbPeZpH/jqzTexG4yPVUc3By4ENvOOO18K43FWEcl5J4j3pqxeQr1Hou7QifeID6Oz34o3cXF4ZrSM4+JcwWsmlba/pf623FQ8Kzjtx4+W0X/OnTiCShtWZvUsGBSMQPb8XMsNmfgy1gVQo9qj6FiNrbSJ9YZ/dXYD59joi8svpqwiopJzne5ufg6UdgHn0a9EDrxTpqw2eb1tmOr0IlnhEfVq6XEPyu7GjtgSxw95kiEig5s6DztPKqJv2CFkWJfSVINjxnlbdgjKvExGhtRSfJcfpjIroEb4te4bQPnXm7vHvKqNFrJXvW1UE7F5xw5NnTiAYzEHj95DOkqLNqA3xJ4V7RA+uEzp+T+0Inn2EH4fIHsKf5GpPM1vGb6fid04mV+3kNelcZjwbPOjhH4fHO8JXTiAfXFlsz9iWwNrccU87Hqh+OqO/SZcjA+x+qM0Inn0HBs0mzS5/Wb2OO3KHk9z1xCOqU2x+DzjPp7oRPPmLup/xivojH2LN8am6j2HunfVLMQD2FluLOyfr8ev6T+49VOSqVjc+RYfMow9xbvEPlGTR5b6Zbih4FzB7/tjKNYlhGxL+JznBtp3fJArNrmw6R/k40tlmB11SfWfHSzpwWbC1PvsXskdOI5MgG4lzDn+HwycH4fiF+D1xL2ud3B+Ay3LieyyRkRGqV8mUAAABNpSURBVIXNk6j3WE8LnXgkJmI3vCWkf/NNM57FOpND6jucmXQsPsfwrNCJ58Bo4EeEmwT7HrBjkJbVaQB2A/Rq+FzCzE4dh1+Blt8GyDcPPFYDtGIT5xrVEOALxL+Dnmeswoa+8ziprxq3UP+xbMNuZlKZ9bFRbs97XG8xj4zc/Et+i+8BeIpkn/WOAl50zPd5GucZZD1Owud4nxk68UhNwiawriD9m3QS8QpWXTPJ/QqyYjg+paVV/KcyG2MT00OPuM3CqghmyuH4H4i/YssMvW2O782/PN4B/p2IZ2ymbAg+PenpoROPUH/gw1ip4emEvzknHSuBH2PXlkaY+NmbM/E5rlNCJ54xOwK/wGdieC3XtY2Sb6K/fvjs/d453gI+4pjn4SRborEUbcAdwDFks4Z9km7A5xjvETrxlDUDOwFfxeZBhBySTDvWYhPXvokVH2vEehvPUf9xXIk6U10ZAnweeJz0zvF7SGcVnBuPWvpdRQdwHbafeK22xP8xRaXxLra6IVPPdBLktUXwtaETD6wPVof/bKz853zSuzjFFsuwDvZ5WEewb43HOCv2xOe43Rg68YgNAI7AvpAsI93z+Ufk4BweDiwkuYO0BusIfJjKtu3si61QuIF4ypc+h9VU36KC/POqPz7r25eRj7ruJf2xipQXYJMlG322f7Xnwl3ARcC+5G8ujkehsgK2D0UjG4yNyv6KOLaqbiXy/Riq3XTgbMKs5V+IFf+Yga0aWFT830dgz98/hHUUYh7uehzrkd+KtaGRXAWc7vB3TiO7IwFjsG+vexZ/7oqWknpZDTyB7QPwWDHeTjWj2g3FHoUOrvPvLMKeL6+pO6NsGYGNOh6JfSGM5TP2OnAiOavJ0I/kJtjlOZ7GtniMvuiDk8n4HLcnQideo3/COqRfxzp8ScyXUfQcs7HRwLOA3cnOPAKvAlpXhU48RWOwSZP3Es/ob3ncQY5XthxK+gc4yzET2x75UOrv9cfs7/gcr51CJ96LEcAB2M3+N8BLWOnVtM8rxftjDfAkcDU2krQbcU7YfQqf9uZ50uxQbIL3j7BR4bTPre6iFZu3Es12vkm5kfQPdh5iNTY79DzsApWnLU3Px+cYXRE68aJ+2KOm44GpwG3Yo5y0zxlF7dGKjcZdC3wZG7UZTnp2waddM0InnrABwP7Y5+5R4vyW3zmeJb4vK72qtacyFOtdb+2Yi1gd8AeBP2P14adjnYQs2hi7YdY7+3UxsAm2xCkJA4Dx2HbV22M3/QnYuZ2VYWSpzxvYTfQ54AWs8NffSf6z5zVX5jxsc6msGo09ttmjGJOBQalmVLm1WCXBS4u/Z0o9QxU7YJNvYpl0kUdrsQvSU2XxPNk50e4ADnH4O1OwUrG16oc9N9wKu7FvU/b7ZlS26qQRvIVV55uMOj8dwGvYI56XsLlPLxd/f8Ph7w/Gjne9E5nbsHM7K5MgW7CRjz1Yd9Mfl2ZCdXgC68A9k3Yitar3WcXJWFWl3D/ziMgabGSg1CF4DptXsCTNpLpxDLbGvV4PY8u/utMfGyUYi11MxmEVIccV/7dNydfjFU+vYI83bmNdoZTh2ByVo4BPkJ1vY6Esw0q6zgZe7fRzDpWNHJyCXTvr9QdsvXts+mOd7O2LMQHYDhtpy/qa+AVYXZyfYx3FzPK4cZ8D/MDh70h93sU6Aq8Uf5bHoh7+uyT1x2bEe2zucyo2XL8RdkPfsOxniM2l8uQZ1t30X+jl3x0EfBLrDBxCus/Ms6CAfbOfi537b2IjCW9hIwevY5vBPIDP5kdHAb9z+Du1aMFG0MYUYwvsJj8BK86Wt1GkNuymfyHWCcg8r2/uXwG+7/S3xN8C7NvJvLJ4G9vbYBFWd2FRMZY7vWZ/bJjzCmwjJUlPOzaZqnTTn1Pj3+mHle4+CvvWmcm65hEo4HPtnY91gj0fCQ7BOnnDsZ3ySj9Hsm6UbUzxdUc5vm7MCtjy3ouwR0G54Tl0fy42ESUrjwPasapsg4B/Rt8iyy3CervLsEcOnSfgtWPDnKVljP3Lfh9e/D3GJVeN5D2set4fgbvx/8bShJUyPhgbGZiEHrOEthbrxLey7vMKNpm4nfd/doex7to8kPfP3Sp9Zoejz21n92LVXbNSkyRVR2A3j7SXZPQWS7HqUSUDsT3YvdauKxShowObEzIVqz4YemLjSGw76BvwKQWtUKQVHdhjlT2Rqm2JPWNM+03sLqbT/fLFJuzbzDRU3EURfyzCNsE6hWS21q5VH2wlwbexbb/1WVJkIVYD/4PNYZA6tGDPfttI/00tRRvwHSpftjgee6QRYnthhaKSWIkN519AtobcRwLHYVX5ZpL+cVQoyuNV7DOlx8DOdgTuI/03+GFsM5ZatGDr0B/EhobSbouicWIttpnIVKwyWl52wRuLreq4HpuMmvZxVjRerMJGzw5GdUASdzRWRCP0m/w4thbda2LieGxY8/UU2qLIf7RixbW+h63Dz9N2yN1pwqovng3cgk1qS/t9UOQz2rARtJOJeyfZYELO2G/GJgmeBeyX4Gu3YUudfogtfUpCH+Bj2HaPRwHrJfQ6km9LsXP0UWz76ydIruRxlmwD7I0Vf9obKygjUou1wP1Y5/J32NJJKUpryd7m2Nrww7BnmfUOwazCHjXciVXG8ijVWamB2DDSidgEQpVGlu68gT2OeqT483lsgpz0bDSwT1nsRParyUlySpus3YLdD9IqhBa9GNbsj8JmDO+J7S9Qqs/e3XrUJdjjhJexogxPY5vnrEo60QoMxqqmHYmqpjW697ANs0olm5/ECjBJ/VqwGgSTirEbdt2I4Xom6ViE3fRvw2pfLOv5XxeI+wMzDKtABXbT7yhGjDXvu9IPm7h1GHAQNn9A8mkp1hEt3eifpPZqe1Kb9bCOwKSyGJNqRpKkdmyO191Ywasn0Wha1WLuAOTNeGx04CCsY6ANVrKnA1syNB0bvn8e24zpVTK+KUhOjcZGFXcs/twBq1WvanfZNBe72d+NVehbnG462acOQDr6Y1th7l+MyWjuQGwWYDf38hv9DGBFmklJ3fphnYAdgInYfIKJaF+D2LRjn7tHgL8Uf85JM6E8UgcgDgOw4cu9WDcfQhek5LVihWle4v3zSl4iJ7t9ScWGY6sPti3+LP2+JRoxCGEJNqRfWhXzGHqOnzh1AOI1FtgDm+xUClWqqt4K7JvD7OLPV7Gb/MvFf9ZzQ+lJX2zVUqljsHXxn8fR82Rl6VoB+yxOL8ZzxZ+zi/+fBKQOQLZsjA1dTsAuSNtjw5mNvtrgHdZNvJuDPSss/f5eSjlJ/vXBtsgdh3UKSjEOm/OzcVqJRWANdlOfVYwXWfdIbWmKeUkZdQDyYTSwRTHKL0QbY/t2D+7+P82FF7Fqcvo2L7H4GvBfaSeRoKXAW8C7wJtYZ3tWWbyBJsZGTx2AxjAU+6ayEfYYYf1OMRhbdtmCFTYq7R3eed/wcqt5f+2F0lJNWFd4ox27UKwoxvLiv7cCq3i3EfCtehtXdCpwndPfEqnHUOxR0wiHv/UQVtBmELbUcUjx9yHFf27m/SOA5b+XPsdgM+a7G2Jfgn0eVxR/X1785+XF/24xVsNifvHnO8RRd0VEMqwJeBafOt9zyM9mOZJtU/GrXz8pcO4iIsEcg9/F8qzAuYt0Ngob9fI4n+8InLuISFBN2CxgjwvmfBpjBz2J1+X4dWh3D5y7iEhwx+F30bwwcO4iJWOxuTEe5/GdgXMXEUlFM7ZEyOPCuZh1e0iIhHQdfh3ZvQPnLiKSmhPwu3heFjh3kW2BNnzO3/8LnLuISKqasSIhHhfQVVgxFpFQ7sCvA7tP4NxFRFJ3En4X0ZsC5y6N6wD8ztu7AucuIhKFPlhVP6+L6f5Bs5dG1Bd4Ab9zdt+w6YuIxON4/C6mz2KdCpGknIPf+TotcO4iIlFpwvb+9rqonh42fWkgo7Cy1x7naRswMWz6IiLx2QvbV8DjwroAn5rsIp1dg19H9drAuYuIROs2/C6uPwicu+TfTvgt+1uJ7dopIiLANkArPhfYVmBC2PQlx5qAB/HroHrtiCkikhtX4HeRfQxNCBQfp+F3Xr6DbR8sIiJlRrFuH3OPOCNs+pJDGwIL8TsnTwubvohIdnwDv4vtUmBM2PQlZ27B73z8O1ZHQEREujAQmIvfRfePYdOXHDkUv/OwUPx7IiLSg8/ge+E9Pmz6kgPDgDfxOwf/FDZ9EZHsuhe/i++7wMiw6UvGXY3f+bcG2C5s+iIi2bUdduH0ughfFzZ9ybD98StMVQCmBs1eRCQHvo3vo4DjwqYvGbQeMAe/c24m0BKyASIiedACzMLvYrwQrQqQnl2Pb6fzkLDpi4jkxyfxvSDfjVV2E+nsJHzPtRvDpi8ikj+ea7EL2JauIuU2xbfgz1Jgk6AtEBHJoU2BZfhdnFcDOwZtgcSsGbgf307m2UFbICKSY1/F9wI9A03OEnMhvufWdFTxT0TETV/gcXwv1FcGbYHEaDJ+u1AWin9rl6AtEBFpAFvi+yigAJwStAUSk9HAG/ieTxcFbYGISAM5C98L9ipg16AtkBj0BR7A91x6CugXshEiIo2kCZiG74V7DioV3Ggux78jOSFoC0REGtAm+C7ZKgD3AH1CNkJScyK+504BG5kSEZEApuB/EVfN9vzbAViO73lzLyouJSIS1K34Xsg7gKODtkBCGonV5vc8ZxYDY0M2QkRE7IL+Nr4X9JXY0jDJlxbgYfxHjaaEbISIiKxzMNCO70V9PjA+ZCMkUc34l5MuADeFbISIiHzQpfhf3GcBG4RshCTmB/ifHy8DQ0M2QkREPqgZuAv/i/wTwOCA7RB/X8H/vFgJ7BSyESIi0r0N8K/qVgBuR8sDs+owoA3/c2JKyEaIiEjv9sG3rnsprkHLvLLmAKw4j/e5cFXIRoiISOW8dw0sxbWoE5AV++K/Z0QBeAbtICkiEq0m4GaS6QRoJCB+e5PMzX8hsHnAdoiISA3Ww2ZpJ9EJ+H7Adkh19iGZm387ttxUREQyYEtsPb86AY1hL2Apybzf5wZsh4iIONgXWE1ynQA9DojDfsASknmfrwzYDhERcXQ8VuM/iZvDzcDAcE2RLhyJrctP4v2dBvQN1xQREfF2McncIArAfdicAwnvDPzLQJfiBfS+iojkwk9JrhPwPLBJuKY0vCbgEpJ7P98ExoRqjIiIJKsfcA/J3TRmA9sEa03j6oMtx0zqfVyGyvyKiOTOMGxoN6mbx0K0XCxJo4E/k9z7txY4JFRjREQkrA2Av5HcTaQDuAzboEj87AbMJbn3rQ34dLDWiIhIKjYBZpLczaQA3AmsH6pBOXcasIbk3qt24LPBWiMiIqkaA7xKsp2A14DdQzUoh1qA60j2PeoAvhiqQSIiEoctgNdJ9gazCtugSI8EqrM7yT6qKd38Tw/VIBERictW2LKvJG80BeBRtEqgEv2A80lmW+fOcV6gNomISKS2AeaR/A1nJXZz6xOmWZmzI7blbtLvQwG4IFCbREQkctsCcwhz83kAG3kQ0wJ8G1uGl/Sxb8cqCIqIiPzDRoT7BtoKXA2MDNKyODUBx5L8ZMxSrAFOCNIyERHJnGEkW2ymcyzAHgsMCNC2mEwCHibccV4GHBikZSIiklkDsZ3+Qt2cCsCLwGEhGpeyLYAbSW6Hxq7iLVTeV0REKtQH+AlhOwEFYDrwOWw2fJ7sCPySMM/5y2MWMD5A+0REJGcuIuy31VLMAc4BhiTewmR9HLib8MevADwGjEq+iSIiklfHYM+Q07iJLQT+E9gh8Vb6GYEV2Ak1obKruIbGm1chIiIJmIgNJ6d1QysAM4BLgC2TbWpNBmJzGG4i2br9vcVq4AsJt1VERBrMCGAa6XYCCtgjiYeAr2Oz6dMqLLQZNl/hetIbISmP2cAuibZYREQaVjPwDcJPZusplgC3A+di2+YOTKjd44CTgJ+R/G6K1cY0tPuiSI+a0k5AJCc+DNyAbS0cmw5sJ8KXgZeK8SqwGFhejMXYt/Y2YD1gMPBP2KTDYVhRpG2BrcuiJWQjKtQBXAp8s/i7iIhI4oYBvyL9b7+NGnOA/Xt5j0RERBJzLFbRL+0bYiPFTcDwSt4cERGRJI3BnsOnfWPMe7wGHFrheyIiIhLMYcAbpH+jzFt0YJsnDa38rRAREQlrfeAqbIJd2jfOPMTTwOSq3gEREZEU7QQ8QPo30KzGAuBs0qtzICIiUrPSnvcvkf4NNSuxArgMW2UhIiKSac1YR2A26d9gY412bHb/uNoOsYiISLz6Y+VzXyH9G24ssQbbKnibOo6riIhIJvQDTgZeIP0bcFqxBPg+cVZTFBERSdw+2NB3TPsLJBmvAOejQj4iIiKAPfv+N9LfdjiJWIGVTT4Amw8hIiIinTRhmw1dDbxD+jfvWqMVuAs4FRXwERERqUofYD/gcrKxlHAxcCswBQ3xi0RF2wGLZNtY4EBsF7zJpL9kbhnwBPAQcE/x97ZUMxKRLqkDIJIvGwF7YlUHPwRMBLYgmep57wHPAzOKPx/HVjG0J/BaIuJMHQCR/OsPbIaNDozFOgkjirE+MABbhjik+O+3YpP0wMrvlsccYG7x5+IAuYuIiIiIiIiIiIiIiIiIiIiISA/+H38LZNbaMzpMAAAAAElFTkSuQmCC;" parent="1" vertex="1">
          <mxGeometry x="655" y="507.5" width="85" height="85" as="geometry" />
        </mxCell>
        <mxCell id="ILMhwKr-gRY-XF_f-1hN-9" value="" style="endArrow=classic;html=1;rounded=0;strokeWidth=2;" parent="1" edge="1">
          <mxGeometry relative="1" as="geometry">
            <mxPoint x="220" y="550" as="sourcePoint" />
            <mxPoint x="370" y="550" as="targetPoint" />
          </mxGeometry>
        </mxCell>
        <mxCell id="ILMhwKr-gRY-XF_f-1hN-12" value="" style="shape=image;verticalLabelPosition=bottom;labelBackgroundColor=default;verticalAlign=top;aspect=fixed;imageAspect=0;image=data:image/png,iVBORw0KGgoAAAANSUhEUgAAALwAAAC6CAYAAAAUECe2AAAKrGlDQ1BJQ0MgUHJvZmlsZQAASImVlwdUU1kTgO976SEhQAICUkJvgnQCSAk9gNKrqIQkQCghBIKAHVlcgbUgIoJlKUtVcFWKrBULVhQLWNAFWRTUdbEgKir7gEPY3b+df96Zc7/Mmzsz950750wAINPYQmESLANAsiBdFOjpQg+PiKTjRgCEPHhgCGzYnDQh09/fFyAyt/5dPvQivojcMZ6O9a/v/6vIcnlpHAAgf4RjuGmcZISPIzrGEYrSAUBVI3at1enCab6MME2EFIhw/zTHzfLYNMfMMBo94xMc6IqwIgB4EpstigOApI3Y6RmcOCQOyQ1hUwGXL0AY+Q0ck5NTuAgjeYE+4iNEeDo+I+YvceL+FjNGEpPNjpPw7FlmBO/GTxMmsbP+z8/xvyU5STyXQxdRUrzIKxBZkbqg+4kpPhIWxCzzm2M+d8Z/huPFXiFzzElzjZxjLtvNR7I3aZnvHMfyPViSOOms4DnmpbkHzbEoJVCSK1bkypxjtmg+rzgxRGKP57Ek8bPjg8PmOIMfumyO0xKDfOZ9XCV2kThQUj9P4Okyn9dDcvbktL+cl8+S7E2PD/aSnJ09Xz9PwJyPmRYuqY3Lc3Of9wmR+AvTXSS5hEn+En9ekqfEnpYRJNmbjlzI+b3+km+YwPb2n2PgBnggCXnoIAiYAxtEzUEA4KTzMqfvKHBNEWaJ+HHx6XQm0mU8OkvAMVlENzc1twRgumdnr8S7wJlehBROz9tSkB5ifED6ZOe8LaYYgLY8JPXDeZv2AQAouQC0dnLEooxZ23Q7AQwgAgqgASWgBrSAPjBGKrMG9sAZuANv4AeCQQRYCTggHiQDEVgN1oJNIA8UgB1gNygDB0EVqAOHwVHQBk6Cc+ASuAZugXvgERgAw+AlGAMfwCQEQTiIDFEhJUgd0oGMIHOIATlC7pAvFAhFQNFQHCSAxNBaaDNUABVBZVAFVA/9DJ2AzkFXoB7oATQIjUJvoc8wCibBNFgV1oUXwwyYCfvAwfAKOA5OhbPhXHgbXApXwofgVvgcfA2+Bw/AL+FxFEBJoRRQGihjFAPlivJDRaJiUSLUelQ+qgRViWpCdaC6UHdQA6hXqE9oLJqKpqON0fZoL3QImoNORa9HF6LL0HXoVvQF9B30IHoM/Q1DxqhgjDB2GBYmHBOHWY3Jw5RgajAtmIuYe5hhzAcsFquA1cPaYL2wEdgE7BpsIXY/thl7FtuDHcKO43A4JZwRzgHnh2Pj0nF5uL24Q7gzuNu4YdxHvBReHW+O98BH4gX4HHwJvgF/Gn8b/xw/SZAh6BDsCH4ELiGLsJ1QTegg3CQMEyaJskQ9ogMxmJhA3EQsJTYRLxL7ie+kpKQ0pWylAqT4UhulSqWOSF2WGpT6RJIjGZJcSVEkMWkbqZZ0lvSA9I5MJuuSncmR5HTyNnI9+Tz5CfmjNFXaRJolzZXeIF0u3Sp9W/o1hUDRoTApKynZlBLKMcpNyisZgoyujKsMW2a9TLnMCZk+mXFZqqyZrJ9ssmyhbIPsFdkROZycrpy7HFcuV65K7rzcEBVF1aK6UjnUzdRq6kXqMA1L06OxaAm0AtphWjdtTF5O3lI+VD5Tvlz+lPyAAkpBV4GlkKSwXeGoQq/C5wWqC5gLeAu2LmhacHvBhOJCRWdFnmK+YrPiPcXPSnQld6VEpZ1KbUqPldHKhsoByquVDyhfVH61kLbQfiFnYf7CowsfqsAqhiqBKmtUqlSuq4yrqql6qgpV96qeV32lpqDmrJagVqx2Wm1UnaruqM5XL1Y/o/6CLk9n0pPopfQL9DENFQ0vDbFGhUa3xqSmnmaIZo5ms+ZjLaIWQytWq1irU2tMW117qfZa7UbthzoEHYZOvM4enS6dCV093TDdLbptuiN6inosvWy9Rr1+fbK+k36qfqX+XQOsAcMg0WC/wS1D2NDKMN6w3PCmEWxkbcQ32m/UswizyHaRYFHloj5jkjHTOMO40XjQRMHE1yTHpM3k9WLtxZGLdy7uWvzN1Mo0ybTa9JGZnJm3WY5Zh9lbc0Nzjnm5+V0LsoWHxQaLdos3lkaWPMsDlvetqFZLrbZYdVp9tbaxFlk3WY/aaNtE2+yz6WPQGP6MQsZlW4yti+0G25O2n+ys7dLtjtr9YW9sn2jfYD+yRG8Jb0n1kiEHTQe2Q4XDgCPdMdrxR8cBJw0ntlOl01NnLWeuc43zc6YBM4F5iPnaxdRF5NLiMuFq57rO9awbys3TLd+t213OPcS9zP2Jh6ZHnEejx5inlecaz7NeGC8fr51efSxVFodVzxrztvFe533Bh+QT5FPm89TX0Ffk27EUXuq9dNfS/mU6ywTL2vyAH8tvl99jfz3/VP9fArAB/gHlAc8CzQLXBnYFUYNWBTUEfQh2Cd4e/ChEP0Qc0hlKCY0KrQ+dCHMLKwobCF8cvi78WoRyBD+iPRIXGRpZEzm+3H357uXDUVZReVG9K/RWZK64slJ5ZdLKU6soq9irjkVjosOiG6K/sP3YlezxGFbMvpgxjitnD+cl15lbzB3lOfCKeM9jHWKLYkfiHOJ2xY3GO8WXxL/iu/LL+G8SvBIOJkwk+iXWJk4lhSU1J+OTo5NPCOQEiYILKWopmSk9QiNhnnAg1S51d+qYyEdUkwalrUhrT6chw9F1sb74O/FghmNGecbH1aGrj2XKZgoyr2cZZm3Nep7tkf3TGvQazprOtRprN60dXMdcV7EeWh+zvnOD1obcDcMbPTfWbSJuStx0I8c0pyjn/eawzR25qrkbc4e+8/yuMU86T5TXt8V+y8Hv0d/zv+/earF179Zv+dz8qwWmBSUFXwo5hVd/MPuh9IepbbHburdbbz+wA7tDsKN3p9POuiLZouyioV1Ld7UW04vzi9/vXrX7SollycE9xD3iPQOlvqXte7X37tj7pSy+7F65S3nzPpV9W/dN7Ofuv33A+UDTQdWDBQc//8j/8X6FZ0VrpW5lSRW2KqPqWXVodddPjJ/qa5RrCmq+1gpqB+oC6y7U29TXN6g0bG+EG8WNo4eiDt067Ha4vcm4qaJZobngCDgiPvLi5+ife4/6HO08xjjWdFzn+L4Wakt+K9Sa1TrWFt820B7R3nPC+0Rnh31Hyy8mv9Se1DhZfkr+1PbTxNO5p6fOZJ8ZPys8++pc3LmhzlWdj86Hn797IeBC90Wfi5cveVw638XsOnPZ4fLJK3ZXTlxlXG27Zn2t9brV9ZYbVjdauq27W2/a3Gy/ZXuro2dJz+nbTrfP3XG7c+ku6+61e8vu9fSG9N7vi+obuM+9P/Ig6cGbhxkPJx9t7Mf05z+WeVzyROVJ5a8GvzYPWA+cGnQbvP406OmjIc7Qy9/SfvsynPuM/Kzkufrz+hHzkZOjHqO3Xix/MfxS+HLyVd7vsr/ve63/+vgfzn9cHwsfG34jejP1tvCd0rva95bvO8f9x598SP4wOZH/Uelj3SfGp67PYZ+fT67+gvtS+tXga8c3n2/9U8lTU0K2iD0zCqAQhWNjAXhbCwA5AgDqLQCIy2dn6hmBZv8HzBD4Tzw7d8+INQBVfQAErwHA9wYAe8uQkRaJT4kCwJ+C2O0BbGEh0bn5d2ZWnxaZQwBUdJuxbFzAv5HZOf4vdf9zBdNRLcE/1z8Bk1oH2XI1uPcAAABiZVhJZk1NACoAAAAIAAIBEgADAAAAAQABAACHaQAEAAAAAQAAACYAAAAAAAOShgAHAAAAEgAAAFCgAgAEAAAAAQAAALygAwAEAAAAAQAAALoAAAAAQVNDSUkAAABTY3JlZW5zaG90ao7jVgAAAj9pVFh0WE1MOmNvbS5hZG9iZS54bXAAAAAAADx4OnhtcG1ldGEgeG1sbnM6eD0iYWRvYmU6bnM6bWV0YS8iIHg6eG1wdGs9IlhNUCBDb3JlIDYuMC4wIj4KICAgPHJkZjpSREYgeG1sbnM6cmRmPSJodHRwOi8vd3d3LnczLm9yZy8xOTk5LzAyLzIyLXJkZi1zeW50YXgtbnMjIj4KICAgICAgPHJkZjpEZXNjcmlwdGlvbiByZGY6YWJvdXQ9IiIKICAgICAgICAgICAgeG1sbnM6ZXhpZj0iaHR0cDovL25zLmFkb2JlLmNvbS9leGlmLzEuMC8iCiAgICAgICAgICAgIHhtbG5zOnRpZmY9Imh0dHA6Ly9ucy5hZG9iZS5jb20vdGlmZi8xLjAvIj4KICAgICAgICAgPGV4aWY6UGl4ZWxZRGltZW5zaW9uPjEwODA8L2V4aWY6UGl4ZWxZRGltZW5zaW9uPgogICAgICAgICA8ZXhpZjpVc2VyQ29tbWVudD5TY3JlZW5zaG90PC9leGlmOlVzZXJDb21tZW50PgogICAgICAgICA8ZXhpZjpQaXhlbFhEaW1lbnNpb24+MTkyMDwvZXhpZjpQaXhlbFhEaW1lbnNpb24+CiAgICAgICAgIDx0aWZmOk9yaWVudGF0aW9uPjE8L3RpZmY6T3JpZW50YXRpb24+CiAgICAgIDwvcmRmOkRlc2NyaXB0aW9uPgogICA8L3JkZjpSREY+CjwveDp4bXBtZXRhPgrCOB4sAAAdXUlEQVR4Ae1dS8wlx1XumfHYHhmZgD12QLYzSHFCQBgELIIUpEgoEUk2yEgRjpAiZZNFVqxggZAXbCKxzQIWSIEFUTZILHgsUBYsEqF4gYUibIgYPzB+xzEaz3iezHft8/vc755Tdaq6um/f29WSXV3n8Z1Tp7+u/9z++/5z6lOf/vytoR+9AiupwOmVrLMvs1dgU4FO+E6EVVWgE35Vl7svthO+c2BVFeiEX9Xl7ovthO8cWFUFOuFXdbn7YjvhOwdWVYFO+FVd7r7YTvjOgVVVoBN+VZe7L7YTvnNgVRXohF/V5e6L7YTvHFhVBTrhV3W5+2I74TsHVlWBTvhVXe6+2E74zoFVVaATflWXuy+2E75zYFUV6IRf1eXui+2En5kD587dPXz5wuvDI/eemjlyD4cK3NHLME8FQPQvPvji8MSvvz2cO3tzeOLa28PffP/e4duvPDRcvnxlniR6lOFU/7s007IARD9/9t3hTz95cfjIfdd2gj33xtnhn5+9Z/jmxft3dF3QvgKd8O1reoKItsUj+onR+ycg/h9/78Lw/Nv972JxbVrOt3p47Eb66PO6eqBuX//Yc8Nff+E/zV1d11jOsfvDHn69v5eqtB/7Dt+4pvhAKn16LfTla6d7f19bvIxfJ3ymQFE1iP5bH7sU3tEjuJ34kSqV2Wy1NGWu3RoVQPvxV599brOrWx9Kx1YJPy3+/Def2cTRLaY+R4w+j7Wfmx0exdKPxvo8Xw+Q7MmHnxk++WvXBuzEeNQ49fG9p84O33i5f7AdU+fe0hRWD5uBfp5e6N7E/C+/+6H+/L6ykp3wBYWbok8vCL9l2vv7rXKEJ72HD5Rq6j49kMKOyea3tU5/D2Pu6aMy9ju2+dYOj8XpXl5X2dN5cinwIeNhDdKn61os8bz/4ip2VbYIzy4pMrMt5jn7nJ4xc/Y5fQmexsI5+vSv/MZbDDF6PtUHXODiwPs533nzfP+NrXOlkoR3fI5a3OIXR6UFan0T5Pp7fXOX5nro9lU9PArW8lgCnu7TW61Ndt0cXutHmrn+3mozU9fA03lyrLdGV+OTimXhrX6HB9G/9uGLm+fpOWIeqr6mvwdZrBvDq0HOPqdn3Jx9Tu/hnfrM5x6/pRdWCuQBi3ypeMhrqj5d1r6kUdqctff3yR2eycpzuaCeXPQysh3PPTuRp8YSrH306ancWde6p9f4Qny8f+/VTNvzeY0PY+j53HhJwuvEjuEc7QveT3/g3htNXwWYkqBT1V3anNeu3VXUukyVz1y4B0346O4AO7yANcXLXXNdKInT+uYS4usvnkTrKjnxyP48Z/vcnP15nvPX+oN5SoNF8qE/e4hO2+Ec7cs//s6/NyU7SFd61PhYMVo/0dFfPJHa6bqKjHNhuZ5rf/jpubbTmCzXc+1fiyexNjs8wDUoz8U4OrI/z6M4Y+yW3qfL2lrv2IJbMyKXY/9iebalyZE1p+fC5+xzesbjufTp+2xflkRirk9kjjbnmL5YrjmVJXykQFPa6GR1HJZPSfR9EjgSO2Kjaxc5B+arb5/Z+mI51zyCk7NpiRnBKiJ8BDC3QK1vgQeMNT1P1/Wb+lxuJHzx5MkXPr7V9iK2d/1YzvOSvNmX5yVYsN0i/Fgw9ud5aXIpe2BPQXS5yKnYa9ShLi36+wgnIja4Bik7T7dF+H1fSC9Jzgvty1989ocbceunFhyrz7crIMQ/xD8cBX5ln6/ByDtSuhof/aRI+0scEB1fmMbfbwHRl0J2kKDkSNmndIiR00seUTuxLxnxxXJcB1wPfch10rLo+RjfaAzwa1E7vJc4ioEvYvzyY+1+QwpCLOWG8da9ZLnUT/p75OptWN46cF1LfcZinbbuLEsmgVI62Fh6SyZ4no/I8Tz9b7/wg83bjC0J2hJLr4XPp9xpOdaYeWmeUj/81Qb8Yg+fp/R11ufIi+eQRcnOvjxPYbHtYnd46dOlsFjUvg7ZzfYVv0XcOdaAGPhgO7a/B0mjN0NpbUYTviY5zwfy1F/aLV3cmuznIHSunsgBBz+/z/m11HvckhhbhLeMLZk4txwRZ6ovTEfJELXDuktsW9bpkLC8PxzVklNRLLHbInyLYgqwYPFc5DJCj/5v7B8gFbxDHVM3UEp3COuN/OGoHE9knVE7seexiPBjg3FwfCCd4g+Q7qvvjxIzasf1ajnP5ZDTl+YCvJL+vgXXLIwiwvMiLUC24Tl8pE8f+0WM1heFc13y/FDXbr1/P2edN4Rn4vK8VULAnapPL81xTsLMGUvqsI+YEjsygvhf/Zfd93Ms3xwfc3qNuflYzY+AeK4doudIwjp+5sIwYLGlBy5gy6Ok7RkbuyRWqzXuI2Y0d1z//704bH7SR3yYj8wtrWcd42dZlAMAoGWjk5CgaGXOv3N5OPvG1Q3pS4i/zwu4z9hSu32PY2965I/rjSc39/zHpeGjVy7tLMni0Y7RbYHFLbGzdBo3S/gcAAJZNpKANX7o3I0N8UF+FKBFMa04pbKl5CF5z51PKt6Ymx64KaKfrHeif75T83OL8PpOkCSsUQNY+hLZYw9c3vyiAnd/quAlmGJbihe9qKW4kk/pGM0HuLmccnpglMSLxsR1ffP7V4eHr16GS/iIcjEM+L7hFuFbErkkYez0+O9H/32jqr/3Fl16AT0cludwI+RizBofjZHLKafXWNFzDxNrEaLf8ezl4a6bNzf/RXFh53HR4lWJbIvwnJAFFLXxEmZ/PZdWBz/+ULDcMZYkOfxavUeEFF7UZ6lrlrXhuv3b02c2fTpkIHvLw+JViWxDeI/YFhDbWjZjF4g2J9LfR0nC+eybNGPi166Za4D5mDwYD1jcp5eSnbklMTy56EvGDeFLSJuybZkYFgHi33r5vSc6LS9OlDQtY+qLEo2vfaY4z+URXT+Ifulfr5hPXkry9rjlyWv4ttPS1IDIorzERF87lvT30YsUySVHCMFoGVMwlzCm1o81o3156dlbo4leu1aLb8xfnu8QnkHYoTa5sX7S36PAqf4+dZFSOYwhbS5mLfbcfqn6aB3qjycv+EB652vXtKr4nL8mKAAe7zy5+DF/eb5DeHGUkR1ELqOXgCcXv9pRiI8fo7WEsGLnSGv5RGW12HP75daDekufXvPkxcLXf9NS6z3eeXLtmzrPEl47WyT2EvDkGm/MeUl/3/LGaIml11+DW+ITsU3Z4CcrdnXrN6R6HUs/3/lOq0VqWcTUJJY4JWOkv6/dKa08WmJp/BrcEp+IrWWD9uV/vnt9uPXGjeaPGPX6U+cpTrKO58DVsjuYxDxPJaJ1AK311Tg152hzhtu/uHrpjTPDtfvubPqXgmvywU5pkacGa18+77xwfXj61XN72dGZSylesY7nqJ+WZVsafXfo4rNcg2q7Oc+lv8eP39SPZ+SU04/J+9DJjj79nedv7oXsm2uTeKeGeVd6nbKE94jsySWBsYkJTs0I4strCh6xU6T0fGpysXxq8Gt8rNgis/CwUaB9WXKfnuOdrM8awcktwrck6ZjErGRLZbLbC/FL/FM3QwmOZ1uDX+JjkZlz0XhL6NM5v9K5xV2WgZNbhE+RlJ11QimdttvHuRA/9/w+l5tFIkuWw4nqx2BrMqfioU9HXWpf8EphR3Wlz+E1ruadxV1LtkV4Dwxyy1nsUzqx2feoiV9DJotElqzVOqPYNWuBD3Z19OlTPH25ej7/4p/UKfocXpNbfGt45xI+BWYFlySWPoL4U7yfY627hIwltjpW6Y2BHR3P0/GtIxylL3jp2N752N++WrgpPlr2LBPObggvEzby5rngpXhenCnlkef3Y+NHyYg4JbY1eeGvge37eXpN3rU+zEHh7IbwMqkFZ7/WeIzfas5tTu0u2yqfKXCkT8eO3up1AMmzpHURn9zIRGV7T89yj4NmS8POCGrJdDI5vbZd2rm0OXiiM4b0Ud+o3Zg6IYbu08dgeb5ztC7MK4/InpxzNwlvObMsmggHXPJciA+i1JAy2pZE7bhW0Zzm6NM5t9q595RG8Jh3IsfIHNQ679wkvGes5alEtN0hnqO/lw+2S8o/d6PI83TsvK0/jE7RvqC23lOaSN1zHOQbAvMs4dkpkkiNTwR3bhsQH7sldtbo7jp3joiH3PCBVPr0KXKYon2ZIk+NyTcE5juEZ7Kykwb0zmt8PKx9y6XNsfr7KW+CCDZscEPi63XHeDAXsUZLptee0+8QPkdWBuS5Dn5M50J8tA1y5FqMCGmBZdnlsKVPl523dQsja9znaHHRkukcc/oN4UtIy4A818GP8RxtDh71aeJ768yRVvyidrBHXJB9ij5d8jm0Mcdfrd8QPkVabRwpRKl9BHOJNrq/L8nP2s0j/vp5uuzqEb9SmzEfTmt8rac0pRxK8Rfr1/qdloYLpI1ZZ81L7S2MQ5FJmyMfbCN5l+zmwMMNgl0d771MSXTJfUyMGl/rKY3FIb4JeC7558YdwkeBona5BI5BL8SPtDkl65UPpPLeS4nvsdnyTcBzWW+Kl9DtEN4DEkAZtV0qiNivYSzp71P10H16yq7rdiuQ4iV0G8LnCJvT6yBIIWe/m+ZxScb099jVsaPXtAclVazpt4Ff61eSm9hGeeTZMS+Bewf+ZykglyOnFzsZS+3F75jG99qcG8NLl88MP/VzZ5JvQ6JPx3P+O1+7Mtw5UxFqb6hav5plWTwCuVnO81SsnZZGjL27BvqUTvz7+F4Fcv299OlTEmnOXbn0ultPaVIYJeS2cFzCp4BTOitIl93+94zo+b08ZpyS6FL3OWJIrNLRekoz1YYK3C3C1waq9SstzjHYg/jyZzCmIOJSdvMxeUQ2VItzLOM5cLcInwrEzpp87Jey1X79vH0FWt5EY0jbMg9UiTnFnIMNy3gOmy3CQ+AdlnMLWw+jy/dfgShpx9wY0VWW8C+FufO3JVPGWsd3nNb183VVIHpjlFYlwrGIjY57mu8cBuC5OLOfyPvYK1BSgdRTmgjH2Mbiq5bttDQMwPPcYjR4zrbrx1WgVSvRCqdmNdZTmhROjl8WX7Vsh/CpYJaOE9Dgln2XvVeBd0+PLn2z38ZO1ZJMca3H8qu4h+8Eb3MZj/ELGy0qw/zieTSG55ft4TnA2DuM8fo8XYF9thuc2Ry5ML94LjkxoXnu+e38XLUMGUyCpsYanxTeWnUt242xhG2Zy9jryTzlucbXXNwhvDaUcw9MA4mtjJ6P6Nc+tujhUzW0yL0kwkruqac0YiNjim9iY42aixvCtwBCoFocK8ljl03dwy+R3NY19Z7SWFzSxLWwIrIN4RnICiZgKR3jiE8fD6sC1k+H1ApK7VNYoivhUoqTgiej2dKkgqV0AtrHw65A6U+HUvvW1fE4ad0IJuF1QpaT1vfzugq06OGn2FnrVmN7RfLL9fAW/yyZlYF1I2R7eMtJg1vBLZn26edt/iGCfe+suesYyc/r4QXb4p8lE/sc98weXpwjoxXckkWw1mST2uEjO2OrWs0Zq1XOKRyLe/omMFsabcDgKR3b9rlfgdRTmsjO6COXaeaMFc3M4pglA54n17H0TWASXhtoR5yndGzb58dVgbl+Glgcs2Sorif3Km8Sno1zdxHrec54a56/dfuvGBzqscSfBl4tPQ5uCO8pBSx3F7Ge54LTx2HAXzGoPaI7rGfnyWvzaeGXe0rDMVJc1TrmoOg2hGclB+G5OLO8z6etQHSH9ew8+bRZp9FzT2mYaymuRnQ7LQ0HsNJNAVv2XbZbgdRTml3r5Uum+umR4lqEq1y5HcJzgFLQUntOaC3z1FOafdeghrwtf3pEOcRcjdRth/DslAK1EkvZM/aa50ve4VuSN3eNrR6+BYcsbiKXLOF1wgzSIjGNv6bzJe/wc16HXA/PuTAHRc9yj5tFhPdAJCiPnATr1zxvucPXtCCHUnvmkMdBT87rPCE8A/OcHa05+0STsLCOXZbb4UtIPGcLUpJXi2vYkkPg5wnhGZjnkeRrfCK4x2iT2+HnJHFJfVvnZfXw0Xx4gxU/Tw5+nhBejHMjg/E85792vfymNbfDz1WnuXdsXpfVw0c55W2wWs5YIcJrJw2G5HnOC+rz7QqM+U0rkEoJmrNvvWPX5LhdoV1Oaf6xbW7O/DQJzwHYKRWEfVO2XVdegVKCltqXZ7Tr0Tom88/imCXbzez2Y0nLkANYjp5sjK+HeYzyXA9/jGtutSaLY5aM44HrO3+IiY36fJoKLKWHT60u1w6lfPepszZx5IObwmxpUskyGM9Tvl33QQUOYYePtCZjbwrvKc0YXqV2+x3CW4G0jMF4LpdU+4isjx9U4BB2+A+y9c8iN4XvPQzWUxrYW7yyOGXJdDzW7xDeCmTJNKh1XuNj4RyrbIodfuxuu/RaW5yyZHodrN8Qnu8C7RA9j2Dgbv7Wi/dHIY/aLrLDlxJ47G47Z8H/7vQDc4Y7ibUhPN8Foo2QWGw9DNHL+M2L9w9fffoTw9OvnhPRKsfIDt+awKU30BQX5r/uvmf4g7d+cQAPvHYmwjvLxpLxGk596tOfv8XCyBzgUZJ7ePjA8rUPXxwee+CyZ3J0cvym9fn/u3P46JVLi1obbobWN5heIG7wP3rzEy7Jta11Xss39tvp4VN3idalyK7trORFhjv8yRc+vmlz5FfuojvWcexvWlGXKXbqCNlr4oLoaF++dPHnq8mONaf4Br13sN+pz3zu8Vss9JynlOMm+eKDLw6/99DrU4ZZBDbauaXt8FMUBkRH67Kko8kvnlI7ekqnC4GbDsV5/KlfWUV/H+nhdX0O6Vz36aV5M194Lngs57nY8Zjt4QG0j58Ax9zfH+MOLzfwmD6dydlizvzd6eE5iEf26B3FeFG/167dtbr+nmt1KHOQ/Z+G+0f36VOsl/m78/JYlJAMpJNNYaT8NAbs8B/anCeeevRont/P+eG85kOmvgaRc/lAOqZXT/GFc4jYpmyyLY0EBEiUrOLTekQOTz78zME/xkRL8/DVy0Pkl0+taxjFyz2mRJ/+jZcvjHryksqlhG9RW9iFCT82uVxSOb2Of+j9fUkPnyOerkv0vBZzqX16dN2wc3t4EDB6RHZ+tmF81qdio7//w2c/sorn97nn4zVtSw7Tqn2LPp2vuRXHk9X6st/JDg9FlHRR26idt8io/MsXXj+o5/clO3y0BlPaTfk8nTnCc29dUTv2P9nho2QHQMoWiciRshMba9QY0POcfQ7x+b20B7yWJc1bPk/31sUc4XnUD3Y5nsDmZIfHxDsAFE3Ew5hLfgj9/ZJ3eLkRl/A8fQrenezwKUKmyB65q4DNdrl5Kp+U7lD6eyFWai1z61r06VbOtdc6xTsrjpZ5MTc7PJQanOcaaEnnkTzR3//2fT8a9Q8RtFzzUt+WbNWnR67JmHpa+JbMi7HZ4TXZYchz7QzwOQ+Op+epPCVH9Pdf+cEvLeb9nBZvS8raWozo03//tV+tfslLXw/kE7kmnDdjsF7PLXxLpn30eail0Q45cE6e5xorcs7xeJ7DQHz44DHmMXzxpOQxZMpWPpCiLqU11TUf4ys4jMGc4bn41YxJwtcE4uR5bmGyjOc1CxMfHV/39/jguM8j1cOniFryDN2yRVy0LyC6942jVnWxrqMl43j6mkHHc7G3sCwZ7EUeekojAbwRYF5Sns8U8pI8YLuv9+/39ZSmVZ+Oa1dS6ymudS3m1g6PRXgH6/R8X2TXOSDvkjxgK8/v9/HF8tQO712DlDz1UwHty+8+/wvVfTri5mrN+lSuWlfqV2qvY+G8yQ7PoHqOBEuIqH1xzv48Z/uaOTDPn313lu/XzvmUBkSf8gWvaK1rr1mtn+Rl+Z955MKjT4pBixFBrl+/fgKlzyFkPc9PHN8/YX+esz3mOUz2AebV03cP//DKTwx33P6Zd/PKreHBez5YA9uPmd999tbwyqWzw09fvzYGJumLnx5/f+r88Gc//Nnhx+8mTV1laQ1doNuKyDUTfx036qd9BAej5Z/8TiuAxuzOOnj0fMqYUWzYTdnfT9nDt+zTo9eM7SJ1jtgwbot58jutFtmR6JSHFTMXL5WT1jG21ukYsJu6v2/dw4/p07066JrgnO14LvZcZ5HrMWKj7b1Y2kbOLVuR7fTwUNQkU+ojyZWONfmVxtD2iNe6v2+5wy+lT9c18869a+fJPRyR1/htPaUBUA1x2QeJ6IPn0Fky7ePZcCz2aT1HPPn7OfjFVauv6I3d4eFf8zw9V3fW89yrr2en5d618+ReLJHX+O3s8ALGIxKvCcA43rwlfkssna9cPPT3te/njH1KA6LjC9NouY7x4GvHc2/NUbudL3FrQLnAkDHZtU771J4zfg4nFd/D8nw8OecAXPw35v2c6Ls01nN1tC/4C16tyB5dN9eh1o9xrDlfO557sXN24hfe4a3kSmUIyolFMXK+OX00jraLYNa8f1/aw4/t0yPr0Oseex6NF7Ubm4/23+rhkUDtYfmyLEJ29pF8cr6e3sPz5BIPo4epbdDfy4tpJf19pIeHDf7S7tj3XiLrwJq8mnhyXQd97sVjHM9OY7U+3yL8mAQsX0vGC5i6CF4Onpzz4Xy9OV5Mw2vIeE0hQvzUn+iQD6RoX2qO1BpSOq8mnlxyS2GKDcYUjofhyTUuzqN24ZYGgJywJeNExsxr8Wv9UrmWYMI29YsrtDTe36XBk5fvvHl+8jcZU2ttpSupWTRmFNOzcz+0wkEfTHboLJn2sc4Z17IRmYfPGDz3/AS3ZmRMjqkxYfvtVx4y37+X3Z93ePTpuX8oQMdoee6txZMjdkonuXHNRJ4bU9hRTG2n8cI7fC5J6AGsA0V85rKxcrNkOp+cXtt658DAL66+/uizJ18z1B9a0b7UfGGac+O55OPJRV8yRrByNjl963wYr/jlMSRsvZQDYEuesocP63kOmxaHlRvLODbra/IABl5M+9bzP7l5Me2h2+T/8dUzwz03b2xe8PqTi49UveDFufFccvXkvFaxT40elvbJ2bC+Jg+Jx1giT41bOzyCL22Hrs2p1i9VLE9XEgu26O9bPUv3cqqRl6xD4+f8cnqNxeclvhHb7FMagKSOnD7lG9F5NyDH5XnUL5KDtuE40HmxtJ+cw7aW7FZsweWxxFZ8eR1RDPYTPBlzerGz4rGvZSP+bCtyPbofWsUoB8J6LyFPLnEio8bguDz38KJ2tf46Rw+jVm7l7sVjW88ulQtjpGxb6CLxIjbIxVtv8vXgmkV4CXlyKzFLhlw8jJo8tQ/Hy821L5+PybEmbjSeZ8cxeT0yZzuei52MKX1KJ/4lo4Wn16v1Wy1NKoh2StlFdBpLJya+lkx0kVHjw57njMHxcvMIJseIzCNxczi5tbI/x2S9zNmO52InY0qf0sG/9Rp0PJfwHFQ7sY7nsmgveY2lba3zFLZlDxnj87wGk2NpzBReSseYJXMPV+fl4Xm+Yp/Tix2Pnp8nF3/WW2tgG54LVm7cPKWBsxUk57xPPefM833mNkXs2vXV+k2xhjkwc+vd7PCtyY6gNUeJH+fM85L4VtyojONYftrG0rOM5/BPrc+yl5gpP7HBmMJI2UX9NMaU57n1ui3NmKS8oLnieH6SS85f7EpHK25UxrEsP21j6VnGc+1vnZfaRzGsenMsnlvYImM8nnt2IvdGDwf2rHMJz4Y8l+CeXPR6tIrj+Vtyy1/j8zlj8Jztj2meW2tOj1qU1pvrxzEYj+fi78mhZ0zIUvasOyE8A7EhzxEIhyd/T2snKLqUfw5XMDhvkVvYUUyNgXMrhiXTfjm9tvXOGYPnnh/kvFb2ZX0KK6qbIkZrzBPCtypA6wRzxea8OX7OH3r24TnHgA/Lcj6sz82tGLmYjAkMOdhX5DxaGFFZNAbHxNyKAXkNpocF+da7NAiQO+BUk4TGLcGwbC2Zxs+dj/XP4R+afq56tIxTi3Wyw3sXCcD6GEt2YKUwIvFS/jpXOY9giu0ax9J61tYoGoevlxVPY0XsBWND+JSDBhYnGVN+tTapeIJZOo7B5DXyvDSXnL2Fb8nmwimNw7nyXPA8OfR8vVK2ln0qxv8DhmPp4v4r/MEAAAAASUVORK5CYII=;" parent="1" vertex="1">
          <mxGeometry x="270" y="525" width="50.54" height="50" as="geometry" />
        </mxCell>
        <mxCell id="ILMhwKr-gRY-XF_f-1hN-16" value="MTurk =&gt; &#xa;Recruit 100 participants" style="text;whiteSpace=wrap;fontStyle=1;align=center;" parent="1" vertex="1">
          <mxGeometry x="275.27" y="570" width="40" height="30" as="geometry" />
        </mxCell>
        <mxCell id="ILMhwKr-gRY-XF_f-1hN-17" value="" style="endArrow=classic;html=1;rounded=0;strokeWidth=2;" parent="1" edge="1">
          <mxGeometry relative="1" as="geometry">
            <mxPoint x="490" y="552" as="sourcePoint" />
            <mxPoint x="640" y="552" as="targetPoint" />
          </mxGeometry>
        </mxCell>
        <mxCell id="ILMhwKr-gRY-XF_f-1hN-20" value="Design the experiment website using jsPsych" style="text;whiteSpace=wrap;fontStyle=1" parent="1" vertex="1">
          <mxGeometry x="97.5" y="600" width="135" height="30" as="geometry" />
        </mxCell>
        <mxCell id="ILMhwKr-gRY-XF_f-1hN-21" value="Conduct experiment online" style="text;whiteSpace=wrap;fontStyle=1;align=center;" parent="1" vertex="1">
          <mxGeometry x="357.5" y="600" width="135" height="30" as="geometry" />
        </mxCell>
        <mxCell id="ILMhwKr-gRY-XF_f-1hN-22" value="Analyze data" style="text;whiteSpace=wrap;fontStyle=1;align=center;" parent="1" vertex="1">
          <mxGeometry x="630" y="600" width="135" height="30" as="geometry" />
        </mxCell>
        <mxCell id="ILMhwKr-gRY-XF_f-1hN-27" value="" style="shape=image;verticalLabelPosition=bottom;labelBackgroundColor=default;verticalAlign=top;aspect=fixed;imageAspect=0;image=data:image/png,iVBORw0KGgoAAAANSUhEUgAAAgAAAAIACAYAAAD0eNT6AAAABHNCSVQICAgIfAhkiAAAAAlwSFlzAAAOxAAADsQBlSsOGwAAABl0RVh0U29mdHdhcmUAd3d3Lmlua3NjYXBlLm9yZ5vuPBoAACAASURBVHic7N15vF1lfS/+z7OGPZ0xI0kIBALKJCCiyKSCY6mtt9USJam1tbZeW1vtvcVap+bXStV6FWt7B+21g4Vg41TbircWhbZODEHUUkRxYgpkOMOe1l7D83x/f6xzQggJZ5+zn7XX2nt/3q9XyMkZ1vqGnH2ez3pGgIiIiIiIiIiIiIiIiIiIiIiIiIiIiIiIiIiIiIiIiIiKQuVdAI2mK3fvdvf+IJ70wsqYV0ZJx3oVAIiDKkQqAOAoWZV+tlMRheqR1xCDKpz0c4+kBAKl5p7wNTDGEcwDgCinLUZCB8rIwvu0Mu2S54cddGZ12e98/b9tC2z9nYmIioQBgFbksp27x43rbHRdvV4ZrAbUNMRMi6OmITINqGmohbcVpiAYB6QCqEkAYwBKef8dlmEOQAeQNqDmALQV1BxE5oySOUDNQWEOkHkYZ84BZoxj9rkw+58Tf2//zp07Td5/ASKiIzEA0CEXfXB3dbyuVyWOu1E5skmU2qiMbBKFVYDaCJFNUFgFYBOA6bzrHSCzAPZCMAulHgZkrxLMiqMeViJ7DdSs57oPz64+8MCe178+zrtYIhoNDAAj4gXX7DpOizpBiTpRKZwIhZMEzgkQ2QyFTRCsA1DOu84RJwD2A7IfUA8q4AFRuB+Qn0A5P3GV+8CqUD/4yZ3borwLJaLBxwAwJK748I3loNk+WYk5RQxOVY6cIqJOVZCtALYAOOpYOQ0cA4VHIPihgtwHqB8A+AGgfuAnuO+fd26bybtAIhoMDAAD5vnv3n28KH06RJ0Gpc6E4DRAngKoEwA4eddHuZtNQ4HcC+A/AdwLo7+71njfZ88BER2OAaCgXrTzhk2J75wNwbkQnCUOzlCC0wBM5l0bDaREQX4kSt0jIv/pQH1bjP52/bjG9zjvgGg0MQDk7PyPfMSfOjB1tkA9XUHOEVFnAzgXwJq8a6ORECmou0XkO0rhO0qpb0F5d37pbS8/mHdhRJQtBoA+umznzZ5y9p4G1zkfos6H4HwoPAN44hp3opztVVB7ILIHCntiR33j39+2bX/eRRGRPQwAGXr+u3cfD5iLDdTFCrgQwHngTHsaXD8A8A0F9Q0o8zUTH/ftW3ZenuRdFBGtDAOAJVfu3u0e+C6eLgqXOpALReESACfkXRdRhlqAul2J+ao4ztddF1+56a3b5vMuioi6wwCwQmmDn5wO17sEghcC8gIAq/OuiyhHGsC9gHxFATf5ifMlLkskKi4GgGW47JpPPE2J8+KFxv45ACbyromowDSAbynBzYB8MRhz/p1nKxAVBwPAk3jBH39mjZjo+QK8EKJ+Cgon5l0T0QDrAPiKKNyktLrp5ndeeSeUkryLIhpVDABHuOya3U93RH7GKLxMCc4HN9chyobCwxB8XgH/GNTUTewdIOqvkQ8AV+7e7e7/Hi5yRH5GFH4ewFPzroloBAUAviqi/slR+NSX37HtobwLIhp2IxkArvjwjeWw3ngxBNtE4WXg7npERWIg+DoUdiuoTzMMEGVjZALAYqMvkCsB9TIAU3nXRERLMhB8XaA+yZ4BIruGPgBc/oe7z4cjvwRgO4C1eddDRCuW9gw46uOVOPrEF3b+Yj3vgogG2VAGgBe+d/eJiZarlOB1AE7Nux4isq4DqH9UkL+dXzf3/3igEdHyDU0AuOLDN5aDev0XIM7rlZLn5F0PEfWJwsMi+EvPU39x01u33Z93OUSDYuADwGXv2X2qk8jrROG1ANblXQ8R5cYA+LKCfNQkx32W5xQQPbmBDAA7d+50/tU/8wqIvBnACzCgfw8iyojgfnHwvxIn+ehXfn/HbN7lEBXRQDWcV3z4xnKnUX8lBG8B1Fl510NEhdcEZJcWfOjf3vmqe/IuhqhIBiIAXLZz11p47psU8AYAa/Kuh4gGjlEK/2BE3nfLO171jbyLISqCQgeAy3buWuu47htF4c3gun0iskHwVQX1ri+/c9uX8y6FKE+FDAAvuGbXcWLcq0XhvwIYy7seIhpG6ksK8odffscr/y3vSojyUKgA8OL3f3wsispvVIK3gdvzElF/3CRKXX3L27fdlXchRP1UiABw2c6bPeXvfy1EdgLYmHc9RDRyDKA+La5+yy2/f9WP8y6GqB9yDwAvuGb3i4zInwE4Le9aiGjktZXg/Ua333vLzl/p5F0MUZZyCwDPuebTGz2J3weoV+dVAxHR0ckPIeq3bn7nK2/MuxKirPQ9AFy5e7d74Ht4EyA7AUz0+/5ERF1T6jMSu2+6ZecrHsy7FCLb+hoAXvieT2/VOvkrAM/t532JiHpQh1JX3/z2bR/NuxAim/oTAETU5X/8yV+DyAcAjPflnkREdt3oJebX/mXnVQ/nXQiRDZkHgBfv/Mz6yIuvU8CLsr4XEVHG9omo19zyzm3/L+9CiHqVaQC47N03PFNBfQpQW7K8DxFRH4kS/Mlz9T1v27lzp8m7GKKVyiwAXH7N7l9HuryvlNU9iIjyIsDNpcR/1Rd3vnxf3rUQrYT1AHDl7t3uge+bP4OoN9i+NhFRwfwIoq64+Z3b7s27EKLlshoAfnbnP9YaXvsTCvhZm9clIiqwGTh42c1ve+VX8y6EaDmsBYDLdu5aqzz38wAusHVNIqIB0YZS225++7bP510IUbesBIAXvnf3lE5wEyDPtHE9IqIBFInIK25556v+Ke9CiLrh9HqBF7//42M6kX9i409EI66klPrUZX+0+6fyLoSoGz0FgCs+fGM5Dss3ArjUUj1ERIOsrJR86vI/vOHZeRdCtJSeAkCn3vgzcFtfIqLDjcFx/v6ynZ/enHchRE9mxQHg8nf/3W8D+DWLtRARDYsNyks+d9EHd1fzLoToWFYUAC579ycuBPABy7UQEQ2TZ1QCw5+TVFjLXgVwxYdvLHfq9T2AOiuLgoiIhogokZ/68jtf9cW8CyE60rJ7AIJ6fScbfyKirihR6iOXvO9zE3kXQnSkZQWAy/9o92kK6nezKoaIaAidVI46b8+7CKIjLSsAKMhOAF42pRARDSdReOMLrtl1XN51EB2u6wBw+R/uOksUtmVZDBHRkBoT416ddxFEh+s6ACjH+d3lfD4RET1GFN7AuQBUJF016Bd9cHdVoH4+62KIiIZYzU/CV+RdBNGirgJAJcDPA5jKuBYioqGmRF6ddw1Ei7rr0hfzsozrICIaBZddtvOz03kXQQR0HQDURRnXQUQ0ChzHDS/IuwgioIsA8JxrPr0RCif2oxgiomEnyrkw7xqIgC4CgGsS7vpHRGSLCH+mUiEsPQTgyNo+1EFENBqUWpN3CURAFwFACVb3oxAiotEgDABUCEsGAB13nt2PQoiIRoEYfXLeNRABXQQAY5JqPwohIhoFxuhy3jUQAV0EANFJ0I9CiIhGgYg2eddABHQXAOb7UQgR0UgQk+RdAhHQRQBIkvYjEOlHLUREQ0/HYZh3DURAN8sARbTWUR9KISIafjphAKBi6GorYB13sq6DiGjoiWhIEvGJigqhqwCQhK2s6yAiGnpJ2AIHVKkougoARscwHAYgIupJ3OHDFBVHd6cBAog7zSzrICIaanyQoqLpOgAkYRNidJa1EBENrag1l3cJRI/TdQAQEUQBtwQgIlouoyMkSTvvMogep+sAAABJpwmj46xqISIaPgKErVlw9h8VzbICgEAQNg/wG5mIqEtx2OBSaiqkZQUAANBJhLhTz6IWIqKhIkYjanPsn4pp2QEAAMJgDjrhbFYiomMSoNPcDxGe/UPFtKIAABF0GvsgwlUBRERHE7ZnoGPu+kvFtbIAgLRrq1PfD+GEACKix0nCJuJOI+8yiJ7UigMAAOgkRNg4AM4KJCJK6ShA2JrJuwyiJfUUAAAgidroNA8yAhDRyNNxB0FjP4RHqNMA6DkAAOkBF1FrhiGAiEaWjjvoNPaDPaI0KKwEAACIOw2E/OYnohGkozaCxj7O+KeBYi0AAOlwQFB/lC8CIhoZUaeePvmz258GjNUAAAA6DhHMPwoxie1LExEVhwBRexZRa5b9njSQrAcAID34oj33MJKIh18Q0fARMeg09iEKuCsqDa5MAgCQnh7Yae5H2J7jtAAiGho6iRDM7UUSB3mXQtQTL9OrCxAH8zBJiPL4GjhOtrcjIsqOIArqiAI+1NBwyKwH4HA67iCYe5g7YxHRQDI6RjC/Lz3Yh40/DYm+PZKLCMLWDHQcoDy2Bspx+3VrIqKVESAKG4jas5zlT0On733ySRRAxw+hVJ2CX50EoPpdAhHRknQSIWod5MmnNLRyGZQXEYTtOcRhG+Xx1XC9ch5lEBE9gYhB1J5HHNbZ3U9DLddZeUZH6Mw/Arc8jnJtmsMCRJQfAeKwgSiYhxgedU7DL/dp+YL06EwdtuBVJlCqTUGpvsxNJCICkE5UDlszMDrOuxSivsk9ACwSCOJOHUnYhF+bRqkyDs4PIKIs6ThE1J6FTsK8SyHqu8IEgEUiBlFrBnF7HqXqBLzKBHsEiMgqHYeIO/NIIm7mQ6OrcAFgkYhG2J5D1GnAL0/ArzIIEFFvdBwiCuag407epRDlrrABYJEYjSiYQ9ypwyuPo1Sd5GRBIuqeADoJELbTXUmJKFX4ALBIxKRzBDoNuKUq/OoUXK+Ud1lEVFAigiRsIu7UYTRPJyU60sAEgEUCQRK1kURtuH4FfnkCbrkKxQmDRATAJDHiTgNJ1IKIybscosIauABwOB13oOMOVNuFVx6HXx6D4/p5l0VEfSYi0HGAuNPg+D5RlwY6ACwSoxEH80iCeTilKvzyGLxSDVxGSDTcdBKl3fxhC+DTPtGyDEUAWCQAdBRARwGUctK5AuVxuF6FWYBoSBjR0GEbcafBjXuIejBUAeBwIgZJ2EIStuC4PrzSGLxyFY7LiYNEg0bEQEdtxGELOulwj34iC4Y2ABzO6BhRMIcomIPj+nD9KrxSDa7PQ4iIikrEIIna0FEbOupA2OoTWTUSAeBwRscwOkbcqUO5PvxSDV6plvYMcJiAKFciOj0yPGpBRyEbfaIMjVwAOJzoGFEwjyiYh3JcuH5loWegwl0HifrE6Bg67iAJ2zBJh00+UZ+MdAA4nBh9aM6AUg5cvwzXr8L1K1xaSGSTGCRJBzrqIIkDCDfpIcoFA8BRpGOPwaGDQtJ5A5VDv9g7QNQ9ASA6go4CJHEHJgkhwud8orwxAHThsXkDDUABrleG61Xg+OnvSnHyANEhAhgTQcfhoc26uCMfUfEwACyXYOEHWwgESAOBW057B7wyHJ+BgEaMLIzjJx02+EQDhAGgVwLoJIRePGVMAY7jw/FKaU+BX4Hj+FxhQMNDDHQSwySd9Hs/DtngEw0gBgDb5LEhgyRsAQCUcuB4Zbh+Ca5bhuOVeKQxDQhZaOxDmCRCkoQQE3MjHqIhwADQByIGOg6g4+DQ+5TjLfQSlOC4Zbiez1BAuRIxMDqBSULoJILR6S829kTDiQEgJ2IS6CiBjtqH3qeUA8ctwfF8OK6/8HaJcwrIOjE6beCTCFrHMEkEwyd7opHCAFAgIiadSJUcdpypApTjw3U9KLe08HsaELgckZ6cwGidLsFbGJYSHUPrhCfnEREDQOFJumNhomMAAQ4/+0w5btpT4CyGAg+O40O5HnsNRoUAIknadW8SiE4OzUERnXArXSI6JgaAASZGQxsNfZSPKeXC8bx0roHrwVFeGgwcF47jAQwIA0EAwOhDDTxMAmM0xMQwOoFozUaeiFaEAWBIiWjoWAMIj/px5bhpSHDdhWWKDhzXBRw3DQuOw0mJGRMRiEkgxqRP72IW/qwhhxr6hOPyRJQJBoARJUZDoGE0kO5odBQKUCodTkiHFRwo5abhQDmHQkT6tgKUM7LzEgSSjqsbAyMmXRdvDEQ0ZPF3vfD7ofdxHJ6I8sMAQMe2ML4sAKDjpT47pdLhB4WFQLAQFqDUYb+r9OPO4uephTkL6bCEchZDhANAFoLHE4csBOpJ5joIcJT95kXksYZXBFCAGMHiY7aIWfjSha51kXTfejGP/x0Gxpi00T/8mkREA4IBgOw61HguONoEBSIiyt1o9tcSERGNOAYAIiKiEcQAQERENIIYAIiIiEYQAwAREdEIYgAgIiIaQQwAREREI4gBgIiIaAQxABAREY0gBgAiIqIRxABAREQ0ghgAiIiIRhADABER0QhiACAiIhpBDABEREQjiAGAiIhoBDEAEBERjSAv7wKWopRgw3iMqapGEDvYWy8h0irvsoiIiAZaYQPA5qkIO84/gOedUsfqWnLo/bFRuPXHE/j8PdP4tx9OQBuGASIiouUqXABQSrDt6TN446WPwHfkCR/3HcGlW+u4dGsdB1o+/v47q/Cpb6/GXFC4vwoREVFhFa7VfOMlj2LH+Qe6+ty1YzFed+E+/NKz9uNL35vCrjvX4vsHKhlXSERENPgKFQBecvp8143/4Uqu4Ioz5nDFGXPY8+AYdt+1Bv/+owkYDg8QEREdVWECQMUXvPHSvT1f5/zNLZy/uYUH50v42K3r8YV7pi1UR0RENFwKswzwuVvnsW4sWfoTu7R5KsIfvPhBvPel96PsGWvXJSIiGgaFCQDP2drM5LqXnVrHe376ATgcDSAiIjqkMAHghOkws2tffHID285d/twCIiKiYVWYAFDxs+2m/9UL96Oa8T2IiIgGRWECwHzgZnr9ibLGpSfXM70HERHRoChMALj7kVrm9zhvczvzexAREQ2CwgSAm++bzPwe68bizO9BREQ0CAoTAL6zt4Y9D4xneg8FLgUgIiICChQAAOCamzahEWY3F+DRZrb7HrmewtgaH5MbfHgVhg0iIiquwuwECAAP10t482dPwgf+y08wXbW3KdCiPQ/a72FQCjjujCpOec4k1pxUges/1vAHcwlmHwgx85MIsw90MPdAhCR64gFHRERE/VaoAAAAdz9axev+biv++2V7cdFJDWvXnWl7+NqPJ6xdDwDKEy6etWMt1p1aPerHq9MeqtMeNp09BgAQI6g/EmPm/hCz94eY+UmIxqOcl0BERP1XuAAAAA/Ol/A7n9uCp29qY9vTD+J5p9ThHuVo4OX4v99Yj05sr1u+MunieW/ciNrq7v8XKkdhalMJU5tKOPnCNIy0ZxL8+BtN/OAr8+wdICKivilkAFh018M13PVwDesnYrzinIP4L2fNrWho4Ob7JvHZ/1hlrS6lgAtfs35Zjf+x1FZ7OPOnp3HSheO49eP7MPdgZKFCIiKiJ1eoSYDHsq/h439/dQNe9rHTcM1Nx+N7+ytdf+0/f3cK7/rCCRCx9/R/4rPGsWpL2dr1gDQIPOcNGzC9uWT1ukREREdT6B6AI0Va4R/vXoV/vHsVzju+hW1PP4jnbG3AO8rwwH0HyvjYrcdlsr/A1ouz2bPAKzt49mvW40vvf4jDAURElKmBCgCH++ZDY/jmQ2MYLxk888QmNk5EqJUM9rd8/MfeGn540O4T+qLqpJvpU3ptlYdTL5vCd784l9k9iIiIBjYALGpGDm7pwy6Ci8bW+Znf4+RnT+Dem+YgPLuIiIgyMhBzAIrEK2X/v6wy5WJiPecCEBFRdpZszUQpbml3mCjQfbnPeB96GogoB4rPXVQMS34nusrNZjB9QM0/FMEk2U/QY+wiGk6KCYAKYulvROVlf07vANGx4NHvBZnfJ2zZ3wqZiPKnHCe7A0+IlmHpHgCXAeBI9940B8mwE8BoYO5BbhFMNIyUctgDQIWw9DeiW97IU3Qfb/b+CPf963xm1997dwtJyCUARMPI9Uqc4UuFsGQAUK5Tc9TArxa07u4b5/DAnqb164oR3Pul7MIFEeXL8crdb2VKlKGuuqIcn/MAjyRGsOcTB/Ctzx5E3Lb3tH7PP89h/iGeB0A0nBSUV+IPVCqErh7tvVINSdjKupaBIwL88KsNPHBnC5vOrmHDWTWs2VJGeXxlc3y+f8s8n/6JhphXKkNxaTUVRFcBwC1VoRwXYvqzBn7QxIHBT25r4ie3pUMCtdUeVm8pY9WJZaw+oYzpzSU43rFf8639Mb7z+Vns/Y92v0omohy4pfG8SyA6pKsAoKDglWqIO42s6xkK7ZkE7ZkED34z7TVxXGDq+DQMTGz0UZ1yoROgfTDBvu8H2P/9DsTw8B+iYaaUA69UhXCPbyqIrmf3+ZUJxJ0mADZUy2U0MHt/iNn7w7xLIaKc+NUJKOUwAFBhdL0e1XF9+JWxLGshIhpKSjnwK/07tIyoG8vakKJUmQK4KQAR0bL4lUko7gBMBbOs70jleijVprKqhYho6Diuj1KNT/9UPMuOpKXqJFyPG1kRES1FASiPrQF7TqmIVtAnpVAeX8Pj6oiIluBXp+ByIzUqqBUNSjluCZWxNbZrISIaGq5f4ZApFdqKZ6V45TGUqhzXIiI6knI9VCbWgV3/VGQ9TUstVVfB83laMBHRIqUcVCfWcdY/FV5v36EKKE+uhedXLZVDRDS4lFKoTB4Hx+VEaSq+niOqgkJlYh1cnydcEtHoUspBZeI4rpKigWGnj0othIASewKIaPSkjf96zvingWJtkGpx3Msv87QrIhodynFRndzAxp8GTteHAXVHpZteOC7igOfaE9Fwc9wSKlPr4Sg371KIls1yAEA6MbA2Dc8rodM8yJOviGgoeeUxlMdWc7Y/DazMvnPdUg3VqQ1wXD+rWxAR5UChXJtGZXwtG38aaJl+9zquj+rUBnhlHiNMRINv8WeaX+UOfzT47A8BHEEpB5XxtUhKVYTNGQ4JENFA8spjqIytBvjUT0Mi8wBw6EalMbirKgibB5FEQb9uS0TUE+W4KI+tgcdlzjRk+hYAAEApF5WJ9UjCFsLWLER0P29PRNQ1BcCrTKBcm+ZTPw2lvgaAQzctj8EtVRG15xGHdUDyqIKI6Ogc10dlfA0cj2v7aXjlEgCAdG5AeWwV/Mo4wuZB6CTMqxQiIgBpd3+pOgW/PMGD/Gjo5RYAFi3OqtVxB2FrBkbHeZdERCNGQcGrTKBUm+LSPhoZuQeARa5fQW16I+JOE1F7nvMDiChzCumeJeWxVVBOYX4cEvVFwb7jFfzKBLzyGJJOE1FQZxAgIusUALdcQ6k6xaN7aWQVLACklHLgVyfhVSaQhE3E7XkYBgEi6tGhJ/7aNBR3KaURV8gAsEiptEfAL48jDpuIgzqMSfIui4gGjVLwy+PwKxPcnpxoQaEDwCELQcCrTMDEAaKgDh138q6KiApOKRdeZRx+dYIn9hEdYTACwAIFwPWrqPpV6CRC3KlDh20INxIgosM4Xgl+OZ1PpBTX8xEdzUAFgMO5Xgnu+FpgzCAOWxweIBpxSim4fhV+ZQKuX8m7HKLCG9gAcIhyDhse6CDuNJDEbe4uSDQiHNc/tHqIa/iJujf4AWBBOjxQSZO/pL0CSdiG1h2GAaJhoxz45bH0kDGf2/USrcTQBIDHWegV8CsTEB2nQwRhE2K4lJBoUC128XuVMXhejVv1EvVoOAPAYZTro1SbRqk2DaNjJGEbSdjkfAGiAZA2+hW4pRq8Uo1d/EQWDX0AOJzj+ijVplCqTkHrEDpsI4nbMJphgKgwFifzlWpwSzXO4ifKyEgFgEMU4HpluF4ZJayC0TF01EYSdThngCgHSjlwS1V4pRo8vwLwSZ8oc6MZAI7guD6c6hT86hTEaCRxAB22oZMQIibv8oiGj0pfd55fg1eqQnllDukT9RkDwBGU46ZbhpbHAQh0HKWBIApgTMTeAaIVUso5tFLHK9WgHO7MR5QnBoAnpeD65XSZUW0aIhpJFEDHHZg45ERCoiehlAPHT4faXL8K1y1x5j5RgTAALINSh/cOAGI0dBJCx500FOg45wqJ8qOUA8crwfUqcP0yHK/MCXxEBcYA0APluOmkpVINAGBMkvYMJBF00oFOYnDMgIaVcjy4XgmOX1mYVOuDj/hEg4MBwCLH8eCUPaA8BgAQEZgkhE7C9Pc4ggg3I6IBpBQctwTPK8HxKnD9EpTDHx9Eg4yv4Awd2sTksINJxGgYHUHHEYxmKKACUoDj+Avd+WU4bgmOV2J3PtGQYQDoM+W4cJ0qXL966H3pXIIIRqe/dBJDdAIOH1DWlHLTbnzPTxt6N/2dPflEw48BoADSuQRVANXD3isLQSCC0TFMEsOYBKJjxgJatnSCng/l+nBcH+5CY8+leESjiwGgsBRcrwR4pSPeLwthIE6DgU57C4xOuGnRqFvouleut9CF76fzUtjQE9FRMAAMHAXHK8HBkcEAEDFpENAxjE4WegwWfpeEIwrDQDkLjXr6SzneQoOf/pl990TULQaAIaKUc4xeAwACGEkgWsOYGDAaxuiFgKAhonlccs6UUlCOu/ArbdSV4y408C4cx+Me+URkDQPAqFCAozzA8eCifPTPEUAkSVcqGAMxCcQYyGJAEL3wZwOIZodCF5Ry0kZcKcBxoZQL5aTvc5R7WIPv8qhbIuorBgB6jAKUSruVl2yKBOnyRTEwYiBGFpYzpgFBRAAxC8Fh4W0jAAQiCx+HKfSwhFIOoNTC74CCApSTNurKSRt15UI56tD7oNyFJ3lnYdydXfJEVEwMALQyKl1CBrjoZXqZiEBBICILkxgVgHQyo5jFSY2yEBiO/GIccw+FtHE+SoxRgFqMN8qBUgBEHWqn00bc4Zp3Ihp6DACUq7ShVVAKUEdGCU5cJyLKDAcdiYiIRhADABER0QhiACAiIhpBDABEREQjiAGAiIhoBDEAEBERjSAuAyQiGhK/fPNfVaI1peqR749dP/7kWduaedRExcUAQERUMFfevbtUDbBBS3SCcZzjHWCTEWxWgtVQajVEVonCagVMAxgDpAyoWgQA0ROv5yPB9jt2AUBr4TNmFRAa4IACDgLqoED2KVH7xZGHRKsHSyX3J8H38Mgnt23jISFDigGAiCgnO75x3Wa43tkCOV0pOVUgpwLOUxAkJyaAKus21QAAIABJREFUC+VASbpjtsLif2RhR8vDdb1z5djCr1WHron0mun1BUoA5QiSJIG/Fcn2O3Y9BOB7EPkegO8K1L0i6rufuOCqB3r721PelvyuufRdf3mjXxq7oh/FEBENK28cKE0JvAltxk5S/wrgXACr866rBzMQ+aYodRcU7jJw9vzdM175XShV4BM+6HAMAERElikXKK0CSqsE/pTAnwIcfyTaxRkFfN0Ivg7BVyacids/+syfbeddFB0dhwCIiHrlpE/35TVAaY1BaQqjusZqtQAvVQovhQKaaITb79j1NSi5CQY3xT/y93BOQXGwB4CIaAWcElBeLyivFVTWChQfp7oxq4B/AdTnpGS+sOucHbN5FzTK+C1LRNQltyqobBBUNwD+pCxj7h0tWCXANkC2IVLx9tuv/zco5x9Uoj9z/YW/+GDexY0a9gAQET0JtwJUNhhUNwj86byrGVoGCv8uBjf4Jv7Ux5/9moN5FzQKGACIiI6gHKCyQVA7XlBazSf9PosV8EWI+uuo5v7DJ8/adpSdDcgGDgEQES3wpwS1zYLqRo7p58gX4KVQ8lI/SPbtuH3X3yjoj133rFffm3dhw4Y9AEQ00haf9se2pEv2qJAECv+mjPrzh5ob/v6Wyy9P8i5oGDDjEtFIcsuCsS1AdbOBU8q7GlqCguB5ouR5myb2/uSqPbv+Z9kJ/+Kvz/uVubwLG2SjuVKViEaWNyaYeppg/fMMxray8R9AW5TgTyJdfnD7nhv+bPud12/Ju6BBxQBARCPBnxKsOs9g3aUGtc2GP/0G3xhE3gijvr/99l1/uf2b1z8l74IGDV8CRDTU/Elg9TMM1l5kUDmOM/qHkA+FX4FW92zfs+uGHXded2beBQ0KBgAiGkr+hGDV0w3WXqxRXs/JfSPAheBVYpxvb7/jhr/i0MDSGACIaKg4FWDqLMHaSwwqG9jwjyAXkF9OhwZu+MiVt+3ekHdBRcVVAEQ0FBxXMLZVMHaSQLl5V2OHiMAkGsYYiDEwC79gBGIMRAxEBGIEgoWwI+nXpRTUwmOeUo897ynHgeMoKEdBOS6Uo+AoB47rQLkuXMcB1MCPlfhQ8uu+Sq7afsf118xOrfrQF57y02HeRRUJ9wEgooFXO95g4jQZ2Bn9WmuYJIFONHSSwGgNo9NGPxcKcJQLx3PguC4cz4XnenA9D8od1I5jdR/E/O6uZ+34XN6VFAV7AIhoYPmTwOSZBqXpwenqN1pDRzGSJEGSJNBxAkjB6hfAiIaJNID4cR9SjoLreXA9H57vwfP9AQkFciqU+vvtd+z6F0f0b3FnQQYAIhpAygMmThWMbTHFntUvgE4SJHGMJI6QREl+T/WWiBEkUYwkirHYn+64DtxSaSEQlOB6hR6DeZFR7re277nhPbOTU+8d5WEBDgEQ0UAprxNMnWXgVvKu5OjSBjJCHEdIOlE6Zj9ilOPAL5Xgl0vwyiWows4nUPdBzBt2PWvHTXlXkgf2ABDRQFA+MHWGQXVTwbrLARhtEHc6iMIIOo6X/oIhJ8Yg6nQQdTqAUvB8D6VyGV6lDMcp0nCBnAqlvrhjz66PloPg6r+89FcbeVfUT0X6lyAiOqrKcYL1l+pCNf5Ga3RabTRm5lA/cBBBs8XG/2gkHTJoN5qoHziI5uw8wqBTpKEQJYLXdyq1b111267n5V1MP7EHgIgKS3nA5OmSbt1bACKCKAwRtztI2NgvnwBJFCGJIgQAvHIJ5UoFfrlUgGWHcrJy8OXte67/0zj03/7Ji7cFOReUOfYAEFEh+VOCtReZQjT+Ok7Qrjcwv/8ggvkGG39LkjBCa76O+QMzaQ+K1nmX5EDU7/il5I5X3/6Jp+VdTNYYAIioWBQwvlWw5kIDbyzHLn8RREEHjZk5NGZmEQWd4i3XGxJiDMJWG40DM2jOziEKc5+Yf6ZW5rbte67/9bwLyRKHAIioMBxfMH2OoLwuv4ZWjEEUhAjb7ZGcwZ+3xSWGHddBuVZDqVrJaxVBFaI+sv32G16CsnndrnN2zOZRRJbYA0BEheBPCdZenF/jb7RGUG8udEc32fjnzGiDoNFEff8MOs1WjrsiyssRObcN45AAAwAR5a52omDtsw3cav8bf6MN2vUGGgdmEAYBu/kLRsSg02qjvhDM8gkCcqpW5uvb77j+yhxunhkGACLKjVLpyX1TZ5q+/zQyRiOYb6Bx4CCioAM2+8UmIghbAeoHFnsE+v4vNg6ov7tqz673Xbl7d6G3OuwWAwAR5cIpAauepVE7ob9PdGIEnUYL9QOzCDts+AeNiKQ9AgcPotNq9/vfTynBW0onJ/+04xvXTfb31vYxABBR33nj6RK/8ur+3VMAdFpB2nC02+zqH3BiBJ1mC40DM4g7/V01IAo/JZ7zlV+6Y/eJfb2xZQwARNRX5dXA2gv7O96fRDGaB2fRaTbz6DqmDBmt0ZqvozEzhyRO+nnrszWSW3fcdt2z+nlTm5YOAIK+/h8louFV2SBY/UwN1acFyEZrtOfqaM7OQSf8UTbMdByjOTuLoN6E9Kl3R4AN4jg3X7Vn18/25YaWdREA9NBvh0hE2RvbIlh1bv8m+0XtDhoHZ4uwqQz1iwBhkE4U7OO/+5gSfHbH7Te8tl83tKWbANDqQx1ENMQmnyqYPMN0cQB570ySoDkzi3aj0bcnQSoWMQbtuTpac/V+7efgipL/u2PPrjf342a2LBkATBIN3e5HRNQ/k2cYjG3tww9hQbpMrP9jwVRQcRiicXAmPZY4e0oE1+7Ys+vd/biZDUsGgDjp7BfhjlhEtHxTZwrGtmT/FG60QXNuHkGzydn99DhiBO35BlpzdfSjLRPB27fvuf6Dmd/IgiUDgBIRk0T9qIWIhsj0OQa1E7P/gRsFHTQOziCJ+HOKji3tDZhDEvXhJEdRv7N9z/UfhEjeZxw/qa6m4+i4L90nRDQMVNr4Vzdl+yQukj7Ztesc66fuGK3RnJ1Dp9kCst5CSNTvbN9zw7VFDgFdBYAkanG3LCLqytSZknnjr3U60a9PY7s0ZDqtNpqzdZjs94R401V33FDY4YCuAoDRCUzMpTRE9OQmzzCZb+0bd0I0D85BJzrT+9BwS6IIzYMzmU8YVQpv3r7nhj/I9CYr1PWK3LhTz7IOIhpwk0/NfsJf0GyiNV9nlz9ZYYxBc3YuPQUySyI7t99x/ZuyvcnydR0AkrgNoznJhoieaOwkyXSpnxhBc24eYYv7kpFlIgjqzXQuSaY3UtfuuGPXazK9xTJ1vyeXAFF7PsNSiGgQVTYIJk/LrvE32qAxO4sk5AMIZScKOmjPzmfZu6QE+Ngv3n7Dy7K6wXIta1POJG5zRQARHVJaJVh1TnY7/Ok4QWNmFobj/dQHcRSheXAORmcWaF2j5LpX3X7DeVndYDmWtyu3AJ3Wwb5spkBExeaNC1afn93e/nEYoTk7B+nPVq5EANIVJo3ZWeg4s/0CJhwl//Sq2244IasbdGvZL13RCaL2XBa1ENGAcErA6vMls1P9oqCD1lym3bFExyTaoDk7n+XmUpscRz6/4xvXTWZ1g26sKLvHYQNJ1LZdCxENAKWAVU83cKvZNM5hEKDdaGRybaJuiQiac3XE2c09Odv4zt/ulJ19Oh/ziVZ2YwHC5kGYpA9bKhJRoUyeKSitzqbxD1otBPVm5pu0EXVFBK35OuKMjhZWgpd9b89pOzO5eBdW3IEnYtBp7kd1agOUyi3AEFEf1U6UzDb66TRbCFvsWVwpVzl41vqT8OzjtmLz2CpM+hXMxwHub8zga4/+AN88cD+HVFZCBK25BmpTglKlksUN3rF9z/V37Tp/x2cyuPiTWnLu7gX/7X2/J6Lee6yPO67PEEA0AvwpwdpnZzPpr9NsocPGf8XOXbMZbzjrMpwwvvqYn/OD+X34n3ffgnvnHuljZUNEAWMTE/CrWYQANMXgwhsu2H53Fhc/lp5fykbH6NT3cWUA0RBzfMGqp0smjX/QYuPfiytOfBr+6IKfe9LGHwBOmVqP9134Cjx341P7VNmQEaBVbyLuZDInYFw52P3qb318LIuLH4uVl7NOQnQa+9m9RDSMFDB9bjaT/qJ2gLDJxn+lnr3+ZPzmWZfD7bIH1ndc/PdzX4SzVm3KuLJhJWjV61ltSnWmib2/yOLCx2Itz+u4g6D+CMRwww6iYTJ+sqC81v51o6CDdqNp/8IjouL6eOPZz4dSy9uFyXNcvOmcF8LjsO3KiKA5X89kiaAAV121Z9evWL/wMVj9DjBJhPb8IzCaqwOIhoE/JRh/iv3hvTgM0a6z8e/FS044C6vLK+sxPn5sGs/ZxKGAFRNBa64Ondg/SVCJ/PmOO6870/qFj8J6BBSTIKg/Cs3jg4kGmvKA6XMEy3zAXJKOY7Tn6uBav95cvOGUnr7+kuN6+/pRJwshwFjfqVLVxKi/vfLu3SXLF36CTPqAxGgEjUcQtef5EicaUJOnC7wxu69gozWac3X+XLDglKn1uX49pd/PrZksdqxUzyh1kndZvugTZDcIJEAUzCFscIUA0aCpHCeobbb7uk2P9K1zb38LKq6Pquv3dI3V5Zqlakab1gla8/Z7tETw1h23X3eJ1YseIfNZIEkUIJjby1MEiQaE8oGpM2030oLW/DxMBmOmo8hzev/R7TmuhUoIAJIwQlBv2b6sK8r5myyXBvZlGqgxCYLGowhbM1wqSFRwU2cYOGW71+w02kgiTg6m4RUGAaLA+oPuKTpx/8j2RRf1bx2IAHGngWB+L3TCCYJERVReJ6hushvS406ITptr/Wn4tRtNJLbPyBH1pqvu3HWR3Yum+r4Q1OgYQf0RdJoHuGcAUYEoD5g6y27jr5ME7TpP9qMRIYL2XMP2PBdHGXzk1+/4SG+TPo52YdsX7IoASdhCa+5hxJ0GVwMRFcDEqQK3Yu/FuLhMisN+NEqM1guTAq06u4nJ37N90Xy3ghKDsDWD9jwnCRLlyR8HalvsTvwL6k0YzV4+Gj1JFGewxbW87dW3fvxkm1csxF6QRkcI6o8iqD8Kk2SyxzIRPYnJs4zVDX+ioIOow1BPoytotaHtTnytJq73AZsXLEQAWKTjDtr1vQibB7mdMFGf1I43KK2y102vtUbAPf5p5Ala9YbVITAF/Pz2Pde/xNb1ChUAAKSrBcImgrmH0WnsZxAgypDjCiZOsztGH8xz3J8ISOcDBLbPvBD1p7a2CS5eAFggAJKojfb8w+mKAQYBIuvGtgocizuOd9ptJDE3+yFaFHWsD4edVuokv2HjQoUNAIcsrhiYf3jhkKGAqwaILHArwNhJFrv+E42wYX03NKKBFzSaMMbmChu8a/u3r1/V63WKHwAWSTpHIKjvQ3t+b7p8kEmAaMXGnyJQtnaDFaDdaPAVSXQUYgRB0+pQwCqJ1NW9XmRwAsBhjI4QtmbQmnkIYXsOotnlSLQc/oSgdry9ZX9RENie8Uw0VOKggziyt8pNAW/e8Y3rNvdyjYEMAItENOJgHu25hxDUH0UStcFeAaKljZ9i73VitEbQZNc/0VICu6sCquI5f9DLBQY6ACwSpMMDncZ+tGYfRtSe4+oBomPwJ4HKBnsBIGg2OeufqAtGG3TshuXX9LI50FAEgMOJSRAF82jPPYz23MOIg3mIcDcyokUTp9rr+o+jCHGHm3cRdStsd6DtHYvtJ673+yv94qELAIczOkbYnkN75iF0GvuQhC1AbJ9zTjQ4/ClBeb2tp3VBx/4Z6ERDTqwOmSngl1/1zRtOWsnXDnUAWCQQJFGATvMAmjMPotPYhzhktyWNnvGt9r7no3YHmhNwiZYtCSMkobWeM19pedtKvnAkAsDjpWEgbB5Ea+YBdOr7kYRNHk1MQ88bE1QsPf2LGATWDzshGh3tRhOw9BCqgF/6xTv+duNyv24EA8DhBEncRqd5EK3ZB9GeexhRex5GR1xMQENn7GQAlg786bTaEA6nEa2Y0RqdtrUdAssa7m8t94tGPAA8ntExomAO7bm9aM0/hLA1gyTiDzoafE4ZqG6y830s2iCy94OLaGSF7ba1oWgF/Ncr7949vpyvYQA4BtEJ4k4jXVo48yCC+iOIgjmYJGTvAA2c8S0CZenVHrRanD9DZIEYg7Ad2LrcKj/Qr13OFzAAdEWg4xBRex7t+UfQmr0fQf1RRO156LgDYSKgAlMOUN1s5+nfaI044NM/kS1hK7AYqOVNO2Vn1+26Z+muI0VEoOMOdNwBAgDKgeeV4foVOF4Zrl+CtcFWoh5VN9o78a/TajPuElkkYhC22qiMj9m43Nbv33H6SwB8oZtPZgCwQQySOEASL3blKDiutxAISnC9MhzXz7VEGl21E+002cZoRJ3QyrWI6DFhO0C5VoNyen9wFJg3oMsAwCGATAiMjhF3GgibB9Geexit2QcRNPYjDuah44DLDqkv/Ml08x8bwmZgbdkSET1GRBAGluYCKLy0242B2APQJ2I0dNSGjh5bO+04HhyvlP5yy3A9D8rhPwnZUzvB0ti/EYQdjv0TZSVqB6jUqoDquRfAcY28DsA7lvzEXu9EK2dMgiRqI2rPodN4FK3Zh9CceQBB/RGErRnEYRM6CbkMkVZEOUBlg51rRe02n/6JMmSMQRjaGWITwa9cuXu3u9Tn8XGzaMRAxyF0/PhvBMdNewcctwTH8+E4PhzPg1JL/hvTCBIxqKzXcHwLGV8EIWf+E2UubLVRLldszCHfVNpqXgDgi0/2SQwAA8LoBNBJuvLgMEo5cFwfyvXSIQXXg3J8KM+Dw3Aw1EQMRMcwOkl/mfRtMQnEaEyftxZApef7RGEIMeyFIsqaSTTiOIJfsrBsR8yrwQAw3EQMdBICyVG6jpSC43hpOFAelOsu/NmF4/hp7wFXKxaSAIDRMCZt0I3WacOuNYyJIUY/6dCQV3NRPa73xh+AzY1KiGgJUSuwEgBEyctf+5WP/cZfXvqrjWN9DgPAMJN0NQJ0jKOvOVBQjgPH9QDlwnU8wHHgOC7guHAcNw0JjsucYJEYDTEGRpKFt3Xa2ItJG3uTNva9LLgfP7FqYS4RoOMEOuaJf0T9EkcRjNZw3F57cFWtU628AsBfH+szGABGmqSrExaWJB5zYaLCQm+BA8dxoJQL5bhQyoFa+DOUA6XSQKHgAI4DZWvv2aJKH9MhYmCMARaeyo1oQAzEpB+DaIgRmIWGvh87R06cVLNyHWtLk4ioa1HQsbUx0DYwAFBPBBDRADT0crcvWAwJUFjscQDUQlhwH/sclX5G+tiaProuDlGohc954rXxpCEjbXyP/hda3Hoz/RyBQKBEIIL07YWPyULjDZj0dzFpAy6msPvh+2MeKqstdCGKIObGP0R9Zy0AiHrhlV/bvfqTF2+bOdqHGQAoW2Ig2jzWDnP/o8yNb6lamdsRd8LChhyiYWaMQRxZmQzo+378MwA+frQPDnkfLdHoGT+hauU63PaXKD/2jtxWv3CsjzAAEA0Rt+KivKb37n9jDJI4slAREa1EHEV2euAUXnTl3bvHj/YhBgCiITJ+fMXK7P84CHtahUBEPRJBHFoJ4ZVyWz//aB9gACAaIrVNdtb+R9z3nyh3saXXoVHmiqO9nwGAaEgoR6G2sfcAoLWGTrj2nyhvcRQvrELqlWIAIBpmlbUlOH7v/f+JnW5HIuqVvWGALTvuvO7MI9/JAEA0JGobylauE1s6kYyIehdHll6P4rz4yHcxABANiaqFACBGkETs/icqiiSMrBzFLYLnHfk+BgCiIeB4DioWlv+lTxuc/k9UFCKCJI5tXOq5O2Xn49p8BgCiIVBZV4Jyeh//jyMrP2iIyKI4sjIPYPW9dz71aYe/gwGAaAhU11s4PxyA5gRAosJJQjvBXIm67PA/MwAQDQEb3f86SdJTDYmoUHSSQHTvr00FueTwPzMAEA06BZTX9D4BMLb0lEFE9tmYByDABYf/mQGAaMD5kz7cUu/j/zphACAqqsTO/JyTXv2tj69f/AMDANGAq67xrVzH0g8YIsqApZUA0JH7zMW3GQCIBlx5tYXxf60hHP8nKiydJHZOB3ScZx16s/erEVGeStO99wBoS08XRJQdK70AgvMW32QAIBpwlVUWAgB3/yMqPGPndXrW4hsMAEQDzKu5cEq9v4wTnv5HVHiJttFTJ1tf/a2PjwEMAEQDrWyh+x8CGAYAosLTibZxGUcn7ukAAwDRQCtN9h4AjNF2JhcRUaaMtvRaNekwAAMA0QDzJ9yer8Huf6IBYam3TpRiDwDRoPMnvZ6vYex0KxJRH9gYBlAKJwMMAEQDzZ+wMATAAEA0MKzMAxBsBRgAiAaWcgC/1vsQgNYMAESDwmgrQ3bsASAaZF7VBXo/AsDWDxQi6gNLJ3aue+1XPjbBAEA0oNxq7+P/IgIxXAFANChsDdkFpeqJDABEA8of673731g4Y5yI+kdEINL769bx1AYGAKIB5VZ7f/kaw/F/okFjkt4DgIhhACAaVF619x4AsfCDhIj6y0ZwV8IeAKKB5ZbZA0A0imzM2xEIAwDRoHLKFnoAOAGQaOCIhZUAArWOAYBoQLml3tcA8gwAosFj7LxuLewjSkS5sDEEYONJgpb2lKn1uGzT6Th3zWasroxBRHCw08RdBx/Elx66Bz9pHMy7xK49ZWo9Lj/+dJyzZjNWlceAhb/LNw8+gC8/9N2B+rsMKrEyB0AYAIgGleNbmAPAHoBMTfgVvPHs5+OSDac+Yc+m6XINp0ytx8tPPg9ffui7+N9334LAynnv2ZjwK/jts1+Aizaccsy/yytOfga+9NB38X8K/ncZdHaG7tQUhwCIBpTj2dgGkD0AWVlXncAHL96GS4/S+B9OKYUXbD4DH7hkG9ZUxvtW33Jsqk3jQ5e8EhcfpfE/nFIKL9x8Bt5/8ZWYLlX7Vt+osdJzp8AAQDSolGtjDoCFQugJKq6Pd53/M9g0Nt3112wZX4P3XvjywoWATbVpvOfCl2NDbarrrzl5Yi3e9oyXwlNsYrJg6WU7zn8dokGkAOVwEmBRvXzrM7B1ct2yv25TbRrvv+gXcFx1MoOqlu+46iTe/eyfw9oVhJKzVm/CS058WgZVkaXkbmEQkYj6Till5SAgWNhSlB7Pd1z83MnnrfjrFxvdvHsCNtWm8Sc9hpErTznfyrcpPZ6l3M4AQDSIHEvTd4U/nq07Z81mjHmlnq6xqTad63DAYrf/Sp78D7euMoFTptZbqooeYyMBCAMA0UhTHAKwbSVd/0eT13BAL93+R7N1Yq2V69Bj7PQAqKUDgBjFvUKJCoZD98U14VesXavfwwE2uv2PNFnmagD7rPwAcJcMAAqYs3EnIrLIVgBgkLCuFYdWr9evngDbT/6Lmpb/f5Cd6T8A4qV7ACAzdu5FRNYojt0X1f1N+z8ys+4JyOLJf9EDGfz/GHl2lleGXQQA9aiNOxGRPbYO8VEMEtbddfABRDqxft2sJgbamvB3NI24g+/OPmL9umTF0gEg8tRdAOx/NxPRiokRO933bP+tC5IIX3jgPzK5tu3hgKy6/Rf9/Y++Cc2lpkW1dAD49v+4ugXgnj4UQ0TdEju9AIoJIBM33Hcb9gWNTK59XHUS73rmz1q5Vlbd/kA6FPK5H92VybVHnaWeu6UDAAAI8FUbdyMie0xioQuAQwCZaEQdvPvOz6OdRJlc39YTe1ZP/vUowDV7Ps8DgTJiYxdQdBsAXCW7bdyNiOwxSe9dq8rhViBZ+cH8Pvz+rZ8ZuVnw81GAt936WTzYms27lKFlqQcg6OrVf+sH33ILgB/buCMR2SEWZuZYepKgY7hvfh/efttnRyYEzEcB3n7rZ/GjxoG8SxlqlgLATJcbiioB/uQ6AO+wcVci6p0ONYDe9gR2hvi0NkcpXLrhKbhk46k4beo4TJdrCJIIjwR13LHvx/jig/+J/RmN0x9uMQRcc8HPY9wvZ36/vPS78d80No0XbT4T56/bgvXVCZRdH7OdFu6Z24t/3/t93ProD4d2mwsbPXcKONB1jLjgN/94jZS8HwGY6PnORNSzjc9dg/ETettlLWg0EbYDSxUVx1OnjsObz30htoyvOebnREbjMz+8E9d//xswfdha8dSp9UMbAvrZ+HuOi9eefgleuuWcJz1u+Pvz+/DBb30xk30Z8lYZH0NlrNbbRZT6c7fbz33o9i8Fmy584ZhS6rm93ZWIbKhtqKCyurdDZ3SSIImGa6LWBetPxv/3rJctuV7eVQ6etvp4nDq1Hl/dex9Mxs+LM2ELdx18AM/Z+BSUXEunORVAPxv/suvhjy74OTx341PhLNENvqYyhucffzrumd2b2YqMvJQqFbh+b99DAnx+Wf0IlYr5AAAO7hAVQDoE0BtnyCYBnjSxBm8576eW1cBesP5k/NqZ/XmuGbY5Af3u9n/zOS/E2auP7/rza14J73jGS/t+oFLWbAwBOEodXNZVvvLe358VwW/3fGci6pnpWNgHYOnjQAbKr5/5PFRdf9lf99It5+D0VRszqOiJhiUE9Lvxf+a6LXjuxqcu++smShX86hmXZlBRfpTb+yRAMWZ5AQAA7vjQW24A8Nme705EPYmD3pcBOEMUAE6f3oBz12xe0dcqAC8/+Ty7BT2JQQ8Becz2/4Wt56/4ay/ecCo2jU1brCZfrtP16P0xiaP2rejVb8T/TQDc4JkoR0nbxhBA7z9IiuLC47b29PXnr9uCUh//fwxqCMij8Z8oVXDWMrr+j6TQ+/dHUSil7KwCMPLjFV1lz4d+Z68S9XIAg/WdSzREklbvAcDWD5Mi2DJx7Bn/3ai4PtbX+jtWPGghIK91/ieMrVpy0t9STnqSFSGDxHGthFQ9rpoPrPiVf9uHrv66grzeRiVEtHxJoAELy9fcIRkGmC71uCwKwKrymIVKlmdQQkCem/xMlXv/t522cI0isDRs9+BHn/n6uKcr3Xbt7/2Ngnq/jWpYUzQYAAAc8UlEQVSIaJkEiNu9bwfseMMxDNDrEyIAuDmdjVD0EJD3Dn+uhQ2rbFyjCGz0AAjwIwDo+f/Ibdde/RYAH+i5IiJatrjR+xp+Z4jWpA+yooaAvBt/ejzX6/31qsRSAACA26+9+moB/o+NaxFR96J67ysBbPxAITuKFgLY+BePY+P1qsReAACU3HHt1b8BqPfZuR4RdSOetxEAhmMIYFgUJQSw8S8mG69XEXUfYC0AAICS26+9+q0A3gyg94FJIlpS1LCxF4DLUwELJu8QwMa/mBzXtXISoAfnO4DVAJC6/dq3/KlA7QDQsX1tInq8aN7OPv4u5wEUTl4hgI1/cVkargurav5eIIMAAAB3XHv1JyC4CIIfZHF9IkolbQ0d9t7h5vnL3z6XstfvEMDGv9gsvU7v+egzXx8DGQUAALj9Q2+5y9GVZ4DbBhNlKpyNer5GryeLUXb6FQLY+BefpdfptxffyHRh5K1/9tv126+9+hVKyVsB9P5TioieIJztfRjALTEAFFnWIYCN/2CwMwSgvrP4Vh92RlBy2wd/732AeQaAO7O/H9FosREAHMcdupMBh01WIYCN/2BwPUuTdZXpZwBI3X7tW+9uT7Uvgqj3AOh9E3MiAgB0ZuxMBOQ8gOKzHQLY+A8Ozy/ZuIx4SXLH4h/6Gvnv3rkzuv1DV79NKXM+oL7Wz3sTDau4HsNEFiYClhgABoGtEMDGf7C4ZTsTAD/+7NccXPxDLn1+t33wrd+6/drfvVQpvAbA/jxqIBoaAnT29z7Fxi9ZecKgPug1BLDxHzxWegBEfeXwP+Y46Kfk/2/v3qOrKu+Ej3+fvc/Z55YbF7EqYkHR1lurCWDRmdZqx47zasd2oHAiWtt36du+YxW1eOk7M1m2M2q9YNu3a02Z2jpAEgq29TJVp+Pb1lYXIoniCHYsKAgIjhICOTk5172f94+EihogcJ599j7J77NWlhBOfs9vmWQ/v/Ncn79v0VLPsk4dOka48hNNhBijcrsqHxK2bBtrlFwNPBYcaREgnX/tsSM2loH5f6X0e0beA/9t7773pl1dixd9VXv6dGAVUPn9pkKMMSZGAAAiZoYZRZVs2vs2t635Oe/kMiN6/fZsL4uee0g6/xoTdWJG4ijlPrv/3wMvAPbp+u7Nr65dvGiuZ3l/DqwOOh8hakm+p4R2K6+dIzEzDxpRPa/1vcPXn13BY1teouwNv7664JZ56LVuFj77U7b391Y5Q1GpSKzy4X8Fby1vXrDpPXErjmpY9723PAPMbr7xzvOUZ92u4PygcxIi7LyyR35XkcTRlXXgUcdBIcNwtaavmOOfX3maZRuf4+yJU5hSN556J05fMc/mzC7WvbOVnGtmt4ioLqUUtoEFuhr1+/d/LnQFwD5DhcCnm2+88zzLs9qACwJOSYhQG3grX3EBsO9hUy5KZ1GLsqUCv9+5Meg0hEGRoaK8Uhr9q/d/LjRTAAfSfe8tz6xdvOhCPOuTaB5FbhoUYlgDO83sDY8Ymm8UQlQuGjez/98qe0++/5OhLwD2Wfvdm3639v5Fn/MinAz6e0A26JyECJP87qKR8wCcRAwjbzmEEJVRiqiZdTnr28+5fPv7P1kzBcA+3Xcvem3t4puvixCZAtwKbA46JyFCQZsZBbAsi4iZa0eFEBWIOg5KVV6Na8UTw32+5gqAfVYvvmH32sWL7lzbOHASqM8wuIVQJi7FmNa/PWckTjQeNxJHCHHkHAOr/wGU1h8Y/ocQLwIcsbY2by08BTz1iYX3HVem/BXgS8DUYBMTovqyO/JoD1SFpb0Ti5HL9JtJSghx2JRSROJGhv8zpUT02eH+ofYLgP2sXnzDm8DtwO2zbryn2fPcK0C1AhMCTk2IqvCKHrm38yQ/VNk7eGVbRGIO5YLc4i1EEKKxmJHhf7R+fNVpc4f9Ra7ZKYBDWXPvTd1DawWO15q0gscBeZqJUS+7PW8kTkymAYQIjJMw8/unLOunB/q3UTUCMJzVi2/IAZ1A58evX9zkWKVLtWYO8BeA3H4iRp3+bTkmNjdR6ZuHSDyGyii0VxvHApV15TsgYtaofyTWpJhd+ffFxM9HtViWZep67kyxYA87/w9joADY37r7F+4BlgJLz7vljnGFov05NF8ALgTk7Y4YFcoDLvl3CiQmVXgoEINrAQo5MyMKfsuXK18DPD6eMpCJMG1irK7iGLly7QwAO4m4qa24j66aPfeAK4PHVAGwv2fuvLUXeBB48BML70uUcc8F7xK0+hsUxwacnhAVyWweqLgAAHBSiZopAEw84E8bdyxPbF1vIBth0qnjK38kD9RMAaDMDf8rb8XB/n3MFgD7G5omeAp4ira2hTP3pGZpuASlLwI+ziheKyFGp8zWHEfNaEJVeIWobUeI1MjRwP+d66s4xoxJU0nYUTk3P0SanAQfmzC54jgmfj6qIRpzsGzbRKg9uxvG/8fBXiAFwPu1tXnPD95GuBq4rfnGeyba2jtfay4E/hI4PtgEhTg0r+gxsLNA6rjK30k4iXhNFADbs5XfclcXjfH5aWfTvnGNgYyECfOnzyJqVd4hvlkjtyDGkglDkdTPnph+8UFPBpMC4BC6771pF4OHDK0CaF545xlK2RcoT5+P4s+AcYEmKMQBZF4fMFIARONxVH8W7YZ7EdWWTI+ROHNPbGHdrm1s6N1hJJ44cjMnTeWvppxhJJapnw8/2RGbiIGb/wC0pR841GvkxO8KzVh4xzSwL2RwIeGnkTMHREgoSzH1smOw45XPYBWyOXL94T4YKKIsVvzFNSTsyh+gmWKef3zhl7y8+00DmYkjMXPSVBad9Vkj38/d+SwLfn3I/jBwyYZ6I/P/GtZ3tqQPWTnJCECF1i6+9XVgydAHMxbeMU0p+zytdTOoc4GzkDUEIgDa0/S9nmXcqfUVx3KScfLZLFqHd0tgWXts2L2DlqNOqDhWvRPn27Mu4+HNL7LytS6yJTM3LYpDa3ISzJ8+i7+acoaZg3CAdT3bjMTxk7ItHDMn/6FQ/zKy1wlfnXfLHePy+eg5SnnngJ4BqhmYFHReYmxwGiKc8D8+ZOQ3PdefpZAdqDyQjy6c/FEWnvkZozELbpkXd23lD3t2sjufpei5RuOLwfMXJsbrOHX8sXxswmQjc/77u73rMda8He574xJ1KWKppIlQ+VIxctyq2XN3H+qFUgAE4KxFdx0bKVnNSnnNWqtmYCZSFAifTP7MUUa2BHquS19PL4R4FCBhR1l+4f8kbmDYWIwOe4s5rvh/D4T6ICClLBqOGm9oxEN3dLS0to7klTIFEIAXv3PzDmAH8Ni+z8269q7Jrm2fYVnumVqrM4EzgI8A8iQTFdn7atZIAWDZNrF4nELOzI2Dfsi5JX775qt8dsrpQaciQuLJbetD3fkDxFIJY9Md2lNLRvpaGQEIsdPa2pxUX/yjaPs0T3unKqU+wmBRMB05xliMjItSW6Z+/kPHROJ2xeOLnufRt2t3qEcBPpRsZMknF2BXeiWiqHkFt8yXf/MT9hTDW7QqS9EwYULFZ3YM6e5oSbeM9MUyAhBiG9raisBLQx9/8qm2tshAX/00vPKpWJziaaYr1InAicBxyKLDsUYD24CNSrNJK71RKzZqZf8xX9//+oa2tuL0dOdNoO+utCHLsogl4hQGwvtAfWtgL09t/wMXHX9a0KmIgD26ZV2oO3+AeDJpqvNHa+49nNfLCMAoc9K134tNtHPTPEudqDUngp6GVh9G6eNBTUG2KdaqXuANNFtReotS1htoNru4m+ob8xt/29Z20PN60//ZPo6i2gZUfNi9HhoFCPOOgHonzpI/X0CDY+pQFVFr3sln+OrTy0N9qqNlWdRPNDX3zxs7Msec9Nvzzy+P9AukABhjzrzp7lRCqxNclxOw9BSl9WQ0k1H6aFCTGVyMeHTQeY4xe/XgmpC3FLypFTvw2GpZvOGV1ZZY3Hvj2e/cnKm0kXR35/fR+m8N5Eu+P0t+DO4IELVBA9+qgZX/pvb9A6DVDR0z5i8+nC+RKYAx5j/v+UYWeGXoY1intbU5dT2JSUSZ7GrraEvrozzFJAsmgpqo8SaCmgQcBUwEjOxdGUXKQM++D63oQesepa23sXhLoXe6ytuJZe10ypEdQ3dR+M5z+Y5lcTUG1o/EU0mKuTyeF97FVU9t/wMfm3A8nz7uI0GnIqrskc3rQt/527aNkzCz7x/oU6572CcdyQiAqNhJ134vNsHKNGk73ujpcpONatKKRq0ZpzRNGtUEXgKlkqCb0CqOIgk0AYmhj3oGC9LI0J+rrQhkAQ/YO/S5PqVVv1ZeBlQ/g8PwGaV0v9ZkQGVA7dFaZVBuj8LbZZVTu9Z8/+uhvXUkvbbjxyiuMhGrmMsz0FfxwISvEnaUu2fPYWr9xKBTEVWyoXcHt635BeWQn9eQamokGjOzllvBne0t6VuP4OuECKdzF91Vrywvks3qSCSiPlAUaM+K2hH7gBeFuyVdUHZ52HHqCLE9dqyge+OF7NBiyzHhi2tWnGzb3iuAkZNWMj29uOURTzkGoslJcPcn5nBsqinoVITP3ujv4ebVPyNTCvcV1pGYQ11To6lwGQ3TOlvSuw73C6UAEGKMSXd3dKKZZyKWWyqR2b3HRChfHZNs5B9nXsbRyYagUxE+eaO/h797/hF68uG+swKlaBg/Diti6rRD/e2Olta/O5KvlO1iQowxSnnfAoyMj9rRqLlFTD7aObCXm1avYnPfYb9JEjVgQ+8OFq1+KPydPxBPJAx2/uxx7OJhbf3bnxQAQowx7Wdf/gqoZabiJepSxvYx+2l3IcsNq1fy6JaXDv1iUTOe3Lqe29b8gv4auLDJsm1idSbXTOv7HjzrqiMegpMCQIixyPLaACNPTGVZJOoOuBQjVIpumR++8jR3r/t39hTCvY1RHNw7uQy3dz3G99f/OvQL/vZJ1tcZO/IX2BXP5++vJED4y3YhhC/SXR33A9eZitffu5dysXbWU6aiMRZMP4fPTjnd+O1zwj95t8RjW15ixaa15EN8yM/7ReMxUo0m16Cob3S0zL+nogimUhFC1JYFLy2d5JYimzC07dJzXTI9vaE+IXA4E+J1fH7qWVw4+VTqosb2ZQvD9hZzPLltPY9sXsfekB/v+37KUtRPmIBlbKpMbeptbDz9iekXVzSKJwWAEGNYuqv9ZlB3mopXGMiRy4R/IdZwopbNrElTOfeYkzhzwvE0yTHCgdudz7KuZxvP7NxI9ztvhP5WvwNJNTYQjRssLrX+644ZrY9UGkYKACHGsDkbVjrRXPll4GRTMbO9eynV0FTAcBQwpW4CJ9RP4Li6Jo6K15OKOCSjMSx5bBrnao9cuUh/qcDb+Qxv9veyJdPD9mxv0KlVzInHSTYaPdvs1x0t6QtMBJKfZCHGuPTa9s+h1MOm4nmeJtOzGx3iY4KFqAbLsqifMN7kLhlX4Z3V3nL5yyaCyS4AIca4oaHE/zAVz7IUyYYgTnMWIlySTQ1Gt8gq+KGpzh+kABBCAJZ2r8XQtkCAaMwhVgMHBAnhl3hdikg0ajLk27Zb+nuTAaUAEEKwfMaCV1HqDpMx4w312I7RB6AQNSHiRImnzF6SqjXXL511ZY/JmFIACCEA6G1ovBP4L1PxFJBqqEcpecyIsUPZFslGYxf97PN454x0p+mg8psphADgiekXF7D0NYCxjfyWbZNsqpflxmJsUIq6hgaD+/0ByESIfNVkwH2kABBC/EnH2a2/U4olJmNGHYdEKmUypBChlKyvMz7tpeGbS1vmbjUadIgUAEKI94jlct8AtdlozFTS7EEoQoRMLJEwfzOmZvUpzX/8gdmg75KBOSHEB8x/vuOTyuLXmHyToDX9u/dQLpeNhRQiDCJOlNS4JtMdar+l3LOWNy/YZDbsu2QEQAjxAZ0z00+j9HeNBlWKVFMjli0X74jRw45ESDU1Gn83rRVf97PzBykAhBAHUCpEvwlsMBlT2dbgw1J2BohRwLIsUk0NJq/4BUDDQ53N6Z8YDToM+S0UQgxr1ey5OVtb8wCjV6/ZEZvUuAaZfxQ1TSlFqqnBjxGt7crRV5sOOhwpAIQQB7Rsxrz1KH296biRaNSPvdJCVMdQ52+bPekPwAN9RceZrVW5BUkKACHEQXU0ty5RsNJ03GjcGbwlTYYCRA1RDF7vG3Ec88G1/lZHS+tvzAcenhQAQohDKhK5GpTxBUlOPE6yTi4OErUj2dhANOZD5w+Pn9yy8XY/Ah+I1N5CiBFZsHbF6a7yVgN1pmMXBnLkMv2mwwphVKqhnqg/l1y9jqNbqjX0v4+MAAghRmTZjHnrlVJXYPCo4H1iyQSJhjp5SyJCK9noW+eft7DmVLvzBykAhBCHob15/i+04m4/YscSicHpACkCRKgoUo0NOHGfrrfW6urlLfNe8Cf4wUkBIIQ4LOXXIrcpzZN+xHaScZINsiZAhIMCUk31/h1jrfTijhnzl/kT/NCkABBCHJZVc+e6uN4XgZf9iO/E46SaGsDw4SpCHA6lFKnxTURj/nT+Gn5x8tkbb/Il+AjJb5gQ4ohc0bVySpnyc8AxfsQvl8pke/eitedHeCEOSFkWdeMasSMRf+LDmhT1n17ScsmALw2MPA8hhDgyl3etONvD+x3gy32/rusy0LsX13X9CC/EB9h2hNQ4X074G6I267L+ROc56f/2qYGRZxJ0AkKI2ja/u+MSpfk54MvbJe15ZPfspVySWwSFvyJOlFRjI8ryrWvs1TC7syX9X341cDhkDYAQoiKdzenH0Por+LA9EAaHY1Pjx/m1BUsIYHAXSmpck4+dvx7QcGlYOn+QEQAhhCGt3R3Xa81iP9soZAfIZbM+lRpiTFKKZH0djr8FZkFhXdreMu9XfjZyuKQAEEIY09rd8W2t+aafbZQLRbJ9GbQniwNFZSzbJtVQj+0Yv9Rnf2UNczpb0g/72ciRkAJACGHU/K6OexTc6GcbnucysKdP1gWIIzY439+AsnydCfcUakF7y/wOPxs5UlIACCGMS3e334dWC31tRGty/VkKAzlfmxGjjSJelySeTPrdA2ql1DXtzfP/xddWKiAFgBDCPK1VurtzMXCd302VikUG9sqUgDg0y7JJNtYT8XfIH8BTSv2vMHf+IAWAEMIvWqv0Cx33+j4SwOBWwYG+DKVC0e+mRI2KJuIk6+r83OK3T1mhrgzrsP/+pAAQQvgq3d35D2jdVo22irk8uUw/Wss2ATHIshSJ+gaicacazRXQ+osdM1ofqUZjlZICQAjhu3RX+3WgFlOFZ47nuuQy/TIaIHDiceL1dVj+v+sH9IDCvixsW/0ORgoAIURVtHZ1XKnhR/h0YuD7lXJ5cv39eJ6MBow1lm2TaKgj6lTlXT8MnvB3aWdL+plqNWiCFABCiKppXbviL7XyfgpU5c5f7Wly2SxF2SkwJigglkwSq0uiqnabpNqs0ReH6YS/kZICQAhRVenn2z+OpX4JHFutNt1SiVymX84NGMUiMYdkXQrLpxv8hqNgjRUtX7rsY1e8XbVGDZICQAhRdfNe6DzW8vS/AWdVs91SvkCuP4sntwuOGlbEJpFKEY3Hqt30w3XUtwZ9pW8lpAAQQgSi9bnlDV7UWqY0l1azXQ0UBgYoZAfQsj6gZlmWRawuhZOIV78jU3rxyWdvvKlNtdX04RNSAAghgqO1Snd3LAL1T1T5dlKtNcWBPPlsVrYN1hClFE4yTjyVquI8/5/klVb/u33G/B9Xu2E/SAEghAhcurv982j1r0BdtdvWnkd+YIDiQF4KgRBTliKeSOIkE9U4zGc4r+PpL3TMbF0XRON+kAJACBEK85/vOE1ZrARODaJ97WmKAznyuZwcKxwiyrKIJ5M4yXgQ7/j3eRxHX95xZmtvUAn4QQoAIURoLHhpaapcivxAwZVB5aC1ppjLUxjIyWLBANkRm1gySTSIOf53eWj9rZNbNt5e6/P9w5ECQAgROunu9i+h+QGoZGBJaCgXixQGcpRKxcHVg8JfCqKOg5NMVPMQnwPZBvrKjpbW3wSdiF+kABBChFLrC8tP1Z5aBursoHPxXJdCLkcpV8CT6QHjLNvCicdxknEsyw46HTQ8VC5Grlk1e+7uoHPxkxQAQojQurrrh9F+3dCG0jcDwfcMaMqFEoVcnlKxCLJo8IgppYjGYkQTMaJRJyy9Ub9WfL2zOf2ToBOphnD8LxdCiIOY93znbMvSS4ETg85lH+1pSoUCpXyBcrEoMwQjoRRRJ4oTjxOJOUEu6vsgzWrLcq9Y3rxgU9CpVEuI/u8LIcSBLXhpaapcjHxbKa4lFKMB79Lao5QvUioWKReKsp1wP8pSRByHaMwhGouFq9MflNHwzVOa//iD0bjQ72BC950QQoiDSa9tn4lSPwLOCDqXYWlNqVSiXChSLhZxy2NsJ4ECOxIlGo1ix6JEHCe0HY2CX9pEvra0Ze7WoHMJQli/L0IIcUBXd/0w2k/DzaBvAxJB53Mw2vMoF0uDH6UiruuOuh0FdjSCHR3s9CNOFGVV9VDHI/G21lzfOSPdGXQiQZICQAhRs+a92Plhy9WLgb8OOpeR0lpTLpXwimXK5RJu2a2p8wYs2yYSiQx1+oMdfwiH9Q+krGCJ7Zb+fumsK3uCTiZoNfNdE0KIA0l3t1+EVt8FTgk6lyOhtcYtl3HLZbyhgsB1XTzXC2SngWKwo7cigx+2HRn8byRSS539eymesj1r4bIZ89YHnUpY1Oh3Uggh3mvOhpWOky9/TWv+DzAh6HyM0OBpD+16eN5gQeBpD1yN1hrteXha73shGoYWIL63aFBqcEheWQqFAkthKYWyLCxlDf7dtrAsG8u2amEI/zCoTRr9jc6W9MNBZxI2UgAIIUaVOV0rGx3Kt2i4jpCvDxC+2gXqrt7Gxu8/Mf3iQtDJhJEUAEKIUan1ueWTdcT6BwbvFYgGnY+omj2g74vn8/f/+LyvZIJOJsykABBCjGrpF9pPwOMGUNcAsaDzEb7Jgvq/ON5do+3WPr9IASCEGBPmvdj5YavMrSh9JVIIjCZ7FPyzB/d2tqR3BZ1MLZECQAgxpix4aekkt2h/DaX+ltGyWHBs2onWS5xI8f4Hz7pqT9DJ1CIpAIQQY9KcDSvrojn3y6CvA6YFnY8YKf2C1uqenf3HrPrt+eeXg86mlkkBIIQY09p0m7Wx6yMXabyvoriYkN0zIADIg/659tSSzpnpp4NOZrSQAkAIIYZc0bVyiqvKV2vNVcCxQecz1mlYr9A/KhWjy1bNnrs76HxGGykAhBDifeasXGk707wLNN4VoC8DlQw6pzFkD6ifaUs/0Hl2enXQyYxmUgAIIcRBfPmZB+rzifgXgLlodQHgBJ3TKJQBHtWKn+5paPqVHNxTHVIACCHECH3pxZ80FcvOpaD+BsVngHjQOdWwDFo/jsVKp6/4+IPnX5UPOqGxRgoAIYQ4Ald3PZbs132zUVwC6lLgw0HnVANeB/1vaB7rbRr3e3mnHywpAIQQwoAvdq/4aATvIq3Vp0D/GTA+6JyCpuAtjfq9Rv/KKntPtp9z+fagcxLvkgJACCEMa9Nt1qsvnHy60upTCn2uhpmM/hECDfxBw7MWPKuU++zy5gWbgk5KHJgUAEIIUQVzXlh5VNQtzcCyZqD1x4EzgKlALd69WwReQemXNeplS1sv2W6he+msK3uCTkyMnBQAQggRkKu7Hkv2q76PKq1O9+AUpZiKZhqDhcFRAafnAts1bFaoLRq9WWn9Rxt7fULtfXVJyzWlgPMTFZICQAghQujLzzxQn3MSU7A5GjgWzSQFx+nB+wsalNYNKNUEqhF0Pe9uT4wA9UN/LgH9Q3/eC3gKChoGQPcoVA+wSyvVg+f1ALssrLc8vK11qn+bdPKj2/8HjJhqg7rVn9cAAAAASUVORK5CYII=;" parent="1" vertex="1">
          <mxGeometry x="540" y="525" width="50" height="50" as="geometry" />
        </mxCell>
        <mxCell id="ILMhwKr-gRY-XF_f-1hN-29" value="Download data from jsPsych" style="text;whiteSpace=wrap;fontStyle=1;align=center;" parent="1" vertex="1">
          <mxGeometry x="545" y="570" width="40" height="30" as="geometry" />
        </mxCell>
      </root>
    </mxGraphModel>
  </diagram>
</mxfile>
